<svg class="S" xmlns="http://www.w3.org/2000/svg" xmlns:xlink="http://www.w3.org/1999/xlink" viewBox="0 0 126 126"><defs><radialGradient id="radial-gradient" cx="55.74" cy="1243.3" r="76" gradientTransform="matrix(1, 0, 0, -1, 0, 1296)" gradientUnits="userSpaceOnUse"><stop offset="0" stop-color="#fff"/><stop offset="0.43" stop-color="#d6d6e0"/><stop offset="0.5" stop-color="#c8c8d1"/><stop offset="0.62" stop-color="#a3a3ab"/><stop offset="0.65" stop-color="#9a9aa2"/><stop offset="0.89" stop-color="#d1d1d1"/></radialGradient><radialGradient id="radial-gradient-2" cx="52.83" cy="1244.36" r="74.1" gradientTransform="matrix(1, 0, 0, -1, 0, 1296)" gradientUnits="userSpaceOnUse"><stop offset="0" stop-color="#d6483d"/><stop offset="1" stop-color="#b0333d"/></radialGradient><filter id="luminosity-noclip" x="23.36" y="-8839" width="80.05" height="32766" filterUnits="userSpaceOnUse" color-interpolation-filters="sRGB"><feFlood flood-color="#fff" result="bg"/><feBlend in="SourceGraphic" in2="bg"/></filter><mask id="mask" x="23.36" y="-8839" width="80.05" height="32766" maskUnits="userSpaceOnUse"><g style="filter:url(#luminosity-noclip)"/></mask><linearGradient id="linear-gradient" x1="63.38" y1="-6.04" x2="63.38" y2="74.86" gradientUnits="userSpaceOnUse"><stop offset="0" stop-color="#fff" stop-opacity="0.4"/><stop offset="0.01" stop-color="#fff" stop-opacity="0.39"/><stop offset="0.32" stop-color="#fff" stop-opacity="0.22"/><stop offset="0.6" stop-color="#fff" stop-opacity="0.1"/><stop offset="0.84" stop-color="#fff" stop-opacity="0.03"/><stop offset="1" stop-color="#fff" stop-opacity="0"/></linearGradient></defs><g style="isolation:isolate"><g id="design"><g id="Layer_2" data-name="Layer 2"><circle cx="63" cy="63" r="50" style="fill:url(#radial-gradient)"/><path d="M80.36,25.85c9.17-3.78,18,2.37,23,7.71a50.8,50.8,0,0,0-4.09-4.92c-4.47-3.55-8.71-5-11.13-5.23-9.86-1-18.34,5.45-21.09,16.05-3,11.47.19,18.42,2.37,22.92,3.33,6.85,11,15.09,15.2,24,4.82,10.26,1.18,18.39-1.6,20.85A27.13,27.13,0,0,1,76.9,111a46.07,46.07,0,0,0,5-1.72A13.78,13.78,0,0,0,87,104.22a17,17,0,0,0,1.71-8.42C88.43,84.24,79.68,76,72,63.07,64.1,49.7,67.63,31.09,80.36,25.85Zm-51.54.73a13.9,13.9,0,0,0-2.7,4c-1.7,4,.47,10.09.91,15.73.72,9.17-1.16,14.63-6.31,24.93a21,21,0,0,0-1.23,15.84c.19.48.39,1,.62,1.44a49.86,49.86,0,0,0,5.37,7.38c-7.95-9.43-5.9-18.56-2-26.3,6-11.53,6.77-20.1,3.88-32.7-1.36-6,2.11-10.39,5-13.4a37.78,37.78,0,0,0-3.57,3.06Z" style="fill:#4d4d4d"/><path d="M82.83,106.26c-1.67.77-2.49,1.31-2.14,1.63s2.16-.74,4.06-1.69c1.2-.6,1.15-.42,2.53-.32,1,.07,1.52-.09,1.85-.4.57-.55-.26-.52-1.57-.74C86.06,104.43,85.74,104.92,82.83,106.26Zm1.8-5.59c-1.71,1-2.48,1.82-2,2.43.33.37,2.31-.86,4.22-2.16,1.2-.82,1.22-.49,3,0,1.29.35,1.78.14,2-.35.48-.84-.51-1-2.16-1.62-1.9-.79-2.13-.08-5.1,1.7ZM27.47,35.85c1.51,0,3,0,3.15-.51.3-.8-.25-1.07-1.46-1-2.29.07-2.5-.45-4.1,1.36S22.43,38.4,22.89,39c.28.34.78.17,2.05-1.2C26.46,36.14,26.47,35.82,27.47,35.85ZM84,93.44c-1.31,1.19-1.78,2.07-1.13,2.75.41.42,2-1,3.52-2.56,1-1,1.18-.66,3.35-.19,1.8.39,2.38.09,2.55-.57.28-1.17-1.1-1.24-3.42-1.88S86.43,91.19,84,93.44Zm3.75-6.89c-2.59-.48-2.51.46-4.87,3.14-1.25,1.43-1.65,2.43-.89,3.1.49.42,2-1.26,3.44-3.12,1-1.24,1.17-.82,3.52-.55,2,.25,2.53-.13,2.63-.87C91.7,87,90.22,87,87.71,86.57Zm2,8.61c-2.14-.77-2.28,0-5.07,2C83.06,98.2,82.45,99,83,99.69c.36.4,2.14-.88,3.93-2.27,1.16-.91,1.23-.55,3.16,0,1.55.41,2.09.17,2.33-.4.45-1-.74-1.15-2.73-1.84ZM69.8,51.6c2.11,1.56,2.84,1.39,3.11.41.47-1.72-1.18-2.54-3.83-4.71s-2.79-.87-5.9,1.37c-1.64,1.18-2.3,2.3-1.68,3.68.39.88,2.36-.52,4.37-2.17C67.17,49.08,67.28,49.76,69.8,51.6Zm-3.63-8c1.44-1,1.48-.28,3.77,1.81,2,1.77,2.68,1.68,3,.72.64-1.66-.92-2.63-3.34-5.06s-2.69-1.15-6,.76c-1.75,1-2.53,2.06-2,3.5C61.94,46.21,64,45,66.17,43.57ZM89.69,22.15c-1.27-1.27-2.13-1.88-2.7-1.73-.37.11,1.15,1.64,2.84,3.28,1.13,1.09.79,1.06.67,2.46-.1,1.23.27,1.78,1,2.14,1.19.61,1-.44,1.23-2S92.12,24.6,89.69,22.15Zm-22,15.43c1.61-.74,1.54-.11,3.53,2,1.68,1.81,2.45,1.8,3,1,.9-1.46-.51-2.5-2.59-4.92s-2.53-1.32-6.19.11c-2,.75-2.87,1.63-2.61,2.95C63,39.54,65.29,38.68,67.71,37.58Zm17.82,44.7c-2.85-.38-2.58.57-4.59,3.44-1.06,1.51-1.31,2.56-.36,3.21.59.42,1.85-1.37,3.07-3.35.82-1.32,1.1-.9,3.65-.72,2.13.17,2.67-.24,2.63-1C89.85,82.5,88.29,82.63,85.53,82.28Zm-7.61-57c1.7.34,1.37.65,2.12,2.71.66,1.8,1.33,2.17,2.18,2,1.46-.37.67-1.63-.06-3.93s-1.59-1.84-5.3-2.73c-2-.46-3.1-.42-3.52.39-.28.52,2,1.13,4.57,1.6Zm8.24-2.09c1.32,1,1,1,1.09,2.71.11,1.47.58,2,1.33,2.21,1.3.36,1-.82.88-2.66s-.87-1.9-3.7-4c-1.48-1.12-2.45-1.59-3-1.21s1.38,1.61,3.34,3ZM82,23.54c1.55.72,1.19.87,1.6,2.71.35,1.6,1,2.08,1.76,2.13,1.43.08.87-1.14.52-3.15s-1.23-1.88-4.59-3.55c-1.75-.87-2.85-1.15-3.36-.62-.34.36,1.75,1.42,4.06,2.49Zm10.66-.71c-.6-.44-1.18-.92-1.81-1.34a.71.71,0,0,0-.29,0c-.33.09,1.12,1.67,2.74,3.33,1.08,1.12.77,1.07.74,2.43a2.05,2.05,0,0,0,1,2.13c1.11.66.89-.38,1-1.83s-.61-1.74-3-4.24Zm-19,5c1.77.1,1.48.5,2.59,2.68,1,1.91,1.72,2.19,2.54,1.81,1.4-.67.38-2-.75-4.38s-2-1.78-5.81-2.14c-2-.19-3.2,0-3.48,1C68.59,27.45,71,27.75,73.68,27.84ZM70,32.26c1.75-.44,1.57.11,3.19,2.32,1.41,2,2.21,2,2.94,1.34,1.21-1.23-.09-2.4-1.78-4.92s-2.31-1.48-6.2-.7c-2,.42-3.1,1.06-3.14,2.3C64.89,33.4,67.34,32.93,70,32.26Zm11.7,49.06c.72-1.38,1-1,3.63-.88,2.15.09,2.67-.36,2.57-1.15-.17-1.38-1.73-1.18-4.57-1.45s-2.56.69-4.36,3.73c-1,1.6-1.11,2.69-.11,3.33C79.44,85.3,80.62,83.41,81.65,81.32Zm.81-4.91c2.2,0,2.69-.43,2.54-1.25-.27-1.41-1.85-1.19-4.76-1.4s-2.56.77-4.17,3.94c-.86,1.68-1,2.81.12,3.45.67.4,1.69-1.58,2.64-3.77.63-1.46,1-1,3.63-1Zm-3-4.42c2.38.11,3-.37,2.76-1.22-.29-1.48-2-1.27-5.06-1.56s-2.68.71-4.39,3.86c-.91,1.66-1,2.8,0,3.5.68.44,1.78-1.54,2.81-3.72C76.27,71.4,76.63,71.83,79.44,72Zm-3-4.52c2.41.22,3-.24,2.83-1.12-.26-1.51-2-1.37-5.09-1.8s-2.74.63-4.55,3.77c-1,1.66-1.11,2.81,0,3.58.67.48,1.83-1.49,2.94-3.68.63-1.48,1-1,3.83-.77Zm-3.13-4.63c2.46.64,3.1.25,3-.71-.09-1.67-1.89-1.81-5.05-2.8s-2.88.2-5.11,3.25c-1.17,1.6-1.44,2.81-.43,3.81.65.64,2.06-1.28,3.43-3.42C70.15,61.53,70.46,62.09,73.36,62.84Zm10.82,40.87c-1.72.87-2.55,1.53-2.17,2,.24.27,2.23-.78,4.18-1.88,1.23-.7,1.19-.44,2.66-.15,1.11.23,1.59,0,2-.35.56-.69-.3-.75-1.7-1.2-1.61-.49-1.94.08-4.92,1.6ZM19.23,83.65c1.21,2,2.56,4.12,2.85,3.94.48-.25,0-1.37-1.22-3.12-2-2.85-2-3.53-3.29-3.69a5,5,0,0,0-1.29-.12c.18.47.34,1,.52,1.43a3.49,3.49,0,0,0,.53.22C18.46,82.7,18.5,82.45,19.23,83.65Zm-.36,2.84a50.14,50.14,0,0,0,3.56,5.65,12.94,12.94,0,0,0-1.37-2.4A35.53,35.53,0,0,0,18.87,86.49Zm.09-13c-1.79.21-2.76,0-2.69,1.3,0,.74.42,1.2,1.74,1.22,1.69,0,1.85-.37,2.53,1.09,1,2.22,2.12,4.28,2.53,3.93.67-.57.4-1.73-.53-3.51-1.72-3.24-1.62-4.25-3.58-4ZM17.3,79.17c1.25.23,1.34-.09,2,1.22,1.1,2.14,2.32,4.34,2.69,4.13.6-.34.19-1.55-.9-3.41-1.82-3.07-1.82-3.93-3.31-3.84-1.24,0-1.89-.16-1.76.8C16.11,78.64,16.38,79,17.3,79.17ZM23,65.32c-2.22.35-3.47.2-3.59,1.64-.07.84.35,1.29,2.07,1.11,2-.19,2.27-.64,2.86.77.87,2.1,1.78,4,2.26,3.55.72-.72.58-1.82-.18-3.42C25,66,25.21,65,23,65.33Zm-2.35,4.1c-2.12.22-3.32,0-3.36,1.43,0,.84.41,1.32,2.05,1.25,2-.07,2.14-.5,2.78,1,1,2.18,2,4.15,2.37,3.73.67-.68.46-1.81-.35-3.47C22.61,70.19,22.8,69.2,20.65,69.42Zm79.56-39.71a49.9,49.9,0,0,0-5.47-5.31L96,26c1,1.17.73,1.09.87,2.36a2.74,2.74,0,0,0,1,2.1c1,.75.66-.24.57-1.59a2.7,2.7,0,0,0-.31-1.15l.07.11a3.38,3.38,0,0,1,1,2.32,3.57,3.57,0,0,0,1.08,2.06c.84.8.51-.16.3-1.45A3.47,3.47,0,0,0,100.21,29.71Zm1.88,2.46a5.41,5.41,0,0,0-.19-.53c-.39-.48-.82-1-1.22-1.42.12.29.18.54.38,1.13a5.67,5.67,0,0,0,1.08,2.08c.7.83.31-.09,0-1.29Zm-21,76.28c-1.58.73-2.39,1.22-2.27,1.49s2-.7,3.93-1.63a3.21,3.21,0,0,1,2.24-.43c.69-.34,1.39-.65,2.06-1a10.06,10.06,0,0,1-1.25-.06C84.43,106.7,84,107.1,81.1,108.45ZM67,56.83c1-1.37,1.31-.75,4.14.43,2.4,1,3.08.67,3.12-.34.07-1.74-1.71-2.14-4.79-3.58s-3-.19-5.43,2.67c-1.32,1.5-1.72,2.73-.8,3.93C63.77,60.67,65.36,58.88,67,56.83ZM25.17,60.49c-2.36,1-3.71,1.15-3.73,2.78,0,.93.49,1.31,2.32.66,2.17-.75,2.38-1.3,3.12.08,1.11,2.09,2.24,3.93,2.7,3.31.73-1,.49-2.17-.46-3.72-1.78-2.93-1.59-4.09-4-3.11Zm6-14.74c-2.6-1.36-2.76-2.26-4.79-.55s-3.31,2.39-2.87,3.56c.25.68.84.74,2.47-.5,1.9-1.46,2-2,3.08-1.26,1.69,1,3.33,1.86,3.6,1.22.44-1.06-.14-1.79-1.5-2.51Zm-.52-17.38c.5-.56.11-.71-.94-.61a8.93,8.93,0,0,0-2.41.28c-.65.66-1.25,1.36-1.85,2.05,1.4-1,1.58-1.15,2.35-1.18,1.26-.11,2.51-.18,2.84-.58Zm.36-2c.49-.46.15-.48-.83-.22-.5.14-.85.22-1.16.3-.33.3-.67.59-1,.9l.33-.08A9.11,9.11,0,0,0,31,26.29ZM17.94,83.7l-.51-.19c.26.56.53,1.12.81,1.67.6.27.76.33,1.35,1.31,1.2,2,2.52,4.08,2.78,4s-.11-1.2-1.26-2.95C19.24,84.77,19.13,84.14,17.94,83.7ZM26.27,55c-2.25,1.61-3.6,2.11-3.39,3.82.12,1,.67,1.27,2.44.14,2.08-1.34,2.22-2,3.16-.68,1.41,2,2.82,3.59,3.2,2.81.61-1.21.2-2.39-1-3.79C28.51,54.62,28.51,53.37,26.27,55Zm-.35-13.47c-2,1.89-3.18,2.73-2.68,3.71.3.56.89.52,2.44-.89,1.85-1.65,1.85-2.09,3-1.68,1.73.63,3.4,1.1,3.64.47.39-1-.23-1.55-1.62-2C28.06,40.4,27.85,39.61,25.92,41.51Zm-.56-.61c1.68-1.69,1.7-2.06,2.79-1.88,1.65.29,3.24.45,3.45-.12.34-.9-.26-1.3-1.58-1.45-2.52-.28-2.74-.92-4.52,1s-2.94,2.8-2.41,3.57C23.37,42.49,23.93,42.33,25.36,40.9Zm5.45-16-.22.08c-.28.24-.54.5-.81.73a9.47,9.47,0,0,0,1.83-.84c.47-.41.14-.35-.81,0Zm-6,7.57c1.68-1.31,1.76-1.55,2.62-1.64,1.31-.13,2.59-.32,2.86-.7.44-.6,0-.73-1-.57-2,.29-2.08,0-3.87,1.41-.85.69-1.52,1.2-2,1.6l-.63.84v.13C22.9,33.75,23.38,33.58,24.8,32.47Zm6.38,18.27c-2.46-2-2.54-3.12-4.72-1.14s-3.52,2.72-3.18,4.27c.2.87.79,1,2.51-.42,2-1.69,2.13-2.29,3.19-1.32,1.59,1.45,3.14,2.67,3.48,1.88C33,52.77,32.45,51.77,31.18,50.74Zm-6.51-16C26.22,33.3,26.25,33,27.22,33c1.46,0,2.87,0,3.07-.49.34-.69-.18-.91-1.36-.87-2.24.08-2.41-.37-4.05,1.22s-2.7,2.39-2.27,2.89C22.86,36.07,23.35,35.92,24.67,34.72Z" style="fill:url(#radial-gradient-2)"/><circle cx="62.92" cy="63.14" r="49.65" style="fill:none"/><g style="mask:url(#mask)"><path d="M63.38,17.65c-22.1,0-40,15.73-40,35.13v0a8.67,8.67,0,0,0,4.49,7.3,69.48,69.48,0,0,0,35.53,9.55,69.49,69.49,0,0,0,35.54-9.55,8.67,8.67,0,0,0,4.49-7.3v0C103.41,33.38,85.49,17.65,63.38,17.65Z" style="fill:url(#linear-gradient)"/></g><path d="M112.43,62.5a49.58,49.58,0,0,1-.44,6.61q-.06.52-.15,1a49.28,49.28,0,0,1-7.46,19.52l-.65,1a50.25,50.25,0,0,1-17,15.47h0c-.48.27-1,.53-1.46.79a49.71,49.71,0,0,1-22.66,5.43c-.69,0-1.36,0-2,0a46.08,46.08,0,0,1-5-.45h0A49.54,49.54,0,0,1,30.3,100.45c-.53-.44-1-.89-1.55-1.37a49.11,49.11,0,0,1-5.89-6.5c-.27-.35-.53-.7-.77-1.06a49.22,49.22,0,0,1-6.33-11.93,48,48,0,0,0,10,2.51h0a44.1,44.1,0,0,0,5,.46c.68,0,1.35,0,2,0A49.67,49.67,0,0,0,55.5,77.18L57,76.39h0A50.25,50.25,0,0,0,74,60.92c.22-.32.44-.65.65-1A49.37,49.37,0,0,0,82.1,40.42c.06-.35.11-.69.15-1a50,50,0,0,0-2.57-23.71A49.86,49.86,0,0,1,112.43,62.5Z" style="fill:#878787;opacity:0.2;mix-blend-mode:multiply"/><path d="M112.43,62.5a49.58,49.58,0,0,1-.44,6.61q-.06.52-.15,1a49.28,49.28,0,0,1-7.46,19.52l-.65,1a50.25,50.25,0,0,1-17,15.47h0c-.48.27-1,.53-1.46.79a49.71,49.71,0,0,1-22.66,5.43c-.69,0-1.36,0-2,0a46.08,46.08,0,0,1-5-.45h0A49.54,49.54,0,0,1,30.3,100.45c-.53-.44-1-.89-1.55-1.37a48.71,48.71,0,0,1-5.87-6.47,49.53,49.53,0,0,0,23,9.62h0a43.92,43.92,0,0,0,5,.46c.68,0,1.36,0,2,0a49.83,49.83,0,0,0,22.66-5.42l1.47-.79h0A50.25,50.25,0,0,0,94.12,81l.65-1a49.28,49.28,0,0,0,7.46-19.52q.09-.52.15-1a49.8,49.8,0,0,0-9.69-36.71A49.73,49.73,0,0,1,112.43,62.5Z" style="fill:#878787;opacity:0.2;mix-blend-mode:multiply"/></g></g></g></svg>
