<svg class="S" xmlns="http://www.w3.org/2000/svg" id="design" x="0" y="0" version="1.1" viewBox="0 0 126 126" xml:space="preserve"><defs/><style>.st0{fill:#78001b}.st1{fill:#de0033}.st3{opacity:.16;enable-background:new}.st5{fill:red}</style><path d="M95.5 69.8c0-2.2.4-4.4 1.3-6.5.6-1.4.6-2.9 0-4.3-.4-1.2-1.5-2.1-2.8-2.2H31.9c-1.3.1-2.4 1-2.8 2.2-.6 1.4-.6 2.9 0 4.3 1.7 4.1 1.7 8.8 0 12.9-.6 1.4-.6 2.9 0 4.3.4 1.2 1.5 2.1 2.8 2.2H94c1.3-.1 2.4-1 2.8-2.2.6-1.4.6-2.9 0-4.3-.8-2-1.3-4.2-1.3-6.4z" class="st0"/><path d="M95.5 91.9c0-1.7.4-3.4 1.3-4.8.9-1.5.3-3.5-1.2-4.4-.5-.3-1-.4-1.6-.4H31.9c-1.8 0-3.2 1.5-3.2 3.3 0 .6.2 1.1.4 1.6 1.7 3 1.7 6.7 0 9.7-.6 1-.6 2.2 0 3.2s1.6 1.6 2.8 1.6H94c1.1 0 2.2-.6 2.8-1.6.6-1 .6-2.2 0-3.2-.8-1.6-1.3-3.3-1.3-5zM92.1 23.3C81 7.2 59 3.2 42.9 14.3c-3.5 2.4-6.6 5.5-9 9-.7 1-.8 2.2-.3 3.3.6 1.1 1.7 1.8 3 1.8h53c1.2 0 2.3-.7 2.9-1.7.4-1.1.3-2.4-.4-3.4z" class="st1"/><path d="M96.8 87.1c-1.7 3-1.7 6.7 0 9.7.6 1 .6 2.2 0 3.2s-1.6 1.6-2.8 1.6H63V82.2h31.1c1.8 0 3.2 1.5 3.2 3.3 0 .5-.2 1.1-.5 1.6z" opacity=".3"/><path d="M92.4 26.6c-.6 1.1-1.7 1.7-2.9 1.7H63V8c11.6 0 22.5 5.7 29.1 15.3.7 1 .8 2.3.3 3.3z" class="st3"/><path fill="#fd003a" d="M82.3 20.9H43.7c-16 0-29 12.9-29 28.9V89c0 16 12.9 29 28.9 29h.1c5.3 0 9.7-4.3 9.7-9.6V102c0-5.3-4.3-9.7-9.6-9.7h-6.4c-1.8 0-3.2-1.4-3.2-3.2V69.2c0-5.3 4.3-9.6 9.6-9.7h38.7c5.3 0 9.7 4.3 9.7 9.6V89c0 1.8-1.4 3.2-3.2 3.2h-6.5c-5.3 0-9.7 4.3-9.7 9.6v6.4c0 5.3 4.3 9.7 9.6 9.7 16 0 29-12.9 29-28.9V49.9c-.1-16-13-29-29.1-29 .1 0 .1 0 0 0z"/><path d="M111.3 49.9V89c0 16-12.9 29-28.9 29h-.1c-5.3 0-9.7-4.3-9.7-9.6V102c0-5.3 4.3-9.7 9.6-9.7h6.4c1.8 0 3.2-1.4 3.2-3.2V69.2c0-5.3-4.3-9.6-9.6-9.7H63V20.9h19.3c16 0 29 12.9 29 29z" class="st3"/><path d="M69.4 33.8H56.6c-5.3.3-9.4 4.8-9.2 10.1.2 5 4.2 9 9.2 9.2h12.9c5.3 0 9.7-4.3 9.7-9.7s-4.4-9.6-9.8-9.6z" class="st0"/><path d="M69.4 53.1H63V33.8h6.4c5.3 0 9.7 4.3 9.7 9.7s-4.3 9.6-9.7 9.6z" class="st3"/><g><path d="M27 63.6L0 79.2v31.2L27 126l27-15.6V79.2L27 63.6z" class="st5"/><path fill="#fcdd00" d="M27 122.4L3.1 108.6V81L27 67.2 50.9 81v27.6L27 122.4z"/><path d="M39 101.8l-12 6.9-12-6.9V87.9L27 81l12 6.9-5.2 3-6-3.5-7.6 4.4v6.9l6 3.5 15-8.6 3.8-2.2v-6.9L27 74 9 84.4v20.8l18 10.4 18-10.4v-6.9l-6 3.5z" class="st5"/><path d="M27 67.2v55.2l23.9-13.8V81L27 67.2z" class="st3"/></g></svg>
