<svg class="S" xmlns="http://www.w3.org/2000/svg" id="Layer_1" x="0" y="0" version="1.1" viewBox="0 0 126 126" xml:space="preserve"><defs/><style>.st0{fill:#0d3549}.st1{opacity:.3;enable-background:new}.st7{fill:#570004}.st10{fill:red}</style><g id="Helmet"><path d="M89.5 105.8s3.6-3.5 6.2-6.5c1.5 1.8 2.8 3.8 3.7 6 0 0-5.8 7-9.9 9v-8.5z" class="st0"/><path d="M95.7 99.3c-.9 1-1.8 2-2.7 2.9.5 2.9 2.1 5 4 5 .3 0 .6-.1.9-.2 1-1.1 1.6-1.8 1.6-1.8-1-2.1-2.2-4.1-3.8-5.9z" class="st1"/><path d="M36.4 105.8s-3.6-3.5-6.2-6.5c-1.5 1.8-2.8 3.8-3.7 6 0 0 5.8 7 9.9 9v-8.5z" class="st0"/><path d="M30.2 99.3c.9 1 1.8 2 2.7 2.9-.5 2.9-2.1 5-4 5-.3 0-.6-.1-.9-.2-1-1.1-1.6-1.8-1.6-1.8 1-2.1 2.3-4.1 3.8-5.9z" class="st1"/><path fill="#13172c" d="M36.5 104l-.6 11c9.1 6.8 21.4 8 27.1 8 6.7 0 18.3-1.2 27.3-8.2l-.7-10.9c-5.4 4-15.1 9.5-26.5 9.5S42 107.9 36.5 104z"/><radialGradient id="SVGID_1_" cx="62.43" cy="52.42" r="46.19" gradientTransform="matrix(1 0 0 -1.09 0 152.53)" gradientUnits="userSpaceOnUse"><stop offset="0" stop-color="#470201"/><stop offset="1" stop-color="#120000"/></radialGradient><path fill="url(#SVGID_1_)" d="M111.8 57.2L63 46.4h-.2L14 57.2s.9 30.4 7.3 42.8c0 0 16-9.2 41.6-9.2s41.6 9.2 41.6 9.2c6.3-12.4 7.3-42.8 7.3-42.8z"/><path d="M55.1 112.5l-.8 9.8c2.9.5 5.8.7 8.8.8 3.2 0 6.3-.3 9.4-.8l-1.6-9.7c-5.2 1.1-10.6 1.1-15.8-.1z" class="st0"/><radialGradient id="SVGID_2_" cx="63.19" cy="116.35" r="50.1" gradientTransform="matrix(1 0 0 -1.09 0 158.23)" gradientUnits="userSpaceOnUse"><stop offset="0" stop-color="#d61d22"/><stop offset=".68" stop-color="#a00201"/><stop offset="1" stop-color="#650201"/></radialGradient><path fill="url(#SVGID_2_)" d="M63 3C35.9 3 14 25.9 14 54.2c0 14.7 2.6 48.3 12.6 51.2-4.4-20.8-1.9-40.4-1.2-47.6-.9-14 27.2-18.4 37.6-18.4 10.6 0 39.5 4.6 37.5 19.2.8 7.7 3.1 26.6-1.2 46.8h.1c9.9-2.8 12.5-36.5 12.5-51.2C112 25.9 90.1 3 63 3z"/><path fill="#fff" stroke="#231f20" stroke-miterlimit="10" stroke-width=".25" d="M45 6.5v35.2c5.9-1.5 11.9-2.3 18-2.5 6 .1 12 1 17.9 2.5V6.5C69.4 1.8 56.5 1.8 45 6.5z"/><path fill="#62628c" d="M103.4 69.6c0-22.4-8.5-36.6-40.5-37.5C31 33 22.5 47.2 22.5 69.6c0 23.5 4 35.7 4 35.7s-1-20.1-1-36.1C25.5 43 52 39.5 63 39.3c10.9.2 37.5 3.8 37.5 29.9 0 16-1 36.1-1 36.1s3.9-12.2 3.9-35.7z"/><path d="M100.5 69.2c0 15.8-1 35.3-1 35.3l.1-.2c.1-4.4.9-21.3.9-35.1z" class="st7"/><path d="M63 32.1c31.8.9 40.4 15 40.5 37.3v-.6c0-22.4-8.5-36.6-40.5-37.5-32 .9-40.5 15.1-40.5 37.5v.6c.1-22.2 8.6-36.3 40.5-37.3z" class="st7"/><path d="M25.5 69.3c0 13.8.8 30.6 1 35v.2c0-.1-1-19.5-1-35.2z" class="st7"/><path d="M89.5 103.9c-5.4 4-15.1 9.5-26.5 9.5s-21-5.5-26.5-9.4l-.1 1.3c5.4 3.8 15 9 26.3 9.1h.3c11.4-.1 21.2-5.4 26.6-9.2l-.1-1.3z" class="st0"/><path fill="#6b0000" d="M100.8 82.2c-.1-.8-.2-1.6-.2-2.4-.3-3.6-.5-7.4-.5-10.8v-5.8c0-1.2.1-2.4.1-3.4-1 .4-1.9.7-2.9 1 .5-1.4.2-3 .2-3 0-.2.1-.4.1-.6 0-.5-.1-1.1-.2-1.6-.6-2-2-3.8-3.8-4.9-1.7-1.2-3.6-2.1-5.5-2.7-1.3-.4-2.6-.8-3.9-1.1-4.1-1-8.3-1.5-12.5-1.7-2.5-.1-4.9-.2-6.2-.1C63.8 45 63 45 63 45s-.8 0-2.2-.1c-1.4-.1-3.7 0-6.2.1-4.2.2-8.4.8-12.5 1.7-1.3.3-2.6.7-3.9 1.1-2 .6-3.8 1.6-5.5 2.7-1.8 1.1-3.1 2.9-3.8 4.9-.1.5-.2 1.1-.2 1.6v.6s-.3 1.6.2 3c-1-.3-2-.6-3-1 0 1 .1 2.2.1 3.4v5.8c0 3.4-.2 7.2-.5 10.8-.1.8-.2 1.6-.2 2.4-.8 7.8-.3 15.6 1.7 23.1.8.2 1.7.1 2.5-.3l.9-.9c.2-.3.4-.6.5-.9 2-4 3.7-13.2 4.2-22.3.2-3.6.3-7.2.2-10.4-.1-1.9-.2-3.7-.4-5.4-.1-.7-.2-1.4-.4-2.1.7-.1 1.3-.2 1.9-.5 3.5-1 3.4-2.7 5.9-4.6l.2-.1c1.6-1.1 5.3-2.2 9.3-2.9 3.8-.7 7.6-1.1 11.4-1.1 3.8 0 7.6.4 11.3 1.1 4.1.7 7.7 1.8 9.3 2.9l.2.1c2.5 1.9 2.3 3.6 5.9 4.6.6.2 1.3.4 1.9.5-.1.7-.3 1.4-.4 2.1-.2 1.6-.4 3.4-.4 5.4-.1 3.5-.1 6.9.2 10.4.6 9.1 2.2 18.3 4.2 22.3.2.3.3.6.5.9.2.4.5.7.9.9.8.4 1.6.5 2.5.3 1.8-7.3 2.3-15.2 1.5-22.9z"/><path fill="#40405c" d="M26.1 103.8c.1.5.3 1 .5 1.5.1 0 .8.3.8-.9-.3-7.3-.7-19.2-.7-29.4 0-9.8 3.6-16.4 8.6-20.9L38 52c8.3-5.7 19-6.9 25-7 7.4.1 22.2 1.9 30.4 12 3.5 4.3 5.8 10.1 5.8 17.9 0 10.2-.4 22.2-.7 29.4 0 1.2.7 1 .8.9.2-.5.4-1 .5-1.5.4-2.5.9-5.6 1.3-9.3.7-6.4 1-12.8 1-19.2v-1.8c0-4.5-.6-9-1.7-13.4-1-3.8-2.8-7.4-5.2-10.5-.7-.8-1.4-1.6-2.2-2.3-6-5.7-15.5-9.1-29.9-9.5H63c-4.4.1-8.7.6-13 1.4-5.2.9-10.1 3-14.5 6-.9.6-1.7 1.4-2.5 2.1-3.6 3.5-6.1 7.8-7.4 12.7-1.2 4.4-1.8 8.9-1.8 13.4v2c0 6.4.3 12.7.9 19.1.5 3.8.9 6.9 1.4 9.4z"/></g><path d="M27 63.6L0 79.2v31.2L27 126l27-15.6V79.2L27 63.6z" class="st10"/><path fill="#fcdd00" d="M27 122.4L3.1 108.6V81L27 67.2 50.9 81v27.6L27 122.4z"/><path d="M39 101.8l-12 6.9-12-6.9V87.9L27 81l12 6.9-5.2 3-6-3.5-7.6 4.4v6.9l6 3.5 15-8.6 3.8-2.2v-6.9L27 74 9 84.4v20.8l18 10.4 18-10.4v-6.9l-6 3.5z" class="st10"/><path d="M27 67.2v55.2l23.9-13.8V81L27 67.2z" opacity=".16"/></svg>
