<svg class="S" xmlns="http://www.w3.org/2000/svg" id="Layer_1" x="0" y="0" version="1.1" viewBox="0 0 126 126" xml:space="preserve"><defs/><style>.st3{fill:red}</style><g id="Layer_2_5_"><radialGradient id="SVGID_1_" cx="61.931" cy="533.344" r="77.22" gradientTransform="translate(-5.297 -472.23) scale(.9842)" gradientUnits="userSpaceOnUse"><stop offset="0" stop-color="#fff"/><stop offset=".43" stop-color="#d6d6e0"/><stop offset=".5" stop-color="#c8c8d1"/><stop offset=".62" stop-color="#a3a3ab"/><stop offset=".65" stop-color="#9a9aa2"/><stop offset=".89" stop-color="#d1d1d1"/></radialGradient><circle cx="62.9" cy="63" r="50" fill="url(#SVGID_1_)"/><path fill="#5c5c5c" d="M92.9 68.6c-15.6 5.9-32.2 6.8-37 6.9.5-9.9 1.5-18.6 1.8-21 3.1-1.4 17-7.6 27-10.5 6.7-2 13.2-2.7 18-2.3 3.2.5 6 2.4 7.6 5.3-.5-1.5-1.1-3-1.7-4.3-1.5-1.6-3.5-2.7-5.7-3.1-1-2.2-4.7-8.9-13.7-16.5-6.1-5.5-13.8-8.9-21.9-9.8-1.5-.2-2.9-.3-4.4-.3h-.6c9.3.8 18.2 4.6 25.2 10.8 5.1 4.3 9.5 9.4 12.8 15.2-5.3-.4-11.5 1-16.2 2.4-1.2.4-2.5.8-3.8 1.2-1.7-2.2-8.2-9.8-21-18.2-8.8-5.8-14.7-6.8-18.3-6.4-.6.3-1.3.6-2 1 2.6-.3 8.9.9 18.8 7.5C68.9 34 75.3 40.9 77.6 43.6c-9 3.2-18.6 7.5-21 8.6-9.6-5.3-18.9-11.3-27.8-17.8-1.5-1.1-3-2.1-4.6-3-.4.4-.7.9-1 1.4.3.3.8.8 1.6 1.5-2.1 3.1-9.1 15.1-8.8 33.1.1 6.9 2.1 17.3 5.7 23.7.7 1.1 1.6 2.2 2.4 3.2l-1-2.7c-11.2-29.4.6-51.5 3.3-56 .4.3.8.7 1.3 1 2.2 1.7 5 3.7 8.3 5.9-1.5 3.4-6.1 15.9-6.5 34.9-.4 18.2 4.9 26 10.8 30.1 1.4.7 2.8 1.4 4.3 2-6.2-3.5-12.9-12.1-12.5-32 .3-17.6 4.6-29.6 6.1-33.5 5 3.3 10.8 6.9 17.1 10.3-1.4 12.4-2.1 24.9-2 37.4.1 7 .6 19.1 8.2 21.2.5 0 1.1.1 1.6.1h1.8c-3.9-.2-6.7-4-8-11.3 1.8.2 4.8.4 8.7.4 11.8 0 30.2-2.4 40.1-12.8.6-.9 1.2-1.9 1.7-2.8-17.1 14.9-44.5 13.6-50.8 13-.3-2.3-.5-4.8-.6-7.7-.2-4.4-.1-9.1.1-13.6 4.8-.1 21.9-.9 38-7.1 14.7-5.6 17.6-6.1 18.9-5.6 0-.5.1-1 .1-1.6-2.4-.8-6.8-.4-20.2 4.7z"/><circle cx="62.9" cy="63.2" r="49.7" fill="none"/></g><path d="M27 63.7L0 79.2v31.2L27 126l27-15.6V79.2L27 63.7z" class="st3"/><path fill="#fcdd00" d="M27 122.4L3.1 108.6V81L27 67.2 50.9 81v27.6L27 122.4z"/><path d="M39 101.8l-12 6.9-12-6.9V87.9L27 81l12 6.9-5.1 3-6-3.5-7.6 4.4v6.9l6 3.5 15-8.6 3.8-2.2v-6.9L27 74 9 84.5v20.7l18 10.4 18-10.4v-6.9l-6 3.5z" class="st3"/><path d="M27 67.2v55.2l23.9-13.8V81L27 67.2z" opacity=".16"/></svg>
