<svg class="S" xmlns="http://www.w3.org/2000/svg" xmlns:xlink="http://www.w3.org/1999/xlink" viewBox="0 0 126 126"><defs><radialGradient id="radial-gradient" cx="139.03" cy="10.66" r="77.64" gradientTransform="matrix(0.91, -0.09, 0.01, -0.97, -72.11, 72.49)" gradientUnits="userSpaceOnUse"><stop offset="0.03" stop-color="#fff"/><stop offset="0.18" stop-color="#dfe8ec"/><stop offset="0.34" stop-color="#baccd6"/><stop offset="0.51" stop-color="#9caeb8"/><stop offset="0.61" stop-color="#8b9aa4"/><stop offset="0.78" stop-color="#69727e"/><stop offset="0.95" stop-color="#8a96a3"/><stop offset="1" stop-color="#95a3b0"/></radialGradient><radialGradient id="radial-gradient-2" cx="95.2" cy="66.13" r="71.38" gradientTransform="matrix(1.01, 0, 0, -1, -40.76, 115)" xlink:href="#radial-gradient"/><radialGradient id="radial-gradient-3" cx="99.58" cy="68.16" r="71.33" gradientTransform="matrix(1, 0, 0, -1, -44.36, 116.75)" xlink:href="#radial-gradient"/><radialGradient id="radial-gradient-4" cx="111.74" cy="62.57" r="72.45" gradientTransform="matrix(1, 0.02, 0.02, -0.98, -57.86, 107.82)" xlink:href="#radial-gradient"/><radialGradient id="radial-gradient-5" cx="97.41" cy="59.07" r="71.79" gradientTransform="matrix(0.98, 0.01, -0.01, -0.98, -40.06, 105.27)" xlink:href="#radial-gradient"/><radialGradient id="radial-gradient-6" cx="96.2" cy="55.19" r="72.31" gradientTransform="matrix(0.99, 0.01, -0.01, -0.97, -39.58, 100.88)" xlink:href="#radial-gradient"/><radialGradient id="radial-gradient-7" cx="87.48" cy="76.8" r="69.82" gradientTransform="matrix(1.03, 0, 0, -1.02, -34.93, 127.14)" xlink:href="#radial-gradient"/><radialGradient id="radial-gradient-8" cx="99.21" cy="57.94" r="72.15" gradientTransform="matrix(0.98, 0.01, -0.01, -0.98, -41.45, 104.46)" xlink:href="#radial-gradient"/><radialGradient id="radial-gradient-9" cx="998.05" cy="392.77" r="72.15" gradientTransform="matrix(0.3, 0.92, 0.92, -0.31, -588.99, -749.86)" gradientUnits="userSpaceOnUse"><stop offset="0.78" stop-color="#69727e"/><stop offset="0.95" stop-color="#8a96a3"/><stop offset="1" stop-color="#95a3b0"/></radialGradient><radialGradient id="radial-gradient-10" cx="99.34" cy="56.03" r="72.91" gradientTransform="matrix(0.99, 0, 0, -0.97, -43.81, 102.5)" xlink:href="#radial-gradient"/><radialGradient id="radial-gradient-11" cx="102.08" cy="36.66" r="74.73" gradientTransform="matrix(1.01, -0.01, 0.01, -0.95, -48.36, 84.29)" xlink:href="#radial-gradient"/><radialGradient id="radial-gradient-12" cx="116.14" cy="34.53" r="75.61" gradientTransform="matrix(0.97, -0.01, 0.01, -0.95, -57.79, 82.76)" xlink:href="#radial-gradient"/><radialGradient id="radial-gradient-13" cx="85.23" cy="91.51" r="68.1" gradientTransform="matrix(1.03, 0, 0, -1.04, -33.35, 143.5)" xlink:href="#radial-gradient"/><radialGradient id="radial-gradient-14" cx="90.26" cy="95.84" r="67.79" gradientTransform="matrix(1.02, 0, 0, -1.05, -37.48, 149.09)" xlink:href="#radial-gradient"/><radialGradient id="radial-gradient-15" cx="96.51" cy="77.92" r="70.33" gradientTransform="matrix(1, 0, 0, -1.02, -41.33, 128.46)" xlink:href="#radial-gradient"/><radialGradient id="radial-gradient-16" cx="58.2" cy="95.15" r="67.11" gradientTransform="matrix(1.07, 0.03, -0.03, -1.03, -4.56, 144.73)" xlink:href="#radial-gradient"/><radialGradient id="radial-gradient-17" cx="70.12" cy="91.02" r="68.42" gradientTransform="matrix(0.99, 0.06, -0.06, -1, -8.5, 135.03)" xlink:href="#radial-gradient"/><filter id="luminosity-noclip" x="23.36" y="-8255" width="80.05" height="32766" filterUnits="userSpaceOnUse" color-interpolation-filters="sRGB"><feFlood flood-color="#fff" result="bg"/><feBlend in="SourceGraphic" in2="bg"/></filter><mask id="mask" x="23.36" y="-8255" width="80.05" height="32766" maskUnits="userSpaceOnUse"><g style="filter:url(#luminosity-noclip)"/></mask><linearGradient id="linear-gradient" x1="63.38" y1="-4.04" x2="63.38" y2="76.86" gradientUnits="userSpaceOnUse"><stop offset="0" stop-color="#fff" stop-opacity="0.4"/><stop offset="0.01" stop-color="#fff" stop-opacity="0.39"/><stop offset="0.32" stop-color="#fff" stop-opacity="0.22"/><stop offset="0.6" stop-color="#fff" stop-opacity="0.1"/><stop offset="0.84" stop-color="#fff" stop-opacity="0.03"/><stop offset="1" stop-color="#fff" stop-opacity="0"/></linearGradient></defs><g style="isolation:isolate"><g id="design"><g id="Layer_4" data-name="Layer 4"><path d="M109.12,67.08c.81.09,2.06,1.73,2.49,2.35,2.38-4.29.87-19.94-2.53-23.49-.26.79-1.09,3.21-1.78,3.51C110.18,56.48,110.07,63.62,109.12,67.08Z" style="fill:url(#radial-gradient)"/><path d="M111.76,71.09a2.52,2.52,0,0,0-.22-.3c2.5-4.61.73-20.85-3-25.77l.06-.19c.37-1.47-1-4.46-3.16-7.71a56,56,0,0,0-5.87-7.6c-5-5.46-11.68-9.95-13.36-9.43-4.48-5.43-24.68-8-26.42-5.75.36.26.29.22.08.08-2.26-1.54-10.44.38-16.91,3.21s-12.72,7.63-13.11,9.6C22.94,31,14.2,48.39,15.41,51.18a.9.9,0,0,0,.13.28c-2.1,1.67-2.79,10-2.13,17.11.71,7.55,3.53,15.38,5.2,15.66.33.24.69.42.18.13,1.46,10.22,18.05,23.2,20.87,22.09v-.12c1.05,2.29,7.7,4.43,14.56,5.87,7.38,1.59,15.93.45,16.94-.34a.91.91,0,0,0,.21-.18c6.85,1.39,24.46-8.9,24.38-11.75H95.6A4.14,4.14,0,0,0,97.45,99c2.77-1.85,6.85-7.12,9.65-12.16C110.84,80.35,112.93,71,111.76,71.09Z" style="fill:#506573"/><path d="M21.22,49.43c.78,3.91,4.06,11.27,6.66,16,.5.92,17.13.3,17.31-.53.52-2.43,8-15.66,10.39-18.28,0,0-5.25-11.55-6.77-15.1-.26-.62-15.1.18-17.51,1.68C25.89,36.6,20.72,47,21.22,49.43Z" style="fill:url(#radial-gradient-2)"/><path d="M81.26,22.82c2.39,3.23,5.72,10.57,7.56,15.66.35,1-10.6,12.58-11.4,12.28-2.54-1-16.64-4.72-20-4.74,0,0-5.17-11.6-6.85-15.1-.29-.6,9.73-10.89,12.37-11.64C68.89,17.61,79.78,20.82,81.26,22.82Z" style="fill:url(#radial-gradient-3)"/><path d="M38.56,98.23c3.91.47,11.46-.4,16.82-1,.34,0,3.15-15.66,3.15-15.66-3.1-1.78-11.44-11.91-13.12-14.15,0,0-15.24,1.09-16.89.35-.62-.28-4.73,13.51-4.11,16.06C25.74,89.58,36.05,97.93,38.56,98.23Z" style="fill:url(#radial-gradient-4)"/><path d="M107.44,67.23A59.75,59.75,0,0,1,95.58,79c-.79.6-15.06-6.61-14.89-7.4.5-2.29-.66-16-1.71-19.21,0,0,4.3-2.82,11-11.64.78-1,13.58,6,15.06,8.19C108.35,53.87,108.81,65.29,107.44,67.23Z" style="fill:url(#radial-gradient-5)"/><path d="M73.41,105.4c-3.58-.9-10.77-5.28-14.95-8-.8-.54,2.15-15.74,2.15-15.74,3.49-.87,15.13-5.66,18.14-7.51a103.81,103.81,0,0,0,14.68,7.08c.66.26-2.56,14.79-3.53,16.3C87.65,101,74.62,105.71,73.41,105.4Z" style="fill:url(#radial-gradient-6)"/><path d="M29.67,32.72c-.78-.77-.87-3.92-.62-4.89-6.83,3.65-15.57,21-14,23.17.73-.53,3.2-1.91,4.24-1.88C20.6,41.27,27.11,34.19,29.67,32.72Z" style="fill:url(#radial-gradient-7)"/><path d="M81.41,21.08c.44-1,3.47-2,3.91-1.9-4.13-5-22.78-7.52-24.36-5.45.65.49,3,2.55,2.93,3.27C71.13,16.15,79.44,19.21,81.41,21.08Z" style="fill:url(#radial-gradient-8)"/><path d="M108.51,67.85c1.06.12,2.93,2.69,3,3.12,3.48-5.5,0-24-2.43-24.86-.25.77-1.46,3.68-2.19,3.79C110,56.54,109.63,65.41,108.51,67.85Z" style="fill:url(#radial-gradient-9)"/><path d="M73.87,107.69c0,1.15-1.58,3.19-1.84,3.39,6.43,1.29,22.83-8,22.74-10.55-.55,0-3.92-.07-4.29-.69C87,103.88,74.56,107.87,73.87,107.69Z" style="fill:url(#radial-gradient-10)"/><path d="M23.14,86.15a8.54,8.54,0,0,1-4.24-.59c1.29,9,16.87,20.43,19.57,19.41-.32-.81-1.31-4.53-.88-5.23C29.88,96.62,23.88,89,23.14,86.15Z" style="fill:url(#radial-gradient-11)"/><path d="M57.21,48.68C55.72,49.24,46.86,64.8,47,65.87S58.47,79.33,60,79.47s17.26-7.11,18-7.7S77.35,53.52,76.72,53,58.7,48.14,57.21,48.68Z" style="fill:url(#radial-gradient-12)"/><path d="M31,31.65c-.68-.61-.92-4-.7-4.69-.31-1.67,6-6.68,12.72-9.62,6.29-2.74,14.24-4.58,16.44-3.07.45.31,3.6,3.16,2.94,3.46-5.61,2.73-10.77,9.39-13.44,12.13C46.09,29.67,33.4,30.16,31,31.65Z" style="fill:url(#radial-gradient-13)"/><path d="M22.9,85c-.76.46-3.91-.42-4.48-.86-1.62-.23-4.35-7.94-5-15.37-.65-6.94,0-15.18,2-16.82.43-.33,4.17-2.53,4.24-1.75a117.47,117.47,0,0,0,6.85,17C25.5,69.84,22.22,82.2,22.9,85Z" style="fill:url(#radial-gradient-14)"/><path d="M72.17,107.06c.2.82-1.49,3.4-2,3.8-1,.75-9,1.89-15.94.4-6.49-1.38-12.83-3.41-13.7-5.7-.19-.46-1.55-5.61-.83-5.45A110.85,110.85,0,0,0,57,98.72C59.11,100.39,69.42,106.84,72.17,107.06Z" style="fill:url(#radial-gradient-15)"/><path d="M108.5,69.29c.89.06,2.39,1.95,3.08,2.87,1.15,0-.66,9.06-4.17,15.32-3.29,5.88-8.37,12-10.93,12.21-.52,0-4.82-.33-4.46-1A76.51,76.51,0,0,0,95.71,81.5C98,80,105.58,73.68,108.5,69.29Z" style="fill:url(#radial-gradient-16)"/><path d="M82.85,21.91c.27-.77,3-1.72,3.72-1.67,1.3-.66,8,4,13.05,9.54,4.75,5.15,9.35,12,8.91,14.38-.09.47-1.31,4-1.84,3.42C102.23,43,94.6,39.83,91.24,38,90.32,35.31,84.77,23.91,82.85,21.91Z" style="fill:url(#radial-gradient-17)"/><path d="M109.12,67.08c.81.09,2.06,1.73,2.49,2.35,2.38-4.29.87-19.94-2.53-23.49-.26.79-1.09,3.21-1.78,3.51C110.18,56.48,110.07,63.62,109.12,67.08Z" style="fill:url(#radial-gradient)"/><path d="M21.22,49.43c.78,3.91,4.06,11.27,6.66,16,.5.92,17.13.3,17.31-.53.52-2.43,8-15.66,10.39-18.28,0,0-5.25-11.55-6.77-15.1-.26-.62-15.1.18-17.51,1.68C25.89,36.6,20.72,47,21.22,49.43Z" style="fill:url(#radial-gradient-2)"/><path d="M81.26,22.82c2.39,3.23,5.72,10.57,7.56,15.66.35,1-10.6,12.58-11.4,12.28-2.54-1-16.64-4.72-20-4.74,0,0-5.17-11.6-6.85-15.1-.29-.6,9.73-10.89,12.37-11.64C68.89,17.61,79.78,20.82,81.26,22.82Z" style="fill:url(#radial-gradient-3)"/><path d="M38.56,98.23c3.91.47,11.46-.4,16.82-1,.34,0,3.15-15.66,3.15-15.66-3.1-1.78-11.44-11.91-13.12-14.15,0,0-15.24,1.09-16.89.35-.62-.28-4.73,13.51-4.11,16.06C25.74,89.58,36.05,97.93,38.56,98.23Z" style="fill:url(#radial-gradient-4)"/><path d="M107.44,67.23A59.75,59.75,0,0,1,95.58,79c-.79.6-15.06-6.61-14.89-7.4.5-2.29-.66-16-1.71-19.21,0,0,4.3-2.82,11-11.64.78-1,13.58,6,15.06,8.19C108.35,53.87,108.81,65.29,107.44,67.23Z" style="fill:url(#radial-gradient-5)"/><path d="M73.41,105.4c-3.58-.9-10.77-5.28-14.95-8-.8-.54,2.15-15.74,2.15-15.74,3.49-.87,15.13-5.66,18.14-7.51a103.81,103.81,0,0,0,14.68,7.08c.66.26-2.56,14.79-3.53,16.3C87.65,101,74.62,105.71,73.41,105.4Z" style="fill:url(#radial-gradient-6)"/><path d="M29.67,32.72c-.78-.77-.87-3.92-.62-4.89-6.83,3.65-15.57,21-14,23.17.73-.53,3.2-1.91,4.24-1.88C20.6,41.27,27.11,34.19,29.67,32.72Z" style="fill:url(#radial-gradient-7)"/><path d="M81.41,21.08c.44-1,3.47-2,3.91-1.9-4.13-5-22.78-7.52-24.36-5.45.65.49,3,2.55,2.93,3.27C71.13,16.15,79.44,19.21,81.41,21.08Z" style="fill:url(#radial-gradient-8)"/><path d="M108.51,67.85c1.06.12,2.93,2.69,3,3.12,3.48-5.5,0-24-2.43-24.86-.25.77-1.46,3.68-2.19,3.79C110,56.54,109.63,65.41,108.51,67.85Z" style="fill:url(#radial-gradient-9)"/><path d="M73.87,107.69c0,1.15-1.58,3.19-1.84,3.39,6.43,1.29,22.83-8,22.74-10.55-.55,0-3.92-.07-4.29-.69C87,103.88,74.56,107.87,73.87,107.69Z" style="fill:url(#radial-gradient-10)"/><path d="M23.14,86.15a8.54,8.54,0,0,1-4.24-.59c1.29,9,16.87,20.43,19.57,19.41-.32-.81-1.31-4.53-.88-5.23C29.88,96.62,23.88,89,23.14,86.15Z" style="fill:url(#radial-gradient-11)"/><path d="M57.21,48.68C55.72,49.24,46.86,64.8,47,65.87S58.47,79.33,60,79.47s17.26-7.11,18-7.7S77.35,53.52,76.72,53,58.7,48.14,57.21,48.68Z" style="fill:url(#radial-gradient-12)"/><path d="M31,31.65c-.68-.61-.92-4-.7-4.69-.31-1.67,6-6.68,12.72-9.62,6.29-2.74,14.24-4.58,16.44-3.07.45.31,3.6,3.16,2.94,3.46-5.61,2.73-10.77,9.39-13.44,12.13C46.09,29.67,33.4,30.16,31,31.65Z" style="fill:url(#radial-gradient-13)"/><path d="M22.9,85c-.76.46-3.91-.42-4.48-.86-1.62-.23-4.35-7.94-5-15.37-.65-6.94,0-15.18,2-16.82.43-.33,4.17-2.53,4.24-1.75a117.47,117.47,0,0,0,6.85,17C25.5,69.84,22.22,82.2,22.9,85Z" style="fill:url(#radial-gradient-14)"/><path d="M72.17,107.06c.2.82-1.49,3.4-2,3.8-1,.75-9,1.89-15.94.4-6.49-1.38-12.83-3.41-13.7-5.7-.19-.46-1.55-5.61-.83-5.45A110.85,110.85,0,0,0,57,98.72C59.11,100.39,69.42,106.84,72.17,107.06Z" style="fill:url(#radial-gradient-15)"/><path d="M108.5,69.29c.89.06,2.39,1.95,3.08,2.87,1.15,0-.66,9.06-4.17,15.32-3.29,5.88-8.37,12-10.93,12.21-.52,0-4.82-.33-4.46-1A76.51,76.51,0,0,0,95.71,81.5C98,80,105.58,73.68,108.5,69.29Z" style="fill:url(#radial-gradient-16)"/><path d="M82.85,21.91c.27-.77,3-1.72,3.72-1.67,1.3-.66,8,4,13.05,9.54,4.75,5.15,9.35,12,8.91,14.38-.09.47-1.31,4-1.84,3.42C102.23,43,94.6,39.83,91.24,38,90.32,35.31,84.77,23.91,82.85,21.91Z" style="fill:url(#radial-gradient-17)"/><path d="M111.76,71.09l-.15-.21c3.19-5.41.21-22.29-2.18-24.47l-.1-.12a9.87,9.87,0,0,0-.77-1.24l.06-.19c.37-1.47-1-4.46-3.16-7.71a55.38,55.38,0,0,0-5.87-7.6c-5-5.46-11.68-9.95-13.36-9.43a7,7,0,0,0-1.12-1.06c-4.46-4.9-22.62-7.31-24.18-5.26h0a2.05,2.05,0,0,0-1.14.56c.36.26.29.22.08.08A3.06,3.06,0,0,0,58.6,14c-2.94-.79-9.94,1-15.61,3.41-5.41,2.3-10.56,6-12.19,8.24a3.83,3.83,0,0,0-1,1.53,11.91,11.91,0,0,0-2,1.34C21.23,33.29,13.49,49,15,51l.25-.16a1,1,0,0,0,.08.28.7.7,0,0,0,.12.28,7.05,7.05,0,0,0-1.65,3.71,47.4,47.4,0,0,0-.56,13.71c.71,7.43,3.43,15.14,5,15.37a2.64,2.64,0,0,0,.44.23c.07.41.16.83.27,1.23l-.2-.08c.66,4.59,5,9.79,9.46,13.71,4.8,4.57,9.87,7.71,11.32,7.14v-.12c1.12,2.29,7.77,4.43,14.63,5.87,7.38,1.59,15.93.45,16.94-.34a.91.91,0,0,0,.21-.18c6.85,1.39,24.46-8.9,24.38-11.75H95.6a2.6,2.6,0,0,0,.82-.25h0c2.57-.16,7.64-6.33,10.93-12.21A39.17,39.17,0,0,0,112,73.53C112.15,72,112.12,71,111.76,71.09Z" style="fill:none"/><g style="mask:url(#mask)"><path d="M63.38,19.65c-22.1,0-40,15.73-40,35.13v0a8.67,8.67,0,0,0,4.49,7.3,69.48,69.48,0,0,0,35.53,9.55,69.49,69.49,0,0,0,35.54-9.55,8.67,8.67,0,0,0,4.49-7.3v0C103.41,35.38,85.49,19.65,63.38,19.65Z" style="fill:url(#linear-gradient)"/></g><path d="M112.43,64.5a49.58,49.58,0,0,1-.44,6.61q-.06.52-.15,1a49.28,49.28,0,0,1-7.46,19.52l-.65,1a50.25,50.25,0,0,1-17,15.47h0c-.48.27-1,.53-1.46.79a49.71,49.71,0,0,1-22.66,5.43c-.69,0-1.36,0-2,0a46.08,46.08,0,0,1-5-.45h0A49.54,49.54,0,0,1,30.3,102.45c-.53-.44-1-.89-1.55-1.37a49.11,49.11,0,0,1-5.89-6.5c-.27-.35-.53-.7-.77-1.06a49.22,49.22,0,0,1-6.33-11.93,48,48,0,0,0,10,2.51h0a44.1,44.1,0,0,0,5,.46c.68,0,1.35,0,2,0A49.67,49.67,0,0,0,55.5,79.18L57,78.39h0A50.25,50.25,0,0,0,74,62.92c.22-.32.44-.65.65-1A49.37,49.37,0,0,0,82.1,42.42c.06-.35.11-.69.15-1a50,50,0,0,0-2.57-23.71A49.86,49.86,0,0,1,112.43,64.5Z" style="fill:#878787;opacity:0.2;mix-blend-mode:multiply"/><path d="M112.43,64.5a49.58,49.58,0,0,1-.44,6.61q-.06.52-.15,1a49.28,49.28,0,0,1-7.46,19.52l-.65,1a50.25,50.25,0,0,1-17,15.47h0c-.48.27-1,.53-1.46.79a49.71,49.71,0,0,1-22.66,5.43c-.69,0-1.36,0-2,0a46.08,46.08,0,0,1-5-.45h0A49.54,49.54,0,0,1,30.3,102.45c-.53-.44-1-.89-1.55-1.37a48.71,48.71,0,0,1-5.87-6.47,49.53,49.53,0,0,0,23,9.62h0a43.92,43.92,0,0,0,5,.46c.68,0,1.36,0,2,0a49.83,49.83,0,0,0,22.66-5.42l1.47-.79h0A50.25,50.25,0,0,0,94.12,83l.65-1a49.28,49.28,0,0,0,7.46-19.52q.09-.52.15-1a49.8,49.8,0,0,0-9.69-36.71A49.73,49.73,0,0,1,112.43,64.5Z" style="fill:#878787;opacity:0.2;mix-blend-mode:multiply"/></g></g></g></svg>
