<svg class="S" xmlns="http://www.w3.org/2000/svg" xmlns:xlink="http://www.w3.org/1999/xlink" viewBox="0 0 126 126"><defs/><defs><circle id="a" cx="-83" cy="63" r="50.2"/></defs><clipPath id="b"><use overflow="visible" xlink:href="#a"/></clipPath><g clip-path="url(#b)"><path fill="#0071bc" d="M-28.3 87.9c6.5-.4 6.2-14.3 24.2-14.3 12.6 0 13.5 6.7 13.9 6.7-7.9-4.8-19.1-1.8-16.3 3 1.1 1.7 2.6 3.1 4.4 4"/></g><g><radialGradient id="c" cx="63" cy="62.29" r="56.8" fx="43.151" fy="33.373" gradientTransform="matrix(1 0 0 1.0006 0 .67)" gradientUnits="userSpaceOnUse"><stop offset=".062" stop-color="#e6e636"/><stop offset="1" stop-color="#5a631e"/></radialGradient><path fill="url(#c)" d="M65.5 13c-.6 1.5-2 2.6-3.8 2.6-1.6 0-3.1-1-3.7-2.4-16.3 1.6-30.2 11-38.2 24.4.7.7 1.1 1.6 1.1 2.6 0 2-1.6 3.6-3.6 3.6-.2 0-.4 0-.6-.1-2.3 6-3.7 12.5-3.7 19.3 0 27.6 22.4 50 50 50s50-22.4 50-50c0-26.8-21-48.7-47.5-50z"/><radialGradient id="d" cx="62.038" cy="54.87" r="43.928" gradientTransform="matrix(1 0 0 1.0006 0 .67)" gradientUnits="userSpaceOnUse"><stop offset=".275" stop-color="#ebedcc"/><stop offset="1" stop-color="#c4c27a"/></radialGradient><path fill="url(#d)" d="M102.1 41.2c-7.4-13.1-35-28.1-36.6-28.2-.6 1.5-2 2.6-3.8 2.6-1.6 0-3.1-1-3.7-2.4 1 3.2 6.6 5 9.8 6.9 9.2 5.6 21.9 13.2 28.3 24.6 2.8 4.9 4.3 10.6 4.3 16.1 0 8.1-3.1 15.1-9.3 21-6.4 6.1-14.4 9.5-22.3 9.5-3.4 0-6.6-.6-9.7-1.8-12.7-5-20.7-17.3-24-27.1-3.2-9.6-7.2-17-12.1-22-.7-.7-1.4-1.4-2.3-2.1l-.7-.8s0 .1-.1.1c.7.7 1.1 1.6 1.1 2.6 0 2-1.6 3.6-3.6 3.6-.2 0-.4 0-.6-.1v.1c.5.4.9.8 1.3 1.2 4.1 4.2 7.6 10.7 10.5 19.4 3.7 11.4 13 25.6 28 31.5 3.8 1.5 7.9 2.3 12.2 2.3 9.7 0 19.4-4.1 27.1-11.4 9.5-9 11.4-19.1 11.4-26 0-6.7-1.8-13.6-5.2-19.6z"/><path fill="#6e7a00" d="M35.1 65.2c3.1 9.9 11.2 22.1 24 27.1 3 1.2 6.3 1.8 9.7 1.8 7.9 0 15.9-3.4 22.3-9.5 6.1-5.9 9.2-12.9 9.3-21v-1.3c-.4 7.4-3.5 14-9.2 19.4-6.4 6.1-14.4 9.5-22.3 9.5-3.4 0-6.6-.6-9.7-1.8-12.7-5-20.7-17.3-24-27.1-3.2-9.6-7.2-17-12.1-22-.7-.7-1.4-1.4-2.3-2.1l-.8-.7s0 .1-.1.1c.7.6 8.3 5.8 15.2 27.6z"/></g></svg>
