<svg class="S" xmlns="http://www.w3.org/2000/svg" xmlns:xlink="http://www.w3.org/1999/xlink" viewBox="0 0 126 126"><defs><radialGradient id="radial-gradient" cx="57.06" cy="-1106.93" r="77.22" gradientTransform="matrix(0.98, 0, 0, -0.98, -0.41, -1036.73)" gradientUnits="userSpaceOnUse"><stop offset="0" stop-color="#fff"/><stop offset="0.43" stop-color="#d6d6e0"/><stop offset="0.5" stop-color="#c8c8d1"/><stop offset="0.62" stop-color="#a3a3ab"/><stop offset="0.65" stop-color="#9a9aa2"/><stop offset="0.89" stop-color="#d1d1d1"/></radialGradient><filter id="luminosity-noclip" x="23.34" y="-7671" width="79.85" height="32766" filterUnits="userSpaceOnUse" color-interpolation-filters="sRGB"><feFlood flood-color="#fff" result="bg"/><feBlend in="SourceGraphic" in2="bg"/></filter><mask id="mask" x="23.34" y="-7671" width="79.85" height="32766" maskUnits="userSpaceOnUse"><g style="filter:url(#luminosity-noclip)"/></mask><linearGradient id="linear-gradient" x1="63.27" y1="-5.75" x2="63.27" y2="74.95" gradientUnits="userSpaceOnUse"><stop offset="0" stop-color="#fff" stop-opacity="0.4"/><stop offset="0.01" stop-color="#fff" stop-opacity="0.39"/><stop offset="0.32" stop-color="#fff" stop-opacity="0.22"/><stop offset="0.6" stop-color="#fff" stop-opacity="0.1"/><stop offset="0.84" stop-color="#fff" stop-opacity="0.03"/><stop offset="1" stop-color="#fff" stop-opacity="0"/></linearGradient></defs><g style="isolation:isolate"><g id="design"><g id="Layer_2" data-name="Layer 2"><circle cx="63" cy="62.97" r="50" style="fill:url(#radial-gradient)"/><path d="M93,68.54c-15.59,5.91-32.23,6.78-37,6.89.51-9.93,1.5-18.6,1.8-21,3.08-1.4,17-7.61,27-10.5a50.82,50.82,0,0,1,18-2.27A10.21,10.21,0,0,1,110.34,47a44.27,44.27,0,0,0-1.67-4.31A10.78,10.78,0,0,0,103,39.55C102,37.38,98.28,30.69,89.3,23a39.37,39.37,0,0,0-22-9.76A36.6,36.6,0,0,0,63,13h-.64A43.49,43.49,0,0,1,87.51,23.8,55.25,55.25,0,0,1,100.3,39c-5.31-.45-11.51,1-16.24,2.36-1.21.35-2.48.76-3.77,1.18-1.72-2.18-8.22-9.84-21-18.25C50.6,18.61,44.7,17.61,41.06,18c-.65.32-1.33.61-2,1,2.58-.35,8.86.88,18.78,7.5a97.59,97.59,0,0,1,19.82,17c-9,3.2-18.64,7.51-21,8.59A252.93,252.93,0,0,1,28.93,34.34a37.92,37.92,0,0,0-4.64-3,15.93,15.93,0,0,0-1,1.38c.28.29.79.8,1.59,1.52-2.1,3.1-9.08,15.1-8.85,33.13.09,6.89,2.12,17.28,5.67,23.74.75,1.1,1.55,2.16,2.39,3.2l-1-2.73c-11.25-29.45.56-51.5,3.32-56,.41.34.84.68,1.31,1,2.16,1.66,5,3.68,8.3,5.91C34.52,46,29.87,58.43,29.52,77.43c-.36,18.21,4.92,26,10.83,30.07,1.38.71,2.8,1.36,4.25,2-6.2-3.49-12.89-12.12-12.52-32,.34-17.6,4.56-29.64,6.1-33.46,5,3.28,10.83,6.88,17.07,10.3a331.37,331.37,0,0,0-2,37.4c.13,7,.62,19.14,8.16,21.2.54,0,1.07.07,1.61.07h1.81c-3.94-.19-6.72-4-8-11.3,1.79.17,4.82.4,8.68.4,11.81,0,30.18-2.41,40.08-12.79.58-.94,1.15-1.87,1.66-2.85-17.13,14.9-44.5,13.55-50.78,13-.3-2.28-.51-4.84-.62-7.71-.16-4.38-.08-9.07.11-13.59,4.75-.11,22-.94,38.05-7.07,14.66-5.58,17.58-6.07,18.93-5.58,0-.52.07-1,.08-1.58C110.83,63.12,106.39,63.46,93,68.54Z" style="fill:#5c5c5c;isolation:isolate"/><circle cx="62.99" cy="63.17" r="49.7" style="fill:none"/><g style="mask:url(#mask)"><path d="M63.27,17.89c-22.05,0-39.93,15.69-39.93,35v0a8.66,8.66,0,0,0,4.48,7.28,69.34,69.34,0,0,0,35.45,9.53,69.33,69.33,0,0,0,35.44-9.53A8.62,8.62,0,0,0,103.19,53v0C103.19,33.58,85.32,17.89,63.27,17.89Z" style="fill:url(#linear-gradient)"/></g><path d="M112.19,62.63a49.51,49.51,0,0,1-.44,6.59c0,.35-.09.69-.15,1a49.06,49.06,0,0,1-7.44,19.47c-.21.33-.43.66-.65,1a50.08,50.08,0,0,1-17,15.43h0l-1.46.78a49.61,49.61,0,0,1-22.6,5.42c-.69,0-1.36,0-2,0a46.12,46.12,0,0,1-5-.45h0a49.51,49.51,0,0,1-25.13-11.36c-.52-.44-1-.89-1.54-1.37a48.19,48.19,0,0,1-5.88-6.48c-.26-.35-.52-.7-.77-1.06a49.13,49.13,0,0,1-6.31-11.9,48,48,0,0,0,10,2.5h0a41.62,41.62,0,0,0,5,.46c.68,0,1.35.05,2,.05a49.61,49.61,0,0,0,22.6-5.42l1.46-.78h0A50,50,0,0,0,73.84,61c.22-.31.44-.64.65-1A49.12,49.12,0,0,0,81.93,40.6c.06-.35.11-.69.16-1A51.13,51.13,0,0,0,82.52,33a49.72,49.72,0,0,0-3-17.06A49.72,49.72,0,0,1,112.19,62.63Z" style="fill:#878787;opacity:0.2;mix-blend-mode:multiply"/><path d="M112.19,62.63a49.51,49.51,0,0,1-.44,6.59c0,.35-.09.69-.15,1a49.06,49.06,0,0,1-7.44,19.47c-.21.33-.43.66-.65,1a50.08,50.08,0,0,1-17,15.43h0l-1.46.78a49.61,49.61,0,0,1-22.6,5.42c-.69,0-1.36,0-2,0a46.12,46.12,0,0,1-5-.45h0a49.51,49.51,0,0,1-25.13-11.36c-.52-.44-1-.89-1.54-1.37a48.47,48.47,0,0,1-5.86-6.45,49.26,49.26,0,0,0,22.94,9.59h0a43.75,43.75,0,0,0,5,.46c.68,0,1.36.05,2,.05a49.61,49.61,0,0,0,22.6-5.42L77,96.56h0a50,50,0,0,0,17-15.44l.65-1A49.19,49.19,0,0,0,102,60.68q.09-.52.15-1A49.83,49.83,0,0,0,92.5,23,49.58,49.58,0,0,1,112.19,62.63Z" style="fill:#878787;opacity:0.2;mix-blend-mode:multiply"/></g></g></g></svg>
