<svg class="S" xmlns="http://www.w3.org/2000/svg" xmlns:xlink="http://www.w3.org/1999/xlink" viewBox="0 0 126 126"><defs><radialGradient id="radial-gradient" cx="75.89" cy="1253.98" r="75.63" gradientTransform="matrix(1, 0, 0, -1, 0, 1296)" gradientUnits="userSpaceOnUse"><stop offset="0.16" stop-color="#b36343"/><stop offset="0.23" stop-color="#a55839"/><stop offset="0.44" stop-color="#823a1f"/><stop offset="0.61" stop-color="#6c280f"/><stop offset="0.72" stop-color="#642109"/><stop offset="0.92" stop-color="#7a2e01"/></radialGradient><radialGradient id="radial-gradient-2" cx="67.19" cy="1241.73" r="67.71" gradientTransform="matrix(1, 0, 0, -1, 0, 1296)" gradientUnits="userSpaceOnUse"><stop offset="0.22" stop-color="#b36343"/><stop offset="0.28" stop-color="#a55839"/><stop offset="0.47" stop-color="#823a1f"/><stop offset="0.62" stop-color="#6c280f"/><stop offset="0.72" stop-color="#642109"/><stop offset="0.92" stop-color="#7a2e01"/></radialGradient><radialGradient id="radial-gradient-3" cx="63.43" cy="1238.74" r="77.22" gradientTransform="matrix(1, 0, 0, -1, 0, 1296)" gradientUnits="userSpaceOnUse"><stop offset="0.13" stop-color="#9d4d2e"/><stop offset="0.2" stop-color="#8e4426"/><stop offset="0.4" stop-color="#6b2d11"/><stop offset="0.56" stop-color="#551f05"/><stop offset="0.67" stop-color="#4d1a00"/><stop offset="1" stop-color="#702e06"/></radialGradient><radialGradient id="radial-gradient-4" cx="63.5" cy="1245.1" r="76.71" gradientTransform="matrix(1, 0, 0, -1, 0, 1296)" gradientUnits="userSpaceOnUse"><stop offset="0.13" stop-color="#e39e8c"/><stop offset="0.15" stop-color="#de9987"/><stop offset="0.34" stop-color="#ae6e56"/><stop offset="0.5" stop-color="#8b4e32"/><stop offset="0.63" stop-color="#763a1c"/><stop offset="0.72" stop-color="#6e3314"/><stop offset="1" stop-color="#702e06"/></radialGradient><radialGradient id="radial-gradient-5" cx="70.73" cy="1248.93" r="85.21" gradientTransform="matrix(1, 0, 0, -1, 0, 1296)" gradientUnits="userSpaceOnUse"><stop offset="0" stop-color="#fff"/><stop offset="0.43" stop-color="#d6d6e0"/><stop offset="0.5" stop-color="#c8c8d1"/><stop offset="0.62" stop-color="#a3a3ab"/><stop offset="0.65" stop-color="#9a9aa2"/><stop offset="0.89" stop-color="#d1d1d1"/></radialGradient><linearGradient id="linear-gradient" x1="69.94" y1="1260.24" x2="63.39" y2="1248.54" gradientTransform="matrix(1, 0, 0, -1, 0, 1296)" gradientUnits="userSpaceOnUse"><stop offset="0" stop-color="#fff"/><stop offset="0.92" stop-color="#c3b8ba"/></linearGradient><linearGradient id="linear-gradient-2" x1="50.62" y1="1267.64" x2="54.77" y2="1262.84" gradientTransform="matrix(1, 0, 0, -1, 0, 1296)" gradientUnits="userSpaceOnUse"><stop offset="0" stop-color="#8f462a"/><stop offset="1" stop-color="#83624d"/></linearGradient><linearGradient id="linear-gradient-3" x1="61.31" y1="1261.25" x2="65.24" y2="1256.12" xlink:href="#linear-gradient-2"/><linearGradient id="linear-gradient-4" x1="70.34" y1="1253.94" x2="74.05" y2="1249.13" xlink:href="#linear-gradient-2"/><linearGradient id="linear-gradient-5" x1="78.69" y1="1245.9" x2="82.3" y2="1240.88" xlink:href="#linear-gradient-2"/><linearGradient id="linear-gradient-6" x1="50.31" y1="1269.08" x2="54.47" y2="1264.28" xlink:href="#linear-gradient"/><linearGradient id="linear-gradient-7" x1="60.97" y1="1262.66" x2="64.9" y2="1257.53" xlink:href="#linear-gradient"/><linearGradient id="linear-gradient-8" x1="70" y1="1255.35" x2="73.71" y2="1250.55" xlink:href="#linear-gradient"/><linearGradient id="linear-gradient-9" x1="78.36" y1="1247.33" x2="81.97" y2="1242.3" xlink:href="#linear-gradient"/><linearGradient id="linear-gradient-10" x1="98.57" y1="1220.17" x2="94.55" y2="1215.79" gradientTransform="matrix(1, 0, 0, -1, 0, 1296)" gradientUnits="userSpaceOnUse"><stop offset="0" stop-color="#fff"/><stop offset="0.3" stop-color="#ececf0"/><stop offset="0.72" stop-color="#d6d6de"/><stop offset="1" stop-color="#ceced8"/></linearGradient><linearGradient id="linear-gradient-11" x1="29.71" y1="1274.99" x2="29.18" y2="1272.23" xlink:href="#linear-gradient-10"/></defs><g id="Layer_2" data-name="Layer 2"><path d="M87.51,37.5c31.19,31.22,23.32,63.79,18.26,68.87-4.75,4.75-45.14,16.12-74-12.74C4.59,66.47,13.27,25.37,19,19.64,24.09,14.56,59,9,87.51,37.5Z" style="fill:url(#radial-gradient)"/><path d="M93,32.37C64.5,3.85,24.09,14.56,19,19.64c0,0,72.24,7.57,86.74,86.74C110.83,101.29,124.24,63.59,93,32.37Z" style="fill:url(#radial-gradient-2)"/><path d="M105.55,105.4c1-5.64-3.85-32.74-26-56.18-20-21.22-44.18-28-55.09-29.45A16.83,16.83,0,0,0,19,19.64S90.63,27.2,105.55,105.4Z" style="fill:url(#radial-gradient-3)"/><path d="M105.16,105.51c0-5.65-4.1-31.07-26.25-54.51A101.61,101.61,0,0,0,39,25c-6.23-2.17-13.25-4.45-18.78-5.13C17.07,19.52,27,21.61,39,26.1A106.45,106.45,0,0,1,73.29,47.58C87,60.09,100,78.2,105.16,105.51Z" style="fill:url(#radial-gradient-4)"/><path d="M112.73,72.86c-.82-3.07-2.39-4.4-3.77-5-2.79-1.34-8.38-1-14.92,2.83A50.69,50.69,0,0,0,71,98.74c-2,6-.59,11.66,3,13.71a73.76,73.76,0,0,0,15.92-.71h-.64c-9.68.86-3-17.2,11.18-27.1,5.45-3.8,8.68-4,10.28-2.81,2.57,1.88,1.48,7.14,1.5,7A63.67,63.67,0,0,0,112.73,72.86ZM24.4,22a33.81,33.81,0,0,0-8.81,12.36A47.07,47.07,0,0,0,13,45.1,75.93,75.93,0,0,0,14.93,63a33.69,33.69,0,0,1,.1-9.3c1.89-10.79,9.38-23.53,20-31.27a38.45,38.45,0,0,1,27-7.17,72,72,0,0,0-16.48-1.82C37.05,14.13,29.82,17.14,24.4,22Z" style="fill:url(#radial-gradient-5)"/><path d="M41.55,26.14C40,28,41.63,29,45.15,30.61c5.64,2.55,26.62,14.67,38.39,31.16,1.94,2.57,3.8,2,4.88,1.15s1-3.19-.47-5.34-14.42-22.74-40.78-32C44.11,24.44,42.12,25.38,41.55,26.14Z" style="fill:#6e2f13"/><path d="M42.12,25.13c-1.52,1.9.08,2.84,3.6,4.46,5.66,2.58,26.64,14.67,38.41,31.16,1.94,2.58,3.8,2.06,4.88,1.16s1-3.2-.48-5.34-14.42-22.74-40.77-32C44.72,23.43,42.74,24.36,42.12,25.13Z" style="fill:url(#linear-gradient)"/><path d="M50.58,28.52a20.46,20.46,0,0,1,7.74-3.59c3.77-.83,5.85,2.3,3,3.67-2.7,1.29-7.58,2.86-12.09,8.95a2.66,2.66,0,1,1-4.4-3h0A20.68,20.68,0,0,1,50.58,28.52Z" style="fill:url(#linear-gradient-2)"/><path d="M60.9,34.91a19.1,19.1,0,0,1,7.66-3.5c3.79-.75,6,2.44,3.07,3.76C68.9,36.42,64,37.91,59.38,43.88a2.65,2.65,0,0,1-4.34-3A20.74,20.74,0,0,1,60.9,34.91Z" style="fill:url(#linear-gradient-3)"/><path d="M70.13,42.3a19.58,19.58,0,0,1,7.79-3.51c3.83-.65,5.84,2.63,3,3.91s-7.66,2.64-12.36,8.55a2.64,2.64,0,0,1-4.3-3.08A20.71,20.71,0,0,1,70.13,42.3Z" style="fill:url(#linear-gradient-4)"/><path d="M78.34,50a17.59,17.59,0,0,1,7.8-3.14c3.8-.49,5.75,3.08,2.77,4.2-2.79,1-7.76,2.17-12.78,7.85a2.63,2.63,0,0,1-4-3.41A20.76,20.76,0,0,1,78.34,50Z" style="fill:url(#linear-gradient-5)"/><path d="M50.25,27.1A20.41,20.41,0,0,1,58,23.51c3.77-.83,5.85,2.29,3,3.67-2.7,1.29-7.58,2.86-12.09,9a2.66,2.66,0,0,1-4.4-3h0A20.63,20.63,0,0,1,50.25,27.1Z" style="fill:url(#linear-gradient-6)"/><path d="M60.58,33.49A19,19,0,0,1,68.23,30c3.79-.75,6,2.44,3.07,3.76C68.57,35,63.67,36.5,59,42.46a2.64,2.64,0,0,1-4.34-3A20.54,20.54,0,0,1,60.58,33.49Z" style="fill:url(#linear-gradient-7)"/><path d="M69.82,40.88a19.44,19.44,0,0,1,7.81-3.5c3.8-.71,5.8,2.63,2.91,3.91s-7.67,2.64-12.37,8.54a2.64,2.64,0,0,1-4.3-3.07A20.58,20.58,0,0,1,69.82,40.88Z" style="fill:url(#linear-gradient-8)"/><path d="M78,48.54a17.59,17.59,0,0,1,7.8-3.14c3.8-.49,5.75,3.08,2.77,4.19-2.8,1.06-7.76,2.18-12.79,7.85a2.63,2.63,0,0,1-4-3.41A20.75,20.75,0,0,1,78,48.54Z" style="fill:url(#linear-gradient-9)"/><path d="M94.89,70.08A82.33,82.33,0,0,1,101.3,84.2a8.52,8.52,0,0,0-1,.6s-3-7.34-6.57-14A5.74,5.74,0,0,1,94.89,70.08Z" style="fill:#a0a0ab"/><path d="M93.72,70.81s4.06,7.83,6.57,14a2.83,2.83,0,0,0-.85.65s-3.22-7.34-6.81-14A4.31,4.31,0,0,1,93.72,70.81Z" style="fill:url(#linear-gradient-10)"/><path d="M26.65,20.11a47.47,47.47,0,0,1,8.74,2A9.62,9.62,0,0,1,34,23.15a58.91,58.91,0,0,0-8.25-2.27C26.28,20.43,26.65,20.11,26.65,20.11Z" style="fill:#a0a0ab"/><path d="M25,21.49S30.57,23.11,33,24c.52-.4.93-.77.93-.77a47.92,47.92,0,0,0-8.21-2.39A3.94,3.94,0,0,0,25,21.49Z" style="fill:url(#linear-gradient-11)"/></g></svg>
