<svg class="S" xmlns="http://www.w3.org/2000/svg" xmlns:xlink="http://www.w3.org/1999/xlink" viewBox="0 0 126 126"><defs><radialGradient id="radial-gradient" cx="49.85" cy="36.87" r="79.46" gradientTransform="translate(0 -2.23)" gradientUnits="userSpaceOnUse"><stop offset="0" stop-color="#ffb854"/><stop offset="0.43" stop-color="#ff5900"/><stop offset="0.82" stop-color="#a33800"/><stop offset="1" stop-color="#421200"/></radialGradient><radialGradient id="radial-gradient-2" cx="68.33" cy="45.12" r="42.68" gradientTransform="translate(0 -2.23)" gradientUnits="userSpaceOnUse"><stop offset="0" stop-color="#9b9796"/><stop offset="0.36"/></radialGradient><radialGradient id="radial-gradient-3" cx="29.28" cy="56.89" r="36.33" xlink:href="#radial-gradient-2"/><radialGradient id="radial-gradient-4" cx="87.03" cy="22.46" r="29.3" xlink:href="#radial-gradient-2"/><filter id="luminosity-noclip" x="23.36" y="-8839" width="80.05" height="32766" filterUnits="userSpaceOnUse" color-interpolation-filters="sRGB"><feFlood flood-color="#fff" result="bg"/><feBlend in="SourceGraphic" in2="bg"/></filter><mask id="mask" x="23.36" y="-8839" width="80.05" height="32766" maskUnits="userSpaceOnUse"><g style="filter:url(#luminosity-noclip)"/></mask><linearGradient id="linear-gradient" x1="63.38" y1="-6.04" x2="63.38" y2="74.86" gradientUnits="userSpaceOnUse"><stop offset="0" stop-color="#fff" stop-opacity="0.4"/><stop offset="0.01" stop-color="#fff" stop-opacity="0.39"/><stop offset="0.32" stop-color="#fff" stop-opacity="0.22"/><stop offset="0.6" stop-color="#fff" stop-opacity="0.1"/><stop offset="0.84" stop-color="#fff" stop-opacity="0.03"/><stop offset="1" stop-color="#fff" stop-opacity="0"/></linearGradient></defs><g style="isolation:isolate"><g id="design"><path d="M109.78,79a1.52,1.52,0,0,1,1.06-1.44,50.07,50.07,0,0,0-.5-30.65,1.53,1.53,0,0,1-1.08-1.45,1.45,1.45,0,0,1,.25-.79A50.16,50.16,0,0,0,83.45,17.37a1.44,1.44,0,0,1-.68.18,1.52,1.52,0,0,1-1.44-1.07A50,50,0,0,0,41,18.08a1.53,1.53,0,0,1-1.51,1.41,1.47,1.47,0,0,1-.75-.23A50.11,50.11,0,0,0,15.35,47.84a1.51,1.51,0,0,1,.72,1.27,1.55,1.55,0,0,1-1.53,1.54A50.28,50.28,0,0,0,13,63a49.74,49.74,0,0,0,6.45,24.56,1.51,1.51,0,0,1,1.31,2.17,50,50,0,0,0,32.51,22.32,1.49,1.49,0,0,1,1.07-.44,1.53,1.53,0,0,1,1.36.85,49.88,49.88,0,0,0,34.66-7.62,1.53,1.53,0,0,1,1.52-1.45,1.71,1.71,0,0,1,.45.09,50,50,0,0,0,17.75-23.63A1.51,1.51,0,0,1,109.78,79Z" style="fill:url(#radial-gradient)"/><path d="M109.78,79a1.57,1.57,0,0,1,0-.3,13.91,13.91,0,0,1-6.25-1.31C100,75,97.75,71,96,67c1-.89,2-1.8,3-2.73A49.2,49.2,0,0,0,110.46,47.3l-.12-.4a1.6,1.6,0,0,1-.73-.49A51.76,51.76,0,0,1,95.44,65.49c-.4-1-.78-2-1.15-2.94-3.84-11.13-3.48-22.38-4.61-31.95a35.31,35.31,0,0,0-5.82-13l-.41-.2a1.44,1.44,0,0,1-.68.18,1.13,1.13,0,0,1-.18,0,29.63,29.63,0,0,1,5.94,18.67c.43,11.12,1.64,22,5.58,30.39-.68.54-1.37,1.06-2.08,1.56-2.24,1.51-4.5,2.92-6.77,4.29-6-13.13-13.79-24.28-21-33.58C56.41,29,48.16,21.75,41.15,18l-.11.06a1.47,1.47,0,0,1-.21.62C52.12,25.05,60.5,36.5,67.69,46.13A185.56,185.56,0,0,1,83.76,73.31Q78.38,76.47,73,79.11C70.06,73.77,65,70,60.25,67.2A85.92,85.92,0,0,0,41,59,110,110,0,0,1,16,49.36a1.49,1.49,0,0,1-.34.74C25.86,55.93,37.15,59.6,47.38,63c9.67,3.55,19.39,9.4,24,17a148.63,148.63,0,0,1-21.22,8.25,57,57,0,0,1-29.25,1.24,2.83,2.83,0,0,1-.11.31c.11.18.24.36.36.54,12.32,3.09,25.78,1.46,37-2.88,4.84-1.87,9.57-3.83,14.1-5.93a16.68,16.68,0,0,1,1.52,10.89c-2.2,11.43-11.51,17.15-18,20.11h0c.48.07,1,.11,1.47.16a37.56,37.56,0,0,0,8.76-5.21c6.74-5.14,11.09-14,9.2-22.43a18.65,18.65,0,0,0-1.34-4.27c3.76-1.78,7.37-3.66,10.76-5.67A93.58,93.58,0,0,1,89.1,87.35a57.3,57.3,0,0,1,2.73,16.05h0a1.71,1.71,0,0,1,.45.09c.2-.14.39-.31.58-.45a66.83,66.83,0,0,0-4.69-23.66c-.69-1.78-1.43-3.51-2.18-5.22A81.59,81.59,0,0,0,94.77,68c0,.06.06.14.1.2,2.08,4.25,4.53,8.36,8.31,10.23a14.89,14.89,0,0,0,6.73,1.1A1.43,1.43,0,0,1,109.78,79Z" style="fill:url(#radial-gradient-2)"/><path d="M76.6,77.26c-1.2.62-2.4,1.26-3.6,1.85C70.06,73.77,65,70,60.25,67.2A85.92,85.92,0,0,0,41,59,110,110,0,0,1,16,49.36a1.49,1.49,0,0,1-.34.74C25.86,55.93,37.15,59.6,47.38,63c9.67,3.55,19.39,9.4,24,17a148.63,148.63,0,0,1-21.22,8.25,57,57,0,0,1-29.25,1.24,2.83,2.83,0,0,1-.11.31c.11.18.24.36.36.54,12.32,3.09,25.78,1.46,37-2.88,4.84-1.87,9.57-3.83,14.1-5.93a16.68,16.68,0,0,1,1.52,10.89c-2.2,11.43-11.51,17.15-18,20.11h0c.48.07,1,.11,1.47.16a37.56,37.56,0,0,0,8.76-5.21c6.74-5.14,11.09-14,9.2-22.43a18.65,18.65,0,0,0-1.34-4.27c1.25-.59,2.47-1.19,3.67-1.8Z" style="fill:url(#radial-gradient-3)"/><path d="M110.46,47.3l-.12-.4a1.6,1.6,0,0,1-.73-.49A51.76,51.76,0,0,1,95.44,65.49c-.4-1-.78-2-1.15-2.94-3.84-11.13-3.48-22.38-4.61-31.95a35.31,35.31,0,0,0-5.82-13l-.41-.2a1.51,1.51,0,0,1-.33.13l.08.93a29.43,29.43,0,0,1,5.33,17.76c.43,11.12,1.64,22,5.58,30.39-.65.51-1.3,1-2,1.48l.44,1.66c.75-.57,1.48-1.13,2.19-1.71,0,.06.06.14.1.2,2.08,4.25,4.53,8.36,8.31,10.23a14.89,14.89,0,0,0,6.73,1.1,1.43,1.43,0,0,1-.13-.55,1.57,1.57,0,0,1,0-.3,13.91,13.91,0,0,1-6.25-1.31C100,75,97.75,71,96,67c1-.89,2-1.8,3-2.73A49.2,49.2,0,0,0,110.46,47.3Z" style="fill:url(#radial-gradient-4)"/><g style="mask:url(#mask)"><path d="M63.38,17.65c-22.1,0-40,15.73-40,35.13v0a8.67,8.67,0,0,0,4.49,7.3,69.48,69.48,0,0,0,35.53,9.55,69.49,69.49,0,0,0,35.54-9.55,8.67,8.67,0,0,0,4.49-7.3v0C103.41,33.38,85.49,17.65,63.38,17.65Z" style="fill:url(#linear-gradient)"/></g><path d="M112.43,62.5a49.58,49.58,0,0,1-.44,6.61q-.06.52-.15,1a49.28,49.28,0,0,1-7.46,19.52l-.65,1a50.25,50.25,0,0,1-17,15.47h0c-.48.27-1,.53-1.46.79a49.71,49.71,0,0,1-22.66,5.43c-.69,0-1.36,0-2,0a46.08,46.08,0,0,1-5-.45h0A49.54,49.54,0,0,1,30.3,100.45c-.53-.44-1-.89-1.55-1.37a49.11,49.11,0,0,1-5.89-6.5c-.27-.35-.53-.7-.77-1.06a49.22,49.22,0,0,1-6.33-11.93,48,48,0,0,0,10,2.51h0a44.1,44.1,0,0,0,5,.46c.68,0,1.35,0,2,0A49.67,49.67,0,0,0,55.5,77.18L57,76.39h0A50.25,50.25,0,0,0,74,60.92c.22-.32.44-.65.65-1A49.37,49.37,0,0,0,82.1,40.42c.06-.35.11-.69.15-1a50,50,0,0,0-2.57-23.71A49.86,49.86,0,0,1,112.43,62.5Z" style="fill:#878787;opacity:0.2;mix-blend-mode:multiply"/><path d="M112.43,62.5a49.58,49.58,0,0,1-.44,6.61q-.06.52-.15,1a49.28,49.28,0,0,1-7.46,19.52l-.65,1a50.25,50.25,0,0,1-17,15.47h0c-.48.27-1,.53-1.46.79a49.71,49.71,0,0,1-22.66,5.43c-.69,0-1.36,0-2,0a46.08,46.08,0,0,1-5-.45h0A49.54,49.54,0,0,1,30.3,100.45c-.53-.44-1-.89-1.55-1.37a48.71,48.71,0,0,1-5.87-6.47,49.53,49.53,0,0,0,23,9.62h0a43.92,43.92,0,0,0,5,.46c.68,0,1.36,0,2,0a49.83,49.83,0,0,0,22.66-5.42l1.47-.79h0A50.25,50.25,0,0,0,94.12,81l.65-1a49.28,49.28,0,0,0,7.46-19.52q.09-.52.15-1a49.8,49.8,0,0,0-9.69-36.71A49.73,49.73,0,0,1,112.43,62.5Z" style="fill:#878787;opacity:0.2;mix-blend-mode:multiply"/></g></g></svg>
