<svg class="S" xmlns="http://www.w3.org/2000/svg" xmlns:xlink="http://www.w3.org/1999/xlink" viewBox="0 0 126 126"><defs><radialGradient id="radial-gradient" cx="103.3" cy="280.08" r="66.58" gradientTransform="translate(-205.6 -100.57) rotate(-37.97)" gradientUnits="userSpaceOnUse"><stop offset="0" stop-color="#ffc2ba"/><stop offset="0.06" stop-color="#fcbab0"/><stop offset="0.16" stop-color="#f6a396"/><stop offset="0.29" stop-color="#eb7f6b"/><stop offset="0.44" stop-color="#db4d30"/><stop offset="0.55" stop-color="#cf2400"/><stop offset="1" stop-color="#940000"/></radialGradient><filter id="luminosity-noclip" x="23.34" y="-8693" width="79.85" height="32766" filterUnits="userSpaceOnUse" color-interpolation-filters="sRGB"><feFlood flood-color="#fff" result="bg"/><feBlend in="SourceGraphic" in2="bg"/></filter><mask id="mask" x="23.34" y="-8693" width="79.85" height="32766" maskUnits="userSpaceOnUse"><g style="filter:url(#luminosity-noclip)"/></mask><linearGradient id="linear-gradient" x1="63.27" y1="-5.75" x2="63.27" y2="74.95" gradientUnits="userSpaceOnUse"><stop offset="0" stop-color="#fff" stop-opacity="0.4"/><stop offset="0.01" stop-color="#fff" stop-opacity="0.39"/><stop offset="0.32" stop-color="#fff" stop-opacity="0.22"/><stop offset="0.6" stop-color="#fff" stop-opacity="0.1"/><stop offset="0.84" stop-color="#fff" stop-opacity="0.03"/><stop offset="1" stop-color="#fff" stop-opacity="0"/></linearGradient></defs><g style="isolation:isolate"><g id="design"><path d="M102.41,32.24a50,50,0,1,1-70.17-8.65A50,50,0,0,1,102.41,32.24Z" style="fill:url(#radial-gradient)"/><polygon points="110.48 60.25 110.47 60.26 110.47 60.25 110.48 60.25" style="fill:#ffc98f"/><path d="M100.56,74.3a.81.81,0,0,1-.24.1A.72.72,0,0,0,100.56,74.3Z" style="fill:#ffc98f"/><path d="M103.64,44.53s0,0,0,0c1.32-3.47,1-3.89.82-4.19l0,0c.32-3-.06-3.55-.29-3.85,0,0,0,0,0,0a8.57,8.57,0,0,0-1.41-3.45h0l0,0-.86-1.23-.23-.23-.19-.27-.19-.23a15.07,15.07,0,0,1,1.26,1.89,5.31,5.31,0,0,0,.54.85,10.73,10.73,0,0,1,.7,2.7,1.9,1.9,0,0,0,.37.95h0a18.86,18.86,0,0,1-.23,3,1.67,1.67,0,0,0,.13,1s0,0,0,.05,0,0,0,0c-.1.35-.21.81-.33,1.15-.25.7-.56,1.37-.81,2.07a1.57,1.57,0,0,0-.08,1,.29.29,0,0,0,.06.11h0c-.62,1.16-1.37,2.25-2,3.39a1.67,1.67,0,0,0-.27,1,.26.26,0,0,0,.07.11h0c-.94,1.2-2,2.31-2.93,3.49a1.93,1.93,0,0,0-.46.93.31.31,0,0,0,0,.19c-1.22,1.2-2.56,2.34-3.79,3.53a2,2,0,0,0-.63,1c0,.19,0,.27.2.25a.23.23,0,0,1-.17,0c-1.52,1.19-3.13,2.28-4.65,3.47-.7.59-.82.91-.83,1a.15.15,0,0,0,.06.13h0c-1.74,1.12-3.56,2.12-5.31,3.24-.62.43-.83.71-.89.87s0,.17,0,.22h0c-1.87,1-3.8,1.83-5.67,2.82-.77.44-.93.72-1,.79a.19.19,0,0,0,0,.22h0c-2,.82-4,1.52-5.9,2.36-.79.37-1,.64-1,.71a.18.18,0,0,0,0,.21h0c-2,.66-4,1.19-6,1.87-.79.3-1,.53-1,.62a.19.19,0,0,0,0,.2h0c-2,.5-4,.86-6,1.36a2,2,0,0,0-1.05.52.17.17,0,0,0,0,.19c-2,.31-4,.5-5.93.81-.72.15-.94.33-1,.42a.16.16,0,0,0,0,.22s0,0,0,0c-1.89.13-3.79.12-5.68.24-.73.07-.93.24-1,.31a.14.14,0,0,0,0,.18h0c-1.78-.06-3.56-.27-5.34-.36-.65,0-.86.11-.92.19a.14.14,0,0,0,0,.15c-1.63-.27-3.29-.66-4.9-1a1.68,1.68,0,0,0-.77,0,.16.16,0,0,0-.09.21h0c-1.22-.4-2.82-1-4-1.51-.52,0-.79.09-.81.17l-.07,0a22,22,0,0,1-4.23-2.83,1.68,1.68,0,0,0-.23-.18c-.4-.26-.43-.11-.42,0a.56.56,0,0,0,.07.16.47.47,0,0,1-.06-.15,17.12,17.12,0,0,1-2.31-2.81c-.22-.29-.26-.28-.32-.28a.42.42,0,0,0,0,.19s0,0,0-.07A16.83,16.83,0,0,1,13.9,71a1.09,1.09,0,0,0-.14-.35h0l-.33-1.82,0,.31c0,.14,0,.3.08.45v-.06l0,.31a12.9,12.9,0,0,0,.65,2.68.08.08,0,0,0,0-.07v0c1,2.64,1.58,3.25,1.72,3.38s.18.09.17,0v0a27.88,27.88,0,0,0,2.36,2.63c.26.25.69.45.67.19a0,0,0,0,1,0,0c1,.68,2.25,1.57,3.26,2.16.5.26.86.26.91.12a.09.09,0,0,0,0-.07c5.22,2.15,6.38,2.08,6.36,1.68v0a43.6,43.6,0,0,0,4.88.87c.53.05,1.12-.08,1.1-.33v0c3.8.3,5.29.26,5.31.26.58,0,1.19-.21,1.17-.47v0c6.58-.2,6.89-.48,6.84-.92,0,0,0,0,0,0,6.51-.83,7.13-1.11,7.07-1.6a.06.06,0,0,1,0,0c4.13-.89,5.52-1.28,5.91-1.41.72-.22,1.27-.6,1.23-.84v0c4.13-1.25,5.49-1.75,5.88-1.9.71-.29,1.23-.71,1.19-1v0c6.69-2.6,7-2.91,6.87-3.42a.43.43,0,0,1,0,0c6.47-3.14,6.68-3.46,6.54-4l0,0c6.29-3.76,6.2-4,6-4.46v0c5.39-4,5.3-4.18,5.12-4.63l0,0a46.3,46.3,0,0,0,3.58-3.44c.34-.37.61-1,.48-1.2a.1.1,0,0,0,0,0c3.36-3.89,3.21-4.18,3-4.56a.43.43,0,0,1,0,0C104.07,45.2,103.86,44.87,103.64,44.53Z" style="fill:#ffc98f"/><path d="M107.87,50.94s0,0,0,0c1.36-3.47,1.06-3.89.85-4.19,0,0,0,0,0,0,.33-3-.06-3.55-.3-3.85l0,0a8.62,8.62,0,0,0-1.46-3.45h0l0,0L106,38.08l-.24-.23-.19-.27-.2-.22a13.61,13.61,0,0,1,1.3,1.88,5.94,5.94,0,0,0,.56.85,10.7,10.7,0,0,1,.72,2.7,2,2,0,0,0,.38,1h0a18.09,18.09,0,0,1-.24,3,1.62,1.62,0,0,0,.14,1s0,0,0,0h0c-.1.35-.22.81-.34,1.15-.26.7-.58,1.37-.83,2.07a1.52,1.52,0,0,0-.09,1A.21.21,0,0,0,107,52h0c-.65,1.16-1.42,2.25-2.11,3.39a1.56,1.56,0,0,0-.28,1,.21.21,0,0,0,.07.11h0c-1,1.2-2,2.31-3,3.49a1.8,1.8,0,0,0-.47.93.25.25,0,0,0,.05.2c-1.27,1.2-2.64,2.33-3.91,3.52a2.05,2.05,0,0,0-.66,1c0,.19,0,.27.21.25a.26.26,0,0,1-.18,0c-1.57,1.19-3.22,2.28-4.8,3.48-.71.58-.84.9-.85,1a.13.13,0,0,0,.06.13h0c-1.8,1.12-3.67,2.12-5.48,3.24-.64.43-.86.71-.92.87a.19.19,0,0,0,0,.22h0c-1.93,1-3.92,1.83-5.85,2.82-.79.44-1,.72-1,.79s0,.17,0,.22h0c-2,.82-4.08,1.52-6.09,2.36-.82.37-1,.64-1,.71a.2.2,0,0,0,0,.21h0c-2.06.66-4.15,1.19-6.21,1.87-.81.3-1,.53-1.07.62s-.06.15,0,.21v0c-2.06.5-4.16.86-6.22,1.36a2.06,2.06,0,0,0-1.08.52.17.17,0,0,0,0,.19c-2,.31-4.1.5-6.12.81a1.9,1.9,0,0,0-1,.42.16.16,0,0,0,0,.22s0,0,0,0c-2,.13-3.91.12-5.87.24-.75.08-.95.24-1,.31a.16.16,0,0,0,0,.18h0c-1.85-.06-3.68-.27-5.52-.36-.67,0-.88.11-.95.19a.14.14,0,0,0,0,.15c-1.68-.27-3.4-.66-5.06-1a1.77,1.77,0,0,0-.79,0,.16.16,0,0,0-.1.21h0c-1.26-.4-2.9-1-4.13-1.51-.54,0-.82.09-.84.17l-.07,0a22.38,22.38,0,0,1-4.36-2.83l-.24-.18c-.42-.25-.45-.11-.43,0a.52.52,0,0,0,.06.16.94.94,0,0,1-.06-.15A17.56,17.56,0,0,1,17,80.78c-.22-.29-.26-.28-.32-.28a.32.32,0,0,0,0,.19.19.19,0,0,1,0-.07,16.14,16.14,0,0,1-1.41-3.21,1.09,1.09,0,0,0-.14-.35h0l-.34-1.82,0,.31c0,.14,0,.3.08.45v-.06l0,.31a13,13,0,0,0,.68,2.68v-.07a.06.06,0,0,1,0,0c1.08,2.64,1.63,3.25,1.78,3.38s.19.09.17,0v0A28.67,28.67,0,0,0,20,84.77c.27.25.71.45.69.19v0c1,.68,2.33,1.57,3.37,2.16.51.26.88.26.94.12s0,0,0-.07c5.38,2.15,6.58,2.08,6.56,1.68v0a46,46,0,0,0,5,.87c.55,0,1.15-.08,1.13-.32v0c3.92.3,5.46.26,5.48.26.6,0,1.23-.21,1.2-.47v0c6.79-.2,7.1-.48,7.06-.92a.06.06,0,0,1,0,0c6.72-.83,7.36-1.11,7.29-1.6a.06.06,0,0,0,0,0C63,85.55,64.38,85.16,64.8,85c.73-.22,1.3-.6,1.26-.84v0c4.27-1.25,5.67-1.75,6.07-1.9.73-.29,1.27-.71,1.23-1a.07.07,0,0,1,0,0c6.91-2.6,7.22-2.91,7.1-3.42a.07.07,0,0,1,0,0c6.68-3.14,6.89-3.46,6.74-4v0c6.48-3.76,6.39-4,6.23-4.45,0,0,0,0,0,0,5.56-4,5.47-4.18,5.28-4.63l0,0c2.75-2.41,3.61-3.34,3.7-3.44.34-.37.62-.95.5-1.2,0,0,0,0,0,0,3.47-3.89,3.31-4.18,3.09-4.56l0,0C108.32,51.61,108.1,51.28,107.87,50.94Z" style="fill:#ffc98f"/><path d="M106.08,47.48l0,0c1.35-3.47,1-3.88.84-4.18l0,0c.33-3-.06-3.55-.29-3.85l0,0a8.78,8.78,0,0,0-1.44-3.46h0l0,0-.88-1.22-.23-.24-.2-.26-.19-.23a13.33,13.33,0,0,1,1.28,1.89,6,6,0,0,0,.55.85,10.73,10.73,0,0,1,.72,2.69,2,2,0,0,0,.37,1h0a16.46,16.46,0,0,1-.23,3,1.69,1.69,0,0,0,.13,1l.06,0h0c-.11.34-.22.81-.34,1.14-.26.7-.57,1.38-.83,2.07a1.63,1.63,0,0,0-.09,1,.26.26,0,0,0,.07.1h0c-.64,1.16-1.4,2.25-2.08,3.39a1.6,1.6,0,0,0-.28,1,.18.18,0,0,0,.07.11h0c-1,1.2-2,2.3-3,3.48a1.88,1.88,0,0,0-.46.94.26.26,0,0,0,0,.19c-1.25,1.2-2.61,2.34-3.86,3.53a2,2,0,0,0-.65,1c0,.18,0,.26.2.25a.31.31,0,0,1-.17,0c-1.55,1.19-3.19,2.28-4.75,3.47-.71.58-.83.9-.84,1a.14.14,0,0,0,.05.13h0c-1.78,1.12-3.64,2.12-5.42,3.24a2.44,2.44,0,0,0-.92.87.21.21,0,0,0,0,.22h0c-1.91,1-3.88,1.83-5.78,2.82-.78.44-1,.72-1,.79s0,.17,0,.22h0c-2,.82-4,1.52-6,2.35-.82.38-1,.64-1,.71s0,.17,0,.22h0c-2,.66-4.11,1.19-6.14,1.87-.81.3-1,.53-1.07.61a.18.18,0,0,0,0,.21h0c-2,.49-4.11.85-6.15,1.36-.71.2-1,.39-1.06.52s-.06.13,0,.18c-2,.31-4.06.5-6.06.82-.73.14-1,.32-1,.42a.16.16,0,0,0,0,.22s0,0,0,0c-1.93.13-3.87.12-5.8.24-.75.07-1,.24-1,.3a.17.17,0,0,0,0,.19h0c-1.82-.07-3.64-.27-5.46-.36-.66,0-.87.11-.93.18a.17.17,0,0,0,0,.16c-1.66-.27-3.36-.66-5-1a1.6,1.6,0,0,0-.78,0,.15.15,0,0,0-.1.21h0c-1.25-.4-2.87-1-4.09-1.51-.53,0-.8.09-.83.17l-.06,0a21.78,21.78,0,0,1-4.32-2.83L19,80.13c-.42-.26-.45-.11-.43,0a.56.56,0,0,0,.07.16,1,1,0,0,1-.07-.15,17.92,17.92,0,0,1-2.36-2.81c-.21-.29-.25-.29-.32-.28a.64.64,0,0,0,0,.19.14.14,0,0,0,0-.07A17.06,17.06,0,0,1,14.46,74c-.09-.28-.1-.3-.14-.35h0L14,71.78l0,.32c0,.14.05.29.07.44v-.06l0,.32a13.26,13.26,0,0,0,.66,2.68.11.11,0,0,0,0-.08v0c1.06,2.64,1.61,3.25,1.76,3.38s.18.08.17,0v0a26.09,26.09,0,0,0,2.41,2.63c.27.26.7.45.69.2v0c1,.69,2.3,1.58,3.34,2.17.5.26.87.26.93.11a.14.14,0,0,0,0-.06c5.33,2.15,6.52,2.08,6.49,1.67v0a46.76,46.76,0,0,0,5,.88c.54,0,1.14-.08,1.12-.33v0a52.06,52.06,0,0,0,5.42.26c.59,0,1.21-.2,1.19-.46v0c6.72-.21,7-.49,7-.92,0,0,0,0,0,0,6.65-.83,7.28-1.11,7.21-1.6v0c4.22-.89,5.63-1.28,6-1.4.72-.22,1.28-.6,1.25-.84a.06.06,0,0,1,0,0c4.23-1.25,5.61-1.75,6-1.91.73-.29,1.26-.7,1.21-1v0c6.83-2.61,7.14-2.91,7-3.43a.1.1,0,0,1,0,0c6.61-3.14,6.82-3.46,6.67-4,0,0,0,0,0,0,6.41-3.75,6.33-4,6.17-4.45,0,0,0,0,0,0,5.5-3.95,5.41-4.18,5.22-4.63v0c2.72-2.41,3.57-3.34,3.66-3.44.34-.38.61-1,.49-1.2,0,0,0,0,0,0,3.43-3.9,3.27-4.18,3.05-4.56,0,0,0,0,0,0C106.52,48.16,106.31,47.83,106.08,47.48Z" style="fill:#ffc98f"/><path d="M110.91,59.13v-.06c.95-2.81.95-3.73.82-4.25v0h0a14.28,14.28,0,0,0-.17-3.19,12.57,12.57,0,0,1,0,3.76c-.07,0,0-.4,0-.49a24,24,0,0,0,0-3.17v0c0-.05,0-.11,0-.22l0-.29-.09-.4-.08-.33-.08-.29c.23,1.06.23,1.06.23,1.1a3.41,3.41,0,0,1-.1-.46l-.23-1-.08-.29.25,1.1a5.24,5.24,0,0,0,.24,1.1h0s0,0,0-.06a12.32,12.32,0,0,1-.08,3,3.79,3.79,0,0,0,0,1.06,22.86,22.86,0,0,1-1,3.31c-.28.87-.14,1-.14,1-.38.76-.42.88-2,3.57-.44.8-.39,1.11-.38,1.14s0,0,0,0h0C107,66.05,106,67.2,105,68.39a2.4,2.4,0,0,0-.57,1.09.17.17,0,0,0,0,.1h0c-1.22,1.25-2.53,2.4-3.79,3.62-.59.61-.72.93-.74,1.06a.16.16,0,0,0,0,.12h0c-1.53,1.24-3.14,2.39-4.69,3.6-.8.66-.91,1-.93,1.08a.08.08,0,0,0,0,0c-1.75,1.16-3.62,2.26-5.39,3.4-.93.64-1,.94-1,1a.1.1,0,0,0,0,.07h0c-1.91,1-3.87,1.94-5.78,2.94-1,.56-1.07.85-1.08.92s0,0,0,.06c-2,.86-4.08,1.63-6.06,2.48a2.64,2.64,0,0,0-1.06.69c-.06.09-.06.15,0,.19h0c-2,.7-4.13,1.29-6.18,2-.84.31-1,.53-1.08.59s0,.14,0,.18h0c-2.06.53-4.15,1-6.22,1.47-.8.23-1,.42-1.06.49s0,.14,0,.19l0,0c-2,.35-4.09.59-6.13.92-.81.16-1,.33-1,.38a.14.14,0,0,0,0,.16h0c-2,.16-3.94.21-5.92.34-.66.06-.9.17-1,.26s0,.12,0,.18l0,0c-1.87,0-3.73-.19-5.59-.28-.66,0-.85.08-.9.14s0,.18.19.26a.48.48,0,0,1-.19-.13c-1.23-.18-1.23-.18-5.14-.93a2.11,2.11,0,0,0-.75,0c-.08,0-.08.1,0,.17h0c-1.29-.39-3-1-4.24-1.47-.52-.06-.55.07-.52.15l-.23-.12a23.86,23.86,0,0,1-4.53-2.81l-.24-.19c-.18-.12-.24-.16-.31-.17s0,0,0,0a4.41,4.41,0,0,0,1,1l.46.36c1,.68,2.41,1.55,3.49,2.14.51.25.84.29.84.18h0c5.66,2.16,6.58,1.91,6.48,1.66l0,0c4.23.83,6.29,1,6.15.55,0,0,0,0,0,0,3.48.22,5,.19,5.43.18.71,0,1.25-.2,1.2-.39,0,0,0,0,0,0,4-.19,5.62-.39,5.79-.42.62-.08,1.25-.31,1.21-.53a.1.1,0,0,1,0,0c1.09-.15,4.39-.62,6-1,.63-.15,1.29-.45,1.25-.67a0,0,0,0,0,0,0c3-.68,5-1.19,6.06-1.52.64-.2,1.29-.56,1.26-.78a0,0,0,0,1,0,0c3-.94,5-1.62,6-2,.62-.25,1.28-.67,1.25-.9a.08.08,0,0,1,0,0c7.13-2.86,7.1-3.11,7.06-3.51v0c6.76-3.38,6.73-3.65,6.69-4v0c6.26-3.83,6.22-4.13,6.18-4.54v0c5.33-4,5.29-4.31,5.24-4.73a.06.06,0,0,1,0,0c4.28-4,4.22-4.33,4.16-4.74v0c3.2-3.87,3.12-4.32,3.06-4.67v0C111.09,60,111,59.52,110.91,59.13Z" style="fill:#ffc98f"/><path d="M111.47,61.32v-.06c.94-2.8.94-3.72.81-4.25v0a14.22,14.22,0,0,0-.17-3.18,12.51,12.51,0,0,1,0,3.75c-.07,0,0-.39,0-.49a25.63,25.63,0,0,0,0-3.16h0a1.19,1.19,0,0,0,0-.22l0-.29L112,53l-.08-.33-.08-.29a6.58,6.58,0,0,1,.22,1.1c0-.07-.08-.38-.1-.46l-.22-1-.08-.29.25,1.11a4.69,4.69,0,0,0,.24,1.1h0s0,0,0-.07a13.49,13.49,0,0,1-.08,3,3.71,3.71,0,0,0,0,1,22.55,22.55,0,0,1-1,3.32c-.28.86-.15,1-.14,1-.38.76-.42.89-2,3.58-.43.8-.38,1.1-.37,1.13s0,0,0,0h0c-.9,1.22-1.9,2.38-2.85,3.57a2.44,2.44,0,0,0-.56,1.08.17.17,0,0,0,0,.1h0c-1.21,1.24-2.5,2.4-3.74,3.62a2.43,2.43,0,0,0-.74,1.06.12.12,0,0,0,0,.11h0c-1.51,1.24-3.09,2.38-4.62,3.59-.8.67-.91,1-.92,1.09s0,0,0,0c-1.74,1.16-3.58,2.27-5.33,3.41-.92.63-1,.93-1,1s0,0,0,.07h0c-1.88,1-3.82,1.93-5.7,2.94-1,.56-1.07.84-1.07.91s0,0,0,.06c-2,.86-4,1.63-6,2.49-.82.38-1,.62-1,.69A.17.17,0,0,0,75,93h0c-2,.7-4.09,1.29-6.11,2-.83.32-1,.53-1.07.59s0,.14,0,.18h0c-2,.54-4.1,1-6.14,1.48-.79.23-1,.41-1.05.48s0,.15,0,.19l0,0c-2,.35-4,.58-6.05.92-.8.15-1,.33-1,.37s-.05.12,0,.16h0c-1.94.16-3.89.21-5.84.34-.66.07-.89.18-1,.26s0,.13,0,.18l0,0c-1.84,0-3.67-.19-5.52-.28-.65,0-.83.09-.88.14s0,.18.18.27a.52.52,0,0,1-.18-.13c-1.22-.18-1.22-.18-5.08-.93a1.64,1.64,0,0,0-.73,0c-.09,0-.09.1,0,.17s0,0,0,0c-1.27-.38-2.94-1-4.18-1.46-.52-.06-.55.07-.52.15l-.23-.13A22.85,22.85,0,0,1,25,95l-.24-.18a1,1,0,0,0-.31-.18s0,0,0,0a4.16,4.16,0,0,0,1,1l.45.36c1,.68,2.38,1.55,3.45,2.14.5.25.82.29.83.18h0c5.6,2.16,6.5,1.92,6.41,1.67a.08.08,0,0,1,0,0c4.17.83,6.21,1,6.07.56,0,0,0,0,0,0,3.44.21,5,.19,5.36.18.7,0,1.24-.21,1.19-.4a0,0,0,0,1,0,0c4-.19,5.55-.4,5.71-.42.62-.09,1.24-.32,1.2-.53,0,0,0,0,0,0,1.08-.15,4.34-.62,5.92-1,.62-.14,1.27-.44,1.23-.66v0c3-.68,5-1.19,6-1.51.63-.2,1.27-.57,1.24-.79v0c3-.94,5-1.62,5.94-2,.61-.25,1.26-.67,1.23-.91l0,0c7-2.87,7-3.11,7-3.52v0c6.69-3.37,6.66-3.64,6.61-4a.08.08,0,0,1,0,0c6.18-3.84,6.14-4.14,6.09-4.55v0c5.27-4,5.23-4.32,5.18-4.74v0c4.22-4,4.16-4.32,4.1-4.74v0c3.17-3.87,3.09-4.31,3-4.67v0C111.65,62.21,111.55,61.72,111.47,61.32Z" style="fill:#ffc98f"/><path d="M111.9,63.36v0c.93-2.81.93-3.73.8-4.25v0h0a14.28,14.28,0,0,0-.17-3.19,12.47,12.47,0,0,1,0,3.75c-.06,0,0-.39,0-.49a25.61,25.61,0,0,0,0-3.16v0a1.08,1.08,0,0,0,0-.22l0-.29-.08-.4-.08-.33-.08-.3a6.2,6.2,0,0,1,.22,1.11c0-.07-.08-.39-.1-.47l-.21-1-.09-.29.25,1.1a4.51,4.51,0,0,0,.24,1.1h0s0,0,0-.06a13.41,13.41,0,0,1-.08,3,3.79,3.79,0,0,0,0,1.06,24.27,24.27,0,0,1-1,3.31c-.27.87-.14,1-.13,1-.37.76-.41.88-1.94,3.57-.42.8-.38,1.11-.37,1.14s0,0,0,0h0c-.89,1.23-1.86,2.38-2.8,3.57a2.37,2.37,0,0,0-.55,1.09.12.12,0,0,0,0,.09h0c-1.19,1.25-2.46,2.4-3.68,3.62a2.47,2.47,0,0,0-.73,1.06.16.16,0,0,0,0,.12h0c-1.49,1.24-3,2.39-4.56,3.6-.78.66-.89,1-.9,1.08s0,0,0,0c-1.71,1.16-3.53,2.26-5.25,3.4-.91.64-1,.93-1,1a.08.08,0,0,0,0,.07h0c-1.85,1-3.76,1.93-5.62,2.94-1,.56-1,.85-1,.92s0,0,0,.06c-1.93.86-4,1.62-5.9,2.48a2.65,2.65,0,0,0-1,.69c0,.09-.06.15,0,.19h0c-2,.71-4,1.3-6,2-.82.31-1,.53-1,.59s-.06.13,0,.18h0c-2,.53-4,1-6,1.47-.78.23-1,.42-1,.49s0,.14,0,.19l0,0c-2,.35-4,.59-6,.92-.79.16-1,.33-1,.38a.11.11,0,0,0,0,.16h0c-1.91.16-3.83.21-5.75.33-.65.07-.88.18-1,.26s0,.13,0,.19,0,0,0,0c-1.82,0-3.63-.19-5.44-.28-.65,0-.83.08-.87.14s0,.18.18.26a.57.57,0,0,1-.19-.13c-1.2-.18-1.2-.18-5-.93a1.75,1.75,0,0,0-.72,0c-.09,0-.09.1,0,.17h0c-1.25-.39-2.89-1-4.12-1.47-.51-.06-.54.07-.51.15l-.22-.12a22.75,22.75,0,0,1-4.41-2.82l-.23-.18c-.18-.12-.24-.16-.31-.17s0,0,0,0a4.23,4.23,0,0,0,1,1l.45.35c1,.68,2.34,1.56,3.39,2.15.5.25.81.29.82.17h0c5.51,2.16,6.4,1.91,6.31,1.66l0,0c4.11.82,6.12,1,6,.55v0c3.39.22,4.9.19,5.28.18.69,0,1.22-.2,1.17-.4a0,0,0,0,0,0,0c3.91-.19,5.47-.39,5.64-.42.6-.08,1.21-.31,1.17-.53a0,0,0,0,0,0,0c1.07-.16,4.28-.62,5.83-1,.62-.14,1.26-.44,1.22-.66a0,0,0,0,0,0,0c2.91-.68,4.9-1.19,5.9-1.52.62-.2,1.26-.56,1.22-.79a.1.1,0,0,1,0,0c2.91-.94,4.88-1.62,5.85-2,.61-.25,1.25-.67,1.22-.91l0,0c6.94-2.86,6.91-3.11,6.87-3.51v0c6.58-3.38,6.55-3.65,6.51-4.06v0c6.09-3.83,6.06-4.13,6-4.55v0c5.19-4,5.15-4.31,5.1-4.73v0c4.16-4,4.1-4.32,4-4.73v0c3.12-3.86,3-4.31,3-4.67v0C112.08,64.26,112,63.76,111.9,63.36Z" style="fill:#ffc98f"/><g style="mix-blend-mode:overlay"><path d="M109.07,44.37c3.59,8.17-1.95,19.94-15.88,30.73C73.33,90.48,43.91,98,27.5,92c-.09-.21-.18-.41-.26-.61,16.41,6.08,45.82-1.47,65.68-16.85,14-10.86,19.56-22.74,15.8-30.91l.35.79"/><path d="M27,91.76c-4.64-1.83-7.67-4.61-9.14-8l-.34-.8C19,86.44,22,89.28,26.74,91.15c.08.2.17.4.25.61"/></g><g style="mask:url(#mask)"><path d="M63.27,17.89c-22.05,0-39.93,15.69-39.93,35v0a8.66,8.66,0,0,0,4.48,7.28,69.34,69.34,0,0,0,35.45,9.53,69.33,69.33,0,0,0,35.44-9.53A8.62,8.62,0,0,0,103.19,53v0C103.19,33.58,85.32,17.89,63.27,17.89Z" style="fill:url(#linear-gradient)"/></g><path d="M112.19,62.63a49.51,49.51,0,0,1-.44,6.59c0,.35-.09.69-.15,1a49.06,49.06,0,0,1-7.44,19.47c-.21.33-.43.66-.65,1a50.08,50.08,0,0,1-17,15.43h0l-1.46.78a49.61,49.61,0,0,1-22.6,5.42c-.69,0-1.36,0-2,0a46.12,46.12,0,0,1-5-.45h0a49.51,49.51,0,0,1-25.13-11.36c-.52-.44-1-.89-1.54-1.37a48.19,48.19,0,0,1-5.88-6.48c-.26-.35-.52-.7-.77-1.06a49.13,49.13,0,0,1-6.31-11.9,48,48,0,0,0,10,2.5h0a41.62,41.62,0,0,0,5,.46c.68,0,1.35.05,2,.05a49.61,49.61,0,0,0,22.6-5.42l1.46-.78h0A50,50,0,0,0,73.84,61c.22-.31.44-.64.65-1A49.12,49.12,0,0,0,81.93,40.6c.06-.35.11-.69.16-1A51.13,51.13,0,0,0,82.52,33a49.72,49.72,0,0,0-3-17.06A49.72,49.72,0,0,1,112.19,62.63Z" style="fill:#878787;opacity:0.2;mix-blend-mode:multiply"/><path d="M112.19,62.63a49.51,49.51,0,0,1-.44,6.59c0,.35-.09.69-.15,1a49.06,49.06,0,0,1-7.44,19.47c-.21.33-.43.66-.65,1a50.08,50.08,0,0,1-17,15.43h0l-1.46.78a49.61,49.61,0,0,1-22.6,5.42c-.69,0-1.36,0-2,0a46.12,46.12,0,0,1-5-.45h0a49.51,49.51,0,0,1-25.13-11.36c-.52-.44-1-.89-1.54-1.37a48.47,48.47,0,0,1-5.86-6.45,49.26,49.26,0,0,0,22.94,9.59h0a43.75,43.75,0,0,0,5,.46c.68,0,1.36.05,2,.05a49.61,49.61,0,0,0,22.6-5.42L77,96.56h0a50,50,0,0,0,17-15.44l.65-1A49.19,49.19,0,0,0,102,60.68q.09-.52.15-1A49.83,49.83,0,0,0,92.5,23,49.58,49.58,0,0,1,112.19,62.63Z" style="fill:#878787;opacity:0.2;mix-blend-mode:multiply"/></g></g></svg>
