<svg class="S" xmlns="http://www.w3.org/2000/svg" xmlns:xlink="http://www.w3.org/1999/xlink" viewBox="0 0 126 126"><defs><radialGradient id="radial-gradient" cx="55.64" cy="370.35" r="9.41" gradientTransform="matrix(1, 0, 0, -1, 0, 420)" gradientUnits="userSpaceOnUse"><stop offset="0" stop-color="#efefef"/><stop offset="0.33" stop-color="#e0e0e2"/><stop offset="0.97" stop-color="#b7b7c0"/><stop offset="1" stop-color="#b5b5be"/></radialGradient><radialGradient id="radial-gradient-2" cx="64.15" cy="384.52" r="8" gradientTransform="matrix(1, 0, 0, -1, 0, 420)" gradientUnits="userSpaceOnUse"><stop offset="0" stop-color="#f7f7f7"/><stop offset="0.49" stop-color="#e1e1e4"/><stop offset="1" stop-color="#c6c6cc"/></radialGradient><radialGradient id="radial-gradient-3" cx="67.71" cy="317.49" r="6.79" xlink:href="#radial-gradient"/><radialGradient id="radial-gradient-4" cx="52.76" cy="317.91" r="7.41" xlink:href="#radial-gradient"/><radialGradient id="radial-gradient-5" cx="57.68" cy="397.01" r="7.54" gradientTransform="matrix(1, 0.06, 0.06, -1, -25.24, 415.47)" xlink:href="#radial-gradient-2"/><radialGradient id="radial-gradient-6" cx="73.56" cy="395.33" r="6.94" xlink:href="#radial-gradient-2"/><radialGradient id="radial-gradient-7" cx="86.83" cy="393.14" r="6.83" xlink:href="#radial-gradient-2"/><radialGradient id="radial-gradient-8" cx="105.64" cy="353.23" r="8.74" xlink:href="#radial-gradient"/><radialGradient id="radial-gradient-9" cx="81.92" cy="318.22" r="7.26" xlink:href="#radial-gradient"/><radialGradient id="radial-gradient-10" cx="60.18" cy="309.02" r="6.79" xlink:href="#radial-gradient"/><radialGradient id="radial-gradient-11" cx="20.16" cy="334.31" r="6.52" xlink:href="#radial-gradient"/><radialGradient id="radial-gradient-12" cx="23.68" cy="382.72" r="5.48" xlink:href="#radial-gradient"/><radialGradient id="radial-gradient-13" cx="65.94" cy="403.7" r="6.7" xlink:href="#radial-gradient"/><radialGradient id="radial-gradient-14" cx="78.78" cy="402.66" r="6.31" xlink:href="#radial-gradient"/><radialGradient id="radial-gradient-15" cx="98.24" cy="388.55" r="5.75" xlink:href="#radial-gradient"/><radialGradient id="radial-gradient-16" cx="110.55" cy="364.93" r="6.28" xlink:href="#radial-gradient"/><radialGradient id="radial-gradient-17" cx="108.88" cy="341" r="6.52" xlink:href="#radial-gradient"/><radialGradient id="radial-gradient-18" cx="93.94" cy="319.99" r="5.87" xlink:href="#radial-gradient"/><radialGradient id="radial-gradient-19" cx="72.62" cy="310.38" r="5.66" xlink:href="#radial-gradient"/><radialGradient id="radial-gradient-20" cx="47.12" cy="312.06" r="5.56" xlink:href="#radial-gradient"/><radialGradient id="radial-gradient-21" cx="27.58" cy="323.45" r="5.94" xlink:href="#radial-gradient"/><radialGradient id="radial-gradient-22" cx="15.05" cy="347.17" r="6.13" xlink:href="#radial-gradient"/><radialGradient id="radial-gradient-23" cx="16.77" cy="371.65" r="5.67" xlink:href="#radial-gradient"/><radialGradient id="radial-gradient-24" cx="31.93" cy="392.46" r="5.28" xlink:href="#radial-gradient"/><radialGradient id="radial-gradient-25" cx="51.61" cy="403.91" r="6.58" xlink:href="#radial-gradient"/><radialGradient id="radial-gradient-26" cx="91.22" cy="398.78" r="6.21" xlink:href="#radial-gradient"/><radialGradient id="radial-gradient-27" cx="99.79" cy="393.38" r="5.11" xlink:href="#radial-gradient"/><radialGradient id="radial-gradient-28" cx="71.26" cy="407.56" r="5.64" xlink:href="#radial-gradient"/><radialGradient id="radial-gradient-29" cx="60.18" cy="407.14" r="5.32" xlink:href="#radial-gradient"/><radialGradient id="radial-gradient-30" cx="40.24" cy="400.93" r="5.7" xlink:href="#radial-gradient"/><radialGradient id="radial-gradient-31" cx="39.1" cy="403.65" r="5.66" xlink:href="#radial-gradient"/><radialGradient id="radial-gradient-32" cx="50.18" cy="406.83" r="5.17" xlink:href="#radial-gradient"/><radialGradient id="radial-gradient-33" cx="30.34" cy="397.95" r="5.46" xlink:href="#radial-gradient"/><radialGradient id="radial-gradient-34" cx="83.69" cy="405.58" r="5.92" xlink:href="#radial-gradient"/><radialGradient id="radial-gradient-35" cx="106.53" cy="384.68" r="5.49" xlink:href="#radial-gradient"/><radialGradient id="radial-gradient-36" cx="111.45" cy="373.09" r="4.83" xlink:href="#radial-gradient"/><radialGradient id="radial-gradient-37" cx="113.84" cy="362.62" r="4.79" xlink:href="#radial-gradient"/><radialGradient id="radial-gradient-38" cx="111.26" cy="342.07" r="4.62" xlink:href="#radial-gradient"/><radialGradient id="radial-gradient-39" cx="107.16" cy="330.98" r="5.44" xlink:href="#radial-gradient"/><radialGradient id="radial-gradient-40" cx="100.62" cy="323.45" r="4.66" xlink:href="#radial-gradient"/><radialGradient id="radial-gradient-41" cx="93.83" cy="315.71" r="5.07" xlink:href="#radial-gradient"/><radialGradient id="radial-gradient-42" cx="74.91" cy="306.83" r="5.1" xlink:href="#radial-gradient"/><radialGradient id="radial-gradient-43" cx="63.63" cy="305.68" r="5.23" xlink:href="#radial-gradient"/><radialGradient id="radial-gradient-44" cx="52.66" cy="307.67" r="4.39" xlink:href="#radial-gradient"/><radialGradient id="radial-gradient-45" cx="42.73" cy="310.59" r="4.79" xlink:href="#radial-gradient"/><radialGradient id="radial-gradient-46" cx="35.83" cy="315.93" r="5.06" xlink:href="#radial-gradient"/><radialGradient id="radial-gradient-47" cx="33.54" cy="315.08" r="4.83" xlink:href="#radial-gradient"/><radialGradient id="radial-gradient-48" cx="26.01" cy="320.94" r="5.16" xlink:href="#radial-gradient"/><radialGradient id="radial-gradient-49" cx="19.02" cy="328.25" r="5.81" xlink:href="#radial-gradient"/><radialGradient id="radial-gradient-50" cx="15.46" cy="339.23" r="4.46" xlink:href="#radial-gradient"/><radialGradient id="radial-gradient-51" cx="13.45" cy="358.92" r="4.92" xlink:href="#radial-gradient"/><radialGradient id="radial-gradient-52" cx="12.42" cy="368.96" r="5.12" xlink:href="#radial-gradient"/><radialGradient id="radial-gradient-53" cx="16.06" cy="379.46" r="5.84" xlink:href="#radial-gradient"/><radialGradient id="radial-gradient-54" cx="23.23" cy="389.25" r="4.82" xlink:href="#radial-gradient"/><radialGradient id="radial-gradient-55" cx="11.39" cy="358.92" r="4.11" xlink:href="#radial-gradient"/><radialGradient id="radial-gradient-56" cx="11.91" cy="349.58" r="5.02" xlink:href="#radial-gradient"/><radialGradient id="radial-gradient-57" cx="85.57" cy="310.49" r="4.59" gradientTransform="matrix(0.91, 0.41, 0.41, -0.91, -121.87, 357.64)" xlink:href="#radial-gradient"/><radialGradient id="radial-gradient-58" cx="113.91" cy="351.33" r="4.27" xlink:href="#radial-gradient"/><radialGradient id="radial-gradient-59" cx="112.75" cy="352.49" r="6.27" xlink:href="#radial-gradient"/><radialGradient id="radial-gradient-60" cx="83.69" cy="313" r="4.78" xlink:href="#radial-gradient"/><radialGradient id="radial-gradient-61" cx="107.73" cy="378.09" r="7.53" xlink:href="#radial-gradient"/><radialGradient id="radial-gradient-62" cx="101.04" cy="330.03" r="5.77" xlink:href="#radial-gradient"/><radialGradient id="radial-gradient-63" cx="39.34" cy="320.84" r="6.62" xlink:href="#radial-gradient"/><radialGradient id="radial-gradient-64" cx="20.1" cy="358.92" r="6.36" gradientTransform="matrix(1, 0.01, 0.01, -1, -4.07, 419.71)" xlink:href="#radial-gradient-2"/><radialGradient id="radial-gradient-65" cx="43.05" cy="394.6" r="6.14" xlink:href="#radial-gradient-2"/><radialGradient id="radial-gradient-66" cx="99.58" cy="339.85" r="8.61" xlink:href="#radial-gradient"/><radialGradient id="radial-gradient-67" cx="90.59" cy="327.31" r="8.83" xlink:href="#radial-gradient"/><radialGradient id="radial-gradient-68" cx="95.18" cy="380.49" r="6.3" xlink:href="#radial-gradient-2"/><radialGradient id="radial-gradient-69" cx="102.08" cy="366.29" r="6.28" xlink:href="#radial-gradient-2"/><radialGradient id="radial-gradient-70" cx="31.76" cy="332.54" r="5.32" xlink:href="#radial-gradient"/><radialGradient id="radial-gradient-71" cx="24.24" cy="345.49" r="5.58" xlink:href="#radial-gradient-2"/><radialGradient id="radial-gradient-72" cx="25.73" cy="371.65" r="6.03" xlink:href="#radial-gradient-2"/><radialGradient id="radial-gradient-73" cx="34.27" cy="384.64" r="6.74" xlink:href="#radial-gradient-2"/><radialGradient id="radial-gradient-74" cx="81.71" cy="384.63" r="7.92" xlink:href="#radial-gradient-2"/><radialGradient id="radial-gradient-75" cx="48.32" cy="385.73" r="7.99" xlink:href="#radial-gradient-2"/><radialGradient id="radial-gradient-76" cx="30.54" cy="358.66" r="7.78" xlink:href="#radial-gradient-2"/><radialGradient id="radial-gradient-77" cx="95.88" cy="353.86" r="8.68" xlink:href="#radial-gradient-2"/><radialGradient id="radial-gradient-78" cx="44.68" cy="329.58" r="9.02" xlink:href="#radial-gradient"/><radialGradient id="radial-gradient-79" cx="77.79" cy="325.32" r="10.14" xlink:href="#radial-gradient"/><radialGradient id="radial-gradient-80" cx="61.23" cy="327.12" r="10.67" xlink:href="#radial-gradient-2"/><radialGradient id="radial-gradient-81" cx="36.68" cy="342.91" r="11.14" xlink:href="#radial-gradient"/><radialGradient id="radial-gradient-82" cx="39.23" cy="372.71" r="7.49" xlink:href="#radial-gradient-2"/><radialGradient id="radial-gradient-83" cx="87.37" cy="337.79" r="9.98" xlink:href="#radial-gradient-2"/><radialGradient id="radial-gradient-84" cx="88.78" cy="370.33" r="9.57" xlink:href="#radial-gradient-2"/><radialGradient id="radial-gradient-85" cx="72.59" cy="370.44" r="7.33" xlink:href="#radial-gradient-2"/><radialGradient id="radial-gradient-86" cx="62.41" cy="356.98" r="9.68" xlink:href="#radial-gradient"/><radialGradient id="radial-gradient-87" cx="79.11" cy="355.88" r="6.96" xlink:href="#radial-gradient-2"/><radialGradient id="radial-gradient-88" cx="70.29" cy="341.62" r="8.08" xlink:href="#radial-gradient-2"/><radialGradient id="radial-gradient-89" cx="53.55" cy="342.03" r="8.42" xlink:href="#radial-gradient-2"/><radialGradient id="radial-gradient-90" cx="46.92" cy="357.67" r="7.22" xlink:href="#radial-gradient-2"/></defs><g id="Layer_2" data-name="Layer 2"><circle cx="63" cy="63" r="50" style="fill:#606060"/><circle cx="63" cy="63" r="48.85" style="fill:#d9dbe0"/><ellipse cx="55.37" cy="49.08" rx="6.06" ry="6.09" style="fill:url(#radial-gradient)"/><ellipse cx="63.79" cy="37.69" rx="6.06" ry="5.78" style="fill:url(#radial-gradient-2)"/><ellipse cx="67.52" cy="98.81" rx="5.74" ry="3.95" style="fill:url(#radial-gradient-3)"/><path d="M59.32,99.42c-.48,2.19-3.39,3.4-6.48,2.71s-5.21-3-4.73-5.21,3.39-3.41,6.48-2.72S59.81,97.23,59.32,99.42Z" style="fill:url(#radial-gradient-4)"/><ellipse cx="57.53" cy="27.01" rx="5.74" ry="3.9" transform="translate(-1.62 3.77) rotate(-3.7)" style="fill:url(#radial-gradient-5)"/><path d="M67,26.7c.61-2.13,3.59-3.13,6.63-2.24s5,3.34,4.39,5.47-3.59,3.13-6.63,2.24S66.38,28.83,67,26.7Z" style="fill:url(#radial-gradient-6)"/><path d="M80,27.34c1.08-1.73,4.12-1.74,6.81,0s4,4.47,2.88,6.18-4.14,1.75-6.81,0S78.9,29.06,80,27.34Z" style="fill:url(#radial-gradient-7)"/><path d="M101.79,60.55c1.92.16,3.24,2.88,3,6s-2,5.63-3.83,5.49-3.24-2.88-3-6S99.88,60.41,101.79,60.55Z" style="fill:url(#radial-gradient-8)"/><path d="M85.43,95.81c.89,1.73-.66,4.32-3.47,5.75s-5.82,1.26-6.71-.49.65-4.32,3.46-5.75S84.53,94.07,85.43,95.81Z" style="fill:url(#radial-gradient-9)"/><path d="M65.7,106.19c0,1.39-2.48,2.53-5.54,2.54s-5.55-1.11-5.56-2.5,2.46-2.53,5.53-2.55S65.69,104.78,65.7,106.19Z" style="fill:url(#radial-gradient-10)"/><path d="M27.14,87.68c-1.18.69-3.33-.81-4.79-3.36s-1.74-5.19-.53-5.9,3.34.81,4.8,3.35S28.33,87,27.14,87.68Z" style="fill:url(#radial-gradient-11)"/><path d="M23.74,43.43c-1.06-.79-.51-3.35,1.24-5.75S29,34,30.05,34.8s.51,3.34-1.23,5.75S24.78,44.23,23.74,43.43Z" style="fill:url(#radial-gradient-12)"/><path d="M60.53,20.46c.1-1.36,2.56-2.3,5.48-2.1s5.23,1.48,5.12,2.87-2.54,2.32-5.47,2.11S60.44,21.82,60.53,20.46Z" style="fill:url(#radial-gradient-13)"/><path d="M72.47,19.9c.45-1.23,3-1.42,5.7-.42s4.52,2.79,4.06,4-3,1.42-5.7.43S72,21.16,72.47,19.9Z" style="fill:url(#radial-gradient-14)"/><path d="M92.31,30.06c1-.8,3.26.36,5.06,2.61s2.47,4.69,1.48,5.5-3.25-.37-5.06-2.6S91.33,30.87,92.31,30.06Z" style="fill:url(#radial-gradient-15)"/><path d="M105.19,50.86c1.21-.2,2.57,1.91,3,4.79s-.14,5.3-1.36,5.5-2.57-1.92-3-4.8S104,51.07,105.19,50.86Z" style="fill:url(#radial-gradient-16)"/><path d="M105.65,72.83c1.18.41,1.4,2.94.48,5.66s-2.63,4.61-3.84,4.2-1.41-2.92-.49-5.66S104.45,72.43,105.65,72.83Z" style="fill:url(#radial-gradient-17)"/><path d="M94.72,93.57c.82.89-.24,3.2-2.37,5.13s-4.51,2.79-5.32,1.92.24-3.18,2.36-5.13S93.93,92.67,94.72,93.57Z" style="fill:url(#radial-gradient-18)"/><path d="M76.85,104.75c.29,1.21-1.64,2.72-4.32,3.37s-5.09.2-5.38-1,1.63-2.73,4.32-3.39S76.55,103.53,76.85,104.75Z" style="fill:url(#radial-gradient-19)"/><path d="M53.26,106.4c-.42,1.13-2.95,1.24-5.65.23s-4.53-2.75-4.1-3.89,2.94-1.25,5.65-.24S53.7,105.27,53.26,106.4Z" style="fill:url(#radial-gradient-20)"/><path d="M34.64,96.1c-.74.88-3.12.08-5.31-1.78S26,90.24,26.71,89.37s3.12-.09,5.32,1.77S35.39,95.22,34.64,96.1Z" style="fill:url(#radial-gradient-21)"/><path d="M20.41,77.12c-1.17.23-2.59-1.86-3.15-4.68s-.06-5.3,1.13-5.53,2.59,1.86,3.15,4.68S21.6,76.88,20.41,77.12Z" style="fill:url(#radial-gradient-22)"/><path d="M18.67,55c-1.05-.36-1.15-2.88-.2-5.57s2.55-4.63,3.61-4.26,1.15,2.88.21,5.58S19.73,55.32,18.67,55Z" style="fill:url(#radial-gradient-23)"/><path d="M30.16,33.24c-.81-1,.29-3.23,2.48-5.1s4.59-2.65,5.41-1.7-.29,3.23-2.47,5.12S31,34.18,30.16,33.24Z" style="fill:url(#radial-gradient-24)"/><path d="M47.81,21.93c-.31-1.23,1.71-2.81,4.5-3.48s5.31-.23,5.62,1-1.71,2.81-4.51,3.5S48.11,23.19,47.81,21.93Z" style="fill:url(#radial-gradient-25)"/><path d="M84.17,22.15c.55-.83,3-.22,5.33,1.36s3.91,3.53,3.36,4.37-2.93.23-5.34-1.35S83.63,23,84.17,22.15Z" style="fill:url(#radial-gradient-26)"/><path d="M93.48,26.06c.41-.39,2.19.81,4,2.68s2.87,3.7,2.45,4.1-2.18-.79-4-2.67S93.05,26.46,93.48,26.06Z" style="fill:url(#radial-gradient-27)"/><path d="M66.39,16.14c.11-.76,2.28-1.08,4.79-.69s4.53,1.3,4.41,2.08-2.27,1.09-4.79.71S66.27,16.92,66.39,16.14Z" style="fill:url(#radial-gradient-28)"/><path d="M55.91,16.7c0-.78,2.05-1.54,4.67-1.67s4.8.38,4.8,1.18-2,1.53-4.67,1.68S56,17.49,55.91,16.7Z" style="fill:url(#radial-gradient-29)"/><path d="M37.51,25c-.44-.88,1.26-2.65,3.84-3.94s5-1.61,5.43-.71-1.24,2.66-3.84,4S38,25.91,37.51,25Z" style="fill:url(#radial-gradient-30)"/><path d="M37.07,22.09c-.1-.21,1.69-1.33,4-2.5s4.28-1.91,4.39-1.74-1.68,1.32-4,2.49S37.17,22.3,37.07,22.09Z" style="fill:url(#radial-gradient-31)"/><path d="M46.27,18.31c-.14-.56,1.78-1.56,4.32-2.25s4.71-.79,4.86-.24-1.77,1.57-4.32,2.26S46.42,18.87,46.27,18.31Z" style="fill:url(#radial-gradient-32)"/><path d="M29.66,28.53c-.32-.41,1.1-2.05,3.17-3.65s4-2.55,4.34-2.1-1.11,2-3.18,3.66S30,29,29.66,28.53Z" style="fill:url(#radial-gradient-33)"/><path d="M77.24,17.25c.19-.45,2.27,0,4.64,1s4.13,2.2,3.94,2.66-2.27,0-4.64-1S77,17.71,77.24,17.25Z" style="fill:url(#radial-gradient-34)"/><path d="M100.07,34.14c.66-.44,2.36,1,3.84,3.06s2.1,4.21,1.44,4.66-2.36-1-3.84-3.06S99.42,34.59,100.07,34.14Z" style="fill:url(#radial-gradient-35)"/><path d="M106.23,43.43c.72-.23,1.92,1.56,2.75,4s.87,4.62.14,4.86-1.92-1.56-2.75-4S105.53,43.67,106.23,43.43Z" style="fill:url(#radial-gradient-36)"/><path d="M109.74,53.47c.58,0,1.27,2,1.52,4.55s0,4.69-.59,4.8-1.25-2-1.56-4.55S109.16,53.54,109.74,53.47Z" style="fill:url(#radial-gradient-37)"/><path d="M109.49,72.54c.49.15.35,2.27-.33,4.8s-1.64,4.39-2.15,4.25-.36-2.26.33-4.8S109,72.4,109.49,72.54Z" style="fill:url(#radial-gradient-38)"/><path d="M106.23,82.39c.58.36,0,2.42-1.43,4.61s-2.94,3.66-3.53,3.29,0-2.43,1.42-4.62S105.62,82,106.23,82.39Z" style="fill:url(#radial-gradient-39)"/><path d="M101.18,91.12c.51.45-.46,2.38-2.18,4.3s-3.51,3.12-4,2.66.45-2.4,2.17-4.32S100.66,90.66,101.18,91.12Z" style="fill:url(#radial-gradient-40)"/><path d="M95.09,98.7c.3.43-1.12,1.92-3.18,3.44s-4,2.34-4.27,1.92,1.12-1.92,3.18-3.45S94.78,98.28,95.09,98.7Z" style="fill:url(#radial-gradient-41)"/><path d="M78.42,108.35c.12.5-1.78,1.39-4.24,2s-4.56.66-4.69.14,1.78-1.39,4.24-2S78.26,107.84,78.42,108.35Z" style="fill:url(#radial-gradient-42)"/><path d="M68.16,110.5c0,.57-2,1-4.58,1S59,111.05,59,110.46s2-1,4.59-1S68.16,109.92,68.16,110.5Z" style="fill:url(#radial-gradient-43)"/><path d="M58.08,110.55c-.14.56-2.24.53-4.7-.08s-4.35-1.53-4.2-2.1,2.23-.53,4.71.07S58.21,110,58.08,110.55Z" style="fill:url(#radial-gradient-44)"/><path d="M48.17,108.52c-.2.45-2.24,0-4.55-1.09s-4-2.28-3.78-2.74,2.25,0,4.56,1.07S48.39,108.06,48.17,108.52Z" style="fill:url(#radial-gradient-45)"/><path d="M42.05,103.36c-.4.66-2.65,0-5-1.39s-3.9-3.14-3.49-3.83,2.64-.09,5,1.38S42.46,102.65,42.05,103.36Z" style="fill:url(#radial-gradient-46)"/><path d="M39.35,104.86c-.18.27-2-.67-4.1-2.09s-3.63-2.79-3.44-3.06,2,.66,4.11,2.09S39.54,104.59,39.35,104.86Z" style="fill:url(#radial-gradient-47)"/><path d="M32.13,99.18c-.28.29-2-.9-3.78-2.67s-3.05-3.43-2.76-3.71,2,.91,3.79,2.67S32.37,98.9,32.13,99.18Z" style="fill:url(#radial-gradient-48)"/><path d="M25.75,92.3c-.44.29-1.92-1.17-3.34-3.28s-2.16-4-1.71-4.34S22.62,85.84,24,88,26.2,92,25.75,92.3Z" style="fill:url(#radial-gradient-49)"/><path d="M20.49,84c-.52.21-1.72-1.51-2.68-3.84s-1.3-4.42-.79-4.59,1.73,1.5,2.69,3.83S21,83.75,20.49,84Z" style="fill:url(#radial-gradient-50)"/><path d="M16.79,65.94c-.8,0-1.38-2.26-1.25-5s.9-4.88,1.73-4.8,1.39,2.27,1.27,5S17.63,66,16.79,65.94Z" style="fill:url(#radial-gradient-51)"/><path d="M15.32,56.62c-.38-.09-.21-2.14.4-4.58s1.39-4.32,1.78-4.24.21,2.14-.39,4.59S15.7,56.73,15.32,56.62Z" style="fill:url(#radial-gradient-52)"/><path d="M18.4,46.76c-.58-.27-.09-2.53,1.12-5s2.64-4.28,3.24-4,.11,2.55-1.09,5.06S19,47,18.4,46.76Z" style="fill:url(#radial-gradient-53)"/><path d="M23.34,37.05c-.49-.36.47-2.43,2.14-4.61s3.43-3.63,3.92-3.25-.46,2.44-2.14,4.63S23.82,37.45,23.34,37.05Z" style="fill:url(#radial-gradient-54)"/><path d="M14.55,65.34c-.21,0-.33-1.85-.24-4.13s.32-4.11.55-4.11.32,1.86.24,4.14S14.77,65.36,14.55,65.34Z" style="fill:url(#radial-gradient-55)"/><path d="M16.5,75.2c-.27,0-.81-1.92-1.18-4.45s-.47-4.55-.2-4.59.81,1.91,1.19,4.45S16.77,75.16,16.5,75.2Z" style="fill:url(#radial-gradient-56)"/><ellipse cx="83.41" cy="106.74" rx="4.59" ry="0.34" transform="translate(-36.62 43.95) rotate(-24.38)" style="fill:url(#radial-gradient-57)"/><path d="M111.34,63.91c.3,0,.32,2,0,4.37s-.74,4.27-1.06,4.24-.34-2-.06-4.37S111,63.86,111.34,63.91Z" style="fill:url(#radial-gradient-58)"/><path d="M108.34,62.18c1,.08,1.71,2.48,1.48,5.34s-1.24,5.12-2.28,5-1.71-2.46-1.49-5.33S107.3,62.11,108.34,62.18Z" style="fill:url(#radial-gradient-59)"/><path d="M87.05,102.22c.37.8-1.42,2.45-4,3.68s-5,1.59-5.38.79,1.41-2.44,4-3.68S86.65,101.44,87.05,102.22Z" style="fill:url(#radial-gradient-60)"/><path d="M99.52,40.05c1.26-.64,3.36,1,4.67,3.63s1.34,5.3.07,5.93-3.36-1-4.67-3.63S98.29,40.73,99.52,40.05Z" style="fill:url(#radial-gradient-61)"/><path d="M100.59,83.21c1.15.78.77,3.4-.85,5.84s-3.84,3.84-5,3-.77-3.39.86-5.85S99.43,82.46,100.59,83.21Z" style="fill:url(#radial-gradient-62)"/><path d="M36.49,93c1-1.62,4-1.59,6.59.07s3.92,4.33,2.87,6-4,1.6-6.59-.07S35.47,94.66,36.49,93Z" style="fill:url(#radial-gradient-63)"/><ellipse cx="22.85" cy="61.11" rx="3.42" ry="5.66" transform="matrix(1, -0.01, 0.01, 1, -0.69, 0.26)" style="fill:url(#radial-gradient-64)"/><path d="M49.88,25.55c.84,1.66-.71,4.15-3.48,5.58s-5.7,1.24-6.55-.43.71-4.15,3.49-5.58S49,23.89,49.88,25.55Z" style="fill:url(#radial-gradient-65)"/><path d="M98.77,73.22c1.92,1.12,2.2,4.26.6,7s-4.45,4.07-6.36,3-2.2-4.27-.6-7S96.85,72.09,98.77,73.22Z" style="fill:url(#radial-gradient-66)"/><path d="M92.39,85.2C93.81,87,93,90,90.47,92s-5.63,2.16-7,.39-.56-4.8,1.92-6.83S91,83.41,92.39,85.2Z" style="fill:url(#radial-gradient-67)"/><path d="M89.35,36.84c1.92-1.13,4.72.15,6.36,2.88s1.45,5.85-.42,7-4.72-.15-6.36-2.88S87.48,38,89.35,36.84Z" style="fill:url(#radial-gradient-68)"/><path d="M96.8,48.46c2.18-.4,4.41,1.82,5,5s-.76,6-2.93,6.39-4.41-1.83-5-5S94.62,48.85,96.8,48.46Z" style="fill:url(#radial-gradient-69)"/><path d="M37.81,89.93c-1.63,1.45-4.66.71-6.77-1.68s-2.51-5.49-.85-7S34.86,80.58,37,83,39.44,88.47,37.81,89.93Z" style="fill:url(#radial-gradient-70)"/><path d="M29,78.85c-2,.66-4.5-1.25-5.48-4.28s-.1-6,1.92-6.72,4.51,1.25,5.48,4.28S31.06,78.18,29,78.85Z" style="fill:url(#radial-gradient-71)"/><path d="M26.26,54.79c-2-.73-2.81-3.75-1.74-6.72s3.56-4.79,5.6-4.11,2.81,3.75,1.74,6.71S28.28,55.52,26.26,54.79Z" style="fill:url(#radial-gradient-72)"/><path d="M32.48,41.79c-1.5-1.58-.86-4.63,1.45-6.84s5.37-2.69,6.86-1.11.85,4.63-1.45,6.83S34,43.37,32.48,41.79Z" style="fill:url(#radial-gradient-73)"/><path d="M84.46,42.33c-1.54,2.17-5,2.37-7.68.43s-3.71-5.29-2.2-7.51,5-2.37,7.67-.42S86,40.15,84.46,42.33Z" style="fill:url(#radial-gradient-74)"/><path d="M54.93,34.6c1.08,2.44-.52,5.52-3.58,6.87S45,42,43.88,39.52s.53-5.52,3.58-6.88S53.85,32.16,54.93,34.6Z" style="fill:url(#radial-gradient-75)"/><ellipse cx="33.57" cy="61.6" rx="4.82" ry="6.07" style="fill:url(#radial-gradient-76)"/><ellipse cx="91.26" cy="65.23" rx="4.82" ry="6.07" style="fill:url(#radial-gradient-77)"/><path d="M51.78,91.23c-1.68,2.07-5.14,2-7.73-.07s-3.32-5.51-1.65-7.57,5.14-2,7.73.07S53.47,89.16,51.78,91.23Z" style="fill:url(#radial-gradient-78)"/><path d="M80.71,86.68c1.27,2.34-.07,5.56-3,7.16s-6.34,1-7.6-1.33.07-5.55,3-7.16S79.43,84.34,80.71,86.68Z" style="fill:url(#radial-gradient-79)"/><ellipse cx="60.99" cy="88.22" rx="6.06" ry="5.78" style="fill:url(#radial-gradient-80)"/><path d="M43,79.59a6.09,6.09,0,0,1-7.33-9.7,5.9,5.9,0,0,1,8.24,1.34v0A6,6,0,0,1,43,79.59Z" style="fill:url(#radial-gradient-81)"/><path d="M44.07,44a6,6,0,0,1,1.17,8.32A5.88,5.88,0,0,1,37.06,54l0,0a6.09,6.09,0,0,1,7-9.91Z" style="fill:url(#radial-gradient-82)"/><path d="M80.33,82.86a5.9,5.9,0,0,0,8.24-1.33l0,0a6,6,0,0,0-1-8.35,5.89,5.89,0,0,0-8.23,1.33l0,0A6,6,0,0,0,80.33,82.86Z" style="fill:url(#radial-gradient-83)"/><path d="M82.25,46.89a6,6,0,0,0-1.17,8.32,5.91,5.91,0,0,0,8.19,1.62l0,0a6.09,6.09,0,0,0-7-9.92Z" style="fill:url(#radial-gradient-84)"/><ellipse cx="71.65" cy="49.72" rx="6.06" ry="6.09" style="fill:url(#radial-gradient-85)"/><ellipse cx="62.71" cy="62.55" rx="6.06" ry="6.09" style="fill:url(#radial-gradient-86)"/><ellipse cx="78.03" cy="63.83" rx="6.06" ry="6.09" style="fill:url(#radial-gradient-87)"/><ellipse cx="69.42" cy="76.33" rx="6.06" ry="6.09" style="fill:url(#radial-gradient-88)"/><ellipse cx="54.1" cy="75.37" rx="6.06" ry="6.09" style="fill:url(#radial-gradient-89)"/><ellipse cx="47.08" cy="61.91" rx="6.06" ry="6.09" style="fill:url(#radial-gradient-90)"/></g></svg>
