<svg class="S" xmlns="http://www.w3.org/2000/svg" viewBox="0 0 126 126"><path d="M116.11,62.27a3.26,3.26,0,0,0-2.39-1.09,3.45,3.45,0,0,0-.63.06c-.78,0-2,.73-4.85,2.84h0a1.64,1.64,0,0,0-.56.09l-.6.23,0,.1a3.93,3.93,0,0,0-.74.47l-.33.28a3.23,3.23,0,0,1-.38.32,5.49,5.49,0,0,0-.73.61l-.06.07a3.08,3.08,0,0,0-.64.7l-.11.16-.26.23-.3.26a1.72,1.72,0,0,0-.43.16,5.54,5.54,0,0,0-.62.44,4.12,4.12,0,0,1-.37.27l-.09,0a4,4,0,0,0-.37.21,1.42,1.42,0,0,0-.46.43,4.3,4.3,0,0,0-1.1,1l-.24.28-.08,0-.2.08a2.7,2.7,0,0,0-1.21.83l-.08.07a2.56,2.56,0,0,0-.35.33,1.62,1.62,0,0,0-1,.51,4.25,4.25,0,0,0-.39.5,2,2,0,0,0-1,.6,2.18,2.18,0,0,0-1.11.68,1.67,1.67,0,0,0-.49.34,2.08,2.08,0,0,0-.46.71l-2.15-2.52h0L90,71.13l-.16-.19h0l-.06-.07-.31-.36-1.1-1.31h0L40.92,13.61H38.17l-1.83,3S65.85,54.37,80.92,72.88h0l1.48,1.81h0l.81,1,.15.18h0l3.47,4.2h0a57.85,57.85,0,0,0,5.23,5.82c.17.11.34.21.53.31l.1.12.33.07a8.58,8.58,0,0,0,1,.31,2.73,2.73,0,0,0,.83.58,2.05,2.05,0,0,0,.88.19,2.76,2.76,0,0,0,.85-.15,2.38,2.38,0,0,0,.39,0c.17,0,.34,0,.48,0h.43a1.88,1.88,0,0,0,.87-.19L99,87h.22a3.67,3.67,0,0,0,.52,0l.15,0h0a2,2,0,0,0,.49,0,2.52,2.52,0,0,0,.73-.1,4.07,4.07,0,0,0,.69-.35H102a2.72,2.72,0,0,0,1-.2,2.18,2.18,0,0,0,.42,0h.25A2.44,2.44,0,0,0,105,86h.39a5.34,5.34,0,0,0,1.92-.41,6.33,6.33,0,0,0,1.11-.57l.4-.24a1.33,1.33,0,0,0,.5-.47c.3-.15.61-.29.9-.45l.09,0a14.17,14.17,0,0,0,3.82-2.7c.17-.18.32-.37.47-.56a12.61,12.61,0,0,0,3.33-7.82C118.26,67.37,117.68,64,116.11,62.27Z"/><path d="M38.86,14.83h1.5L94,77.71l19.19-15.24s4.27-1.61,3.46,10.17S100,86.57,93.37,85.2Z" style="fill:#005ca0"/><path d="M38.86,14.83s50.9,61.83,52.86,62.41,20-15.23,21.5-14.77,4.26,13.29,0,17.79-17.1,6.92-20.45,4.61S37.82,16.56,37.82,16.56Z" style="fill:#0071bb"/><path d="M108,83.45a.34.34,0,0,0-.09-.15,1.66,1.66,0,0,1-.26-.45,6.11,6.11,0,0,0-.42-.85l0,0-.06-.22a.53.53,0,0,0-.09-.23,9.51,9.51,0,0,1-.41-2.65,10.72,10.72,0,0,0,0-2.83c.13-1.25,0-2.55.15-3.78.1-.8.19-1.56.23-2.33a1.75,1.75,0,0,0,.18-.63c0-.42.24-.82.24-1.22a9.64,9.64,0,0,1,.24-1.19,3.35,3.35,0,0,1,.27-.92c0-.1.09-.16.06-.27s0-.08-.08-.08h-.11a.14.14,0,0,0-.09,0,.58.58,0,0,0-.12.1h0a.6.6,0,0,1-.08.08c-.19.13-.38.26-.59.38a4.84,4.84,0,0,0-1.26,1.17.13.13,0,0,0,0,.05,2.69,2.69,0,0,0-.27.32c-.34.35-.66.71-1,1.06A6.36,6.36,0,0,0,102,70.21c-.23.23-.65.52-.89.75s-.52.7-1,.8c-.71.16-1,1.1-1.26,1.23l-.14.09a1.16,1.16,0,0,0-1.12.64,1,1,0,0,1-.42.35.57.57,0,0,0-.45.18l-.07.07a.39.39,0,0,0-.08.1l0,.07a3.23,3.23,0,0,0-1.71,1,3.42,3.42,0,0,0-.29,2.19.66.66,0,0,0-.06.26V78a32.43,32.43,0,0,0-.24,4.84,4.75,4.75,0,0,0,.71,2.63,1.34,1.34,0,0,0,1.59.39,2,2,0,0,0,1.12,0c.27-.07.64,0,.85-.27a.16.16,0,0,1,.08-.06.61.61,0,0,0,.39.13,1.67,1.67,0,0,0,.91-.23.56.56,0,0,0,.38.14h0a.67.67,0,0,0,.26,0,4.56,4.56,0,0,0,.61-.27,1.17,1.17,0,0,0,.48-.37l.13,0a1.23,1.23,0,0,0,.94,0,.62.62,0,0,0,.17-.11l.25.06a1.46,1.46,0,0,0,1,0,1.38,1.38,0,0,0,.42-.48,2.79,2.79,0,0,0,.39.1,2.19,2.19,0,0,0,1.34,0,10.44,10.44,0,0,1,1-.44.64.64,0,0,0,.3-.18,1,1,0,0,0,.36-.19A.13.13,0,0,0,108,83.45Z" style="fill:#bebebe"/><path d="M95.05,77.49s-.57,6.5,0,7.56,1.13-.24,1.13-.24a4.72,4.72,0,0,0,2.36-.12.86.86,0,0,0,.94.24s1.87,0,2.15-.48c0,0,.61.12.69-.45a2.16,2.16,0,0,0,1.87.08s2.48-.16,3-1c0,0-2.76-1.34-.27-15.24,0,0-2.61,8-3.22,10.2,0,0,.25-5.45,1.22-7.56a12.4,12.4,0,0,0-3.21,5.4,3.54,3.54,0,0,0-1.67,3l-.4-2.74-1.06,4a13.84,13.84,0,0,1-.08-3.48s-1.47,3.8-2.24,3.88A4.54,4.54,0,0,1,95.05,77.49Z" style="fill:#a5a5a5"/><path d="M94.93,79.19s-1,5.54.83,5.35c0,0,2.31.31,2.86-.3V80.32a8.1,8.1,0,0,1-.21-2.44s-1,3.65-2.31,3.23C96.11,81.11,94.86,82.12,94.93,79.19Z" style="fill:#8b8b8b"/><path d="M99.42,84.36s0-3.86.66-5.5c0,0,.78,3.61,1.39,5.51C101.47,84.37,99.72,84.93,99.42,84.36Z" style="fill:#8b8b8b"/><path d="M102.2,82.86s.27,1.12,1.65.53c0,0,1.72.25,2.35-.77,0,0-1.17-7.86.11-10.83,0,0-2.38,7.43-2.52,8.45a26,26,0,0,1,.19-5.42A19.43,19.43,0,0,0,102.2,82.86Z" style="fill:#8b8b8b"/><path d="M108.07,65.31h0a9.19,9.19,0,0,0-1,.59c-.28.23-.51.47-.8.67a4.22,4.22,0,0,0-.56.47l-.11.13h0c-.28.17-.45.58-.69.8s-.55.46-.78.72a3,3,0,0,0-.44.11c-.35.2-.65.52-1,.72a2.93,2.93,0,0,0-.43.23s-.1.09-.16.2h0c-.08,0-.14.14-.23.19a3.15,3.15,0,0,0-.84.75c-.14.18-.31.36-.48.55l-.3.12a2,2,0,0,0-1,.57c-.16.2-.49.37-.58.63v0h0a.75.75,0,0,0-.2.1c-.18.09-.56,0-.69.18a3.82,3.82,0,0,0-.44.6c-.06,0,0,.07-.11.11s-.68.19-.8.39-.07.12-.1.19-.06.07-.12.11a3.06,3.06,0,0,1-.44.09,1,1,0,0,0-.53.37c-.16.2-.33.17-.48.32a1,1,0,0,0-.25.56,11.34,11.34,0,0,0-.22,2c0,.36-.19.7-.19,1a8.37,8.37,0,0,0,0,1.12,24.3,24.3,0,0,1,0,2.7,8.55,8.55,0,0,0,.3,2.07,1.82,1.82,0,0,0,1,1.39c.43.19.79,0,1.19-.1h0a4.27,4.27,0,0,0,1.13,0,1.08,1.08,0,0,0,.47,0,1.66,1.66,0,0,1,.69-.31,3,3,0,0,0,1,0,.12.12,0,0,0,.08,0,1.34,1.34,0,0,0,.84,0c.06,0,.68-.39.85-.51.32.26.91.06,1.28-.15a1.43,1.43,0,0,0,.73.1,1.38,1.38,0,0,0,.94-.41.11.11,0,0,0,.08,0,2.41,2.41,0,0,0,.53.07,4.06,4.06,0,0,0,1.65-.34,10.25,10.25,0,0,0,1.34-.73.11.11,0,0,0,0-.14.16.16,0,0,0,0-.13A8.44,8.44,0,0,1,107,81a6.5,6.5,0,0,1-.21-2.74,13,13,0,0,0,0-2.33,20.44,20.44,0,0,1-.05-2.35,14.25,14.25,0,0,1,.35-2.33c.09-.6.11-1.21.21-1.81s.26-1.34.39-2c.06-.33.12-.65.2-1a2.11,2.11,0,0,1,.7-1.08A1.06,1.06,0,0,0,108.07,65.31Zm-5.9,5.88c0-.41,0-1.12.39-1.34a7.42,7.42,0,0,0,1-.65.83.83,0,0,1,.25-.15h0a12.28,12.28,0,0,0-.62,1.39,24.49,24.49,0,0,1-1,2.43l-.36.72.06-.41A12.1,12.1,0,0,0,102.17,71.19Zm-5.17,3,.13,0a2.13,2.13,0,0,0-.11.59,13.75,13.75,0,0,1-.7,2.88c0,.1,0,.19-.07.29,0-.65,0-1.29,0-1.93S96.27,74.43,97,74.16ZM94.91,85.44a6.55,6.55,0,0,1-.57-2.22,17.23,17.23,0,0,1,0-1.9c0-.68,0-1.36,0-2s.19-1.06.2-1.61a10.5,10.5,0,0,1,.24-1.94c.06-.32,1.11-1,1.31-1h.08a2.9,2.9,0,0,0-.16,1,33.59,33.59,0,0,0,.11,3.62.68.68,0,0,0,0,.17c0,.17,0,.33-.05.49,0,.8-.2,1.55-.29,2.34,0,.37,0,.75-.06,1.13a3.89,3.89,0,0,0,.07,1.18c.13.44.15.91.44,1.18C95.72,86,95.23,86.05,94.91,85.44Zm3.45.2a3.12,3.12,0,0,1-1.39.2c-.93,0-1-1.27-1-2a11.67,11.67,0,0,1,.13-2.21c0-.28.15-.53.17-.81s0-.78.07-1.15c.1-.69.07-1.39.21-2.07s.52-1.57.68-2.37c.06-.3,0-.63.08-.94,0-.46.33-.41.44-.74s.33-.38.66-.44a.67.67,0,0,0,.18-.07,3.07,3.07,0,0,0,0,.74c.19,1.75-.4,3.42-.3,5.18a6.87,6.87,0,0,1,.14,2.3,4.8,4.8,0,0,0,0,2.1c.13.68-.1,1.47.25,2.09Zm.87-.14c-.58,0-.51-.67-.49-1.09,0-.69-.17-1.35-.16-2s.17-1.07.17-1.61-.17-1.29-.2-1.94c-.08-1.4.36-2.75.36-4.14a9.1,9.1,0,0,0-.08-1.05,1.16,1.16,0,0,1,.33-1A2,2,0,0,1,100,72l.23-.09a1.69,1.69,0,0,0-.3.8c0,.47-.27.88-.29,1.37s-.08,1.06-.08,1.59A9.62,9.62,0,0,0,99.66,77a.94.94,0,0,0,0,.27c0,.23.07.45.1.67a8.42,8.42,0,0,1-.29,2.91,13.24,13.24,0,0,0-.2,2.67,3.88,3.88,0,0,0,.23,1.31,3.5,3.5,0,0,0,.19.61C99.57,85.48,99.4,85.5,99.23,85.5Zm2.26-.5a1.94,1.94,0,0,1-1,.5c-.28,0-.48,0-.58-.34s-.17-.48-.24-.73a4.36,4.36,0,0,1-.09-1.69c0-.41,0-.82.06-1.23s.17-.81.24-1.23.1-.6.14-.88c.16.92.53,1.79.77,2.68.12.45.07.89.22,1.34s.33,1,.45,1.45a.5.5,0,0,0,0,.13Zm.11-.51c-.15-.42-.27-.87-.41-1.3A11.78,11.78,0,0,1,101,82a8.92,8.92,0,0,0-.37-1.14,7.94,7.94,0,0,1-.48-2.41,3.17,3.17,0,0,0-.18-1.15c0-.38-.12-.77-.19-1.16a5.22,5.22,0,0,1,0-1.31,7.37,7.37,0,0,1,.16-1.48,11.38,11.38,0,0,1,.37-1.3c.1-.21.34-.34.52-.49s.21-.26.23-.31c.09-.33.44-.53.69-.73l.2-.17a5.91,5.91,0,0,0,0,.82c0,1.24-.4,2.48-.4,3.7a.12.12,0,0,0,0,.09l0,.44a13.23,13.23,0,0,0,0,1.78,11.9,11.9,0,0,0,0,1.79,8.63,8.63,0,0,0,.32,1.51A9.91,9.91,0,0,1,102,82c.12.56-.08,1.16,0,1.74a2.79,2.79,0,0,0,.65,1.16l0,0C102.24,85.13,101.8,85.1,101.6,84.49Zm1.74.41a.61.61,0,0,1-.32-.08.12.12,0,0,0-.07,0,2.56,2.56,0,0,1-.71-1.7,13.44,13.44,0,0,0-.13-2.46c-.08-.43-.23-.84-.29-1.27a13.57,13.57,0,0,1-.1-1.69,16.8,16.8,0,0,1,.14-3.09,5.08,5.08,0,0,1,.51-1.32,4.88,4.88,0,0,0,.4-.79c.21-.72.49-1.41.75-2.11a12.63,12.63,0,0,1,.63-1.35l0,0a.52.52,0,0,1,.31-.28.87.87,0,0,0,.3-.2,4.18,4.18,0,0,1,.5-.53l0,0q0,.19-.09.36c-.17.66-.37,1.3-.53,2-.25,1.09-.51,2.16-.74,3.25a4.38,4.38,0,0,0-.16,1.25,4.51,4.51,0,0,1-.22,1.14c-.06.29,0,.61-.08.9a8.73,8.73,0,0,0-.07,1.35v1c0,.27.08.51.08.78a11.35,11.35,0,0,0,.13,1.42,14.6,14.6,0,0,0,0,1.62,6.47,6.47,0,0,0,.56,1.37.51.51,0,0,0,.17.21A1.68,1.68,0,0,1,103.34,84.9Zm4.35-18.71a9.14,9.14,0,0,0-.27,1.15c-.16.71-.29,1.44-.41,2.16s-.12,1.33-.24,2a11.7,11.7,0,0,0-.3,2.5c0,.39,0,.79,0,1.19s.07.69.08,1,.07.9,0,1.36,0,.83-.1,1.24a4.94,4.94,0,0,0,.36,2.46,9.63,9.63,0,0,0,1.1,2.2.18.18,0,0,0,0,.1,6.82,6.82,0,0,1-1.16.63,4.74,4.74,0,0,1-1.58.33c-.77,0-1-.79-1.25-1.42a5,5,0,0,1-.09-1.6c0-.86-.2-1.7-.2-2.55s.07-1.89.12-2.84a13.63,13.63,0,0,0,.23-1.54,5.32,5.32,0,0,1,.24-1.36c.1-.39.13-.83.26-1.22.08-.23.08-.49.16-.73a6.9,6.9,0,0,0,.21-.78c.12-.53.3-1,.41-1.58a6,6,0,0,1,.48-1.53s0-.14.15-.23a7.84,7.84,0,0,1,1-.78,2.69,2.69,0,0,1,.74-.55l.2-.11A5.11,5.11,0,0,0,107.69,66.19Z" style="fill:#595959"/><polygon points="92.29 75.68 90.11 75.72 86.97 78.34 84.09 74.85 87.06 72.35 89.33 72.2 92.29 75.68" style="fill:#ffffa3"/><polygon points="92.29 75.68 90.11 75.72 87.06 72.35 89.33 72.2 92.29 75.68" style="fill:#f6c082"/><polygon points="88.76 71.53 86.47 71.67 83.51 74.14 82.62 73.04 85.52 70.6 87.82 70.45 88.76 71.53" style="fill:#ffffa3"/><polygon points="88.76 71.53 86.47 71.67 85.52 70.6 87.85 70.45 88.76 71.53" style="fill:#f6c082"/><path d="M9.9,62.2a3.28,3.28,0,0,1,2.39-1.09,2.61,2.61,0,0,1,.63.07c.78,0,2,.73,4.85,2.84h0a1.43,1.43,0,0,1,.56.1l.59.22,0,.11a4.12,4.12,0,0,1,.73.46l.33.29a3.26,3.26,0,0,0,.39.32,5.44,5.44,0,0,1,.72.61.46.46,0,0,1,.07.07,2.82,2.82,0,0,1,.63.7l.11.16.27.23c.09.08.19.16.29.26a1.56,1.56,0,0,1,.44.16,6.44,6.44,0,0,1,.61.44,4.12,4.12,0,0,0,.37.27l.09,0a3,3,0,0,1,.37.21,1.42,1.42,0,0,1,.46.43,4.3,4.3,0,0,1,1.1,1l.24.28.08,0,.19.08a2.72,2.72,0,0,1,1.22.83.27.27,0,0,0,.08.07,3.31,3.31,0,0,1,.35.33,1.61,1.61,0,0,1,1,.52c.15.17.27.33.39.49a2.08,2.08,0,0,1,1,.61,2.16,2.16,0,0,1,1.12.68,1.81,1.81,0,0,1,.49.34,2,2,0,0,1,.45.71l2.15-2.51h0L36,71.1l.16-.19h0l.06-.08.31-.35,1.1-1.32h0L85.15,13.64H87.9l1.83,3.05S60.17,54.36,45.08,72.86h0l-1.47,1.81h0l-.81,1-.15.19h0L39.17,80h0a59.29,59.29,0,0,1-5.24,5.81,4.6,4.6,0,0,1-.53.31l-.1.12-.33.07a8.58,8.58,0,0,1-1,.31,2.66,2.66,0,0,1-.84.58,2.16,2.16,0,0,1-.87.19,3.09,3.09,0,0,1-.85-.15,2.42,2.42,0,0,1-.39,0l-.49,0-.27,0h-.15a1.76,1.76,0,0,1-.87-.2L27,86.92h-.23a3.64,3.64,0,0,1-.51,0h-.19a2.7,2.7,0,0,1-.49,0,2.52,2.52,0,0,1-.73-.1,3.73,3.73,0,0,1-.69-.35h-.21a2.82,2.82,0,0,1-1-.2l-.41,0h-.25A2.27,2.27,0,0,1,21,85.92h-.39a5.33,5.33,0,0,1-1.92-.42A5.72,5.72,0,0,1,17.6,85c-.13-.08-.26-.16-.4-.23a1.44,1.44,0,0,1-.5-.48l-.9-.45-.09-.05A13.92,13.92,0,0,1,11.9,81a6.44,6.44,0,0,1-.48-.56A12.66,12.66,0,0,1,8.1,72.65C7.74,67.3,8.33,63.88,9.9,62.2Z"/><path d="M87.21,14.86h-1.5L32,77.67,12.79,62.41S8.52,60.79,9.32,72.57,26,86.52,32.61,85.16Z" style="fill:#0071bb"/><path d="M87.21,14.86s-51,61.77-52.94,62.34-20-15.26-21.48-14.79-4.28,13.28,0,17.78,17.09,7,20.44,4.64,55-68.23,55-68.23Z" style="fill:#005ca0"/><path d="M18,83.39a.31.31,0,0,1,.09-.14,1.72,1.72,0,0,0,.26-.46,7.46,7.46,0,0,1,.42-.85l.05,0c0-.07,0-.14.05-.22a.69.69,0,0,1,.09-.23,9.11,9.11,0,0,0,.41-2.65,10.73,10.73,0,0,1,0-2.83c-.13-1.24,0-2.54-.15-3.78-.09-.8-.18-1.55-.22-2.33a1.75,1.75,0,0,1-.18-.63c0-.42-.23-.82-.23-1.22a8.4,8.4,0,0,0-.25-1.19,2.88,2.88,0,0,0-.26-.91c-.05-.11-.1-.17-.07-.28a.14.14,0,0,1,.09-.08h.1a.12.12,0,0,1,.1,0,.47.47,0,0,1,.12.09v0l.08.07c.2.13.39.26.6.38a5.38,5.38,0,0,1,1.26,1.17.17.17,0,0,1,0,0,2.16,2.16,0,0,1,.27.33c.34.34.67.7,1,1a6.52,6.52,0,0,1,2.37,1.44c.23.23.65.52.89.75s.52.71,1,.8c.71.16,1,1.1,1.26,1.23l.13.09a1.16,1.16,0,0,1,1.12.64,1.07,1.07,0,0,0,.43.36.57.57,0,0,1,.45.18l.06.06.09.11,0,.07a3.19,3.19,0,0,1,1.7,1,3.35,3.35,0,0,1,.29,2.19.66.66,0,0,1,.06.26.75.75,0,0,0,0,.15,33.83,33.83,0,0,1,.23,4.84,4.75,4.75,0,0,1-.71,2.63,1.36,1.36,0,0,1-1.59.39,2,2,0,0,1-1.12,0c-.28-.07-.64,0-.85-.28l-.08-.06a.56.56,0,0,1-.39.13,1.67,1.67,0,0,1-.91-.23.56.56,0,0,1-.38.14h0a.67.67,0,0,1-.26,0,4.56,4.56,0,0,1-.61-.27,1.17,1.17,0,0,1-.48-.37l-.13,0a1.23,1.23,0,0,1-.94,0,.48.48,0,0,1-.17-.12l-.25.07a1.41,1.41,0,0,1-1,0,1.38,1.38,0,0,1-.42-.48,2.85,2.85,0,0,1-.39.11,2.27,2.27,0,0,1-1.34,0,8.59,8.59,0,0,0-1-.45.62.62,0,0,1-.3-.17,1.3,1.3,0,0,1-.36-.2A.14.14,0,0,1,18,83.39Z" style="fill:#bebebe"/><path d="M30.94,77.45s.56,6.5,0,7.56-1.13-.24-1.13-.24a4.66,4.66,0,0,1-2.36-.13s-.45.49-.94.25c0,0-1.87,0-2.15-.49,0,0-.61.12-.69-.45a2.16,2.16,0,0,1-1.87.08s-2.48-.17-3-1c0,0,2.77-1.34.3-15.24,0,0,2.59,8,3.2,10.2,0,0-.24-5.44-1.21-7.56a12.42,12.42,0,0,1,3.2,5.41,3.56,3.56,0,0,1,1.67,3l.4-2.73,1.06,4a13.78,13.78,0,0,0,.08-3.47s1.47,3.8,2.24,3.88A4.54,4.54,0,0,0,30.94,77.45Z" style="fill:#a5a5a5"/><path d="M31.06,79.15s1,5.54-.84,5.35c0,0-2.31.3-2.86-.31V80.27a8.41,8.41,0,0,0,.21-2.44s1.05,3.66,2.31,3.24C29.88,81.07,31.12,82.08,31.06,79.15Z" style="fill:#8b8b8b"/><path d="M26.56,84.32s0-3.86-.65-5.51c0,0-.78,3.61-1.4,5.51C24.51,84.32,26.26,84.89,26.56,84.32Z" style="fill:#8b8b8b"/><path d="M23.78,82.81s-.26,1.12-1.64.53c0,0-1.73.24-2.36-.78,0,0,1.18-7.85-.1-10.83,0,0,2.38,7.44,2.52,8.46A26,26,0,0,0,22,74.77,19.51,19.51,0,0,1,23.78,82.81Z" style="fill:#8b8b8b"/><path d="M17.45,65.3a2.18,2.18,0,0,1,.7,1.08c.07.32.13.65.19,1,.13.67.27,1.34.39,2s.12,1.21.21,1.81a14.42,14.42,0,0,1,.35,2.33,20.67,20.67,0,0,1-.06,2.36,13,13,0,0,0,0,2.33A6.31,6.31,0,0,1,19,80.92a8.2,8.2,0,0,1-1.24,2.45.13.13,0,0,0,0,.13.1.1,0,0,0,.05.14,8.6,8.6,0,0,0,1.33.73,4.07,4.07,0,0,0,1.65.35,2.41,2.41,0,0,0,.53-.07s.05,0,.09,0a1.35,1.35,0,0,0,.93.42,1.33,1.33,0,0,0,.73-.11c.37.22,1,.42,1.28.16.17.12.79.49.84.51a1.45,1.45,0,0,0,.85,0,.19.19,0,0,0,.08,0,2.74,2.74,0,0,0,1,0,1.79,1.79,0,0,1,.69.31,1.07,1.07,0,0,0,.47,0,4.75,4.75,0,0,0,1.13,0l.05,0c.4.1.76.3,1.19.11a1.82,1.82,0,0,0,.95-1.39,8.09,8.09,0,0,0,.3-2.07,24.3,24.3,0,0,1,0-2.7,10.47,10.47,0,0,0,0-1.12c0-.34-.19-.69-.19-1a11.34,11.34,0,0,0-.22-2,1,1,0,0,0-.24-.56c-.15-.15-.33-.13-.49-.33a1,1,0,0,0-.53-.36,3.76,3.76,0,0,1-.44-.09c-.06,0-.06-.11-.12-.12a1.62,1.62,0,0,0-.1-.18c-.11-.21-.68-.31-.79-.39s-.06-.11-.11-.12a4.51,4.51,0,0,0-.44-.59c-.13-.15-.51-.1-.69-.19l-.2-.1h0v0c-.09-.26-.42-.42-.58-.63a2.07,2.07,0,0,0-1-.57l-.31-.12L25,70.86a3,3,0,0,0-.83-.75c-.09,0-.15-.14-.23-.19h0c-.06-.11-.13-.2-.16-.2a2.93,2.93,0,0,0-.43-.23c-.36-.21-.66-.52-1-.73,0,0-.27-.06-.43-.1a9.13,9.13,0,0,0-.79-.72c-.24-.23-.41-.64-.69-.8h0A.76.76,0,0,0,20.3,67a3.44,3.44,0,0,0-.55-.46c-.3-.21-.53-.45-.8-.67a9.26,9.26,0,0,0-1-.6h0A1,1,0,0,0,17.45,65.3ZM24,73.14l.06.41c-.11-.25-.23-.48-.35-.72a20.4,20.4,0,0,1-.95-2.43A11.53,11.53,0,0,0,22.16,69h0a.67.67,0,0,1,.25.15,7.42,7.42,0,0,0,1,.65c.41.22.39.93.39,1.34A12.1,12.1,0,0,0,24,73.14Zm5.74,2.75c0,.65,0,1.29,0,1.94a2.46,2.46,0,0,0-.07-.29A13.22,13.22,0,0,1,29,74.65a2.59,2.59,0,0,0-.11-.58l.13,0C29.72,74.38,29.76,75.21,29.76,75.89Zm0,9.93a2.6,2.6,0,0,0,.44-1.18,3.61,3.61,0,0,0,.07-1.18c0-.38,0-.76-.06-1.13-.08-.79-.24-1.54-.28-2.34,0-.16,0-.33-.05-.49,0,0,0-.08,0-.17A33.59,33.59,0,0,0,30,75.71a2.89,2.89,0,0,0-.15-1h.07c.2,0,1.25.64,1.32,1a11.3,11.3,0,0,1,.23,1.94c0,.55.2,1.06.2,1.61s0,1.36,0,2a17.22,17.22,0,0,1,0,1.9,6.55,6.55,0,0,1-.57,2.22C30.75,86,30.26,85.93,29.75,85.82Zm-2.44-.36c.35-.62.12-1.41.26-2.1a5.07,5.07,0,0,0,0-2.09A7.2,7.2,0,0,1,27.67,79c.11-1.75-.48-3.43-.29-5.18a3.08,3.08,0,0,0,0-.74.85.85,0,0,0,.17.08c.33,0,.55.1.66.44s.39.27.45.74c0,.31,0,.63.07.93.16.8.52,1.57.68,2.37s.11,1.39.21,2.07c.05.38.05.78.07,1.15a7.43,7.43,0,0,0,.16.82A11.67,11.67,0,0,1,30,83.85c0,.67-.07,2-1,2a3.1,3.1,0,0,1-1.39-.21A1.69,1.69,0,0,0,27.31,85.46Zm-1.07,0a3.7,3.7,0,0,0,.19-.6,4,4,0,0,0,.24-1.32,13.24,13.24,0,0,0-.21-2.67,8.63,8.63,0,0,1-.28-2.9c0-.22.07-.45.1-.68a.94.94,0,0,0,0-.27,9.62,9.62,0,0,0,.14-1.4c0-.54,0-1.06-.07-1.6s-.26-.89-.3-1.37a1.72,1.72,0,0,0-.29-.8,1,1,0,0,0,.22.09,1.89,1.89,0,0,1,.8.68,1.09,1.09,0,0,1,.33,1,9.1,9.1,0,0,0-.08,1c0,1.4.44,2.75.36,4.15,0,.65-.2,1.28-.2,1.93s.15,1.07.16,1.62-.19,1.35-.16,2c0,.42.09,1.08-.49,1.08C26.58,85.45,26.41,85.43,26.24,85.42ZM24.48,85a.5.5,0,0,0,0-.13c.12-.5.3-1,.46-1.45s.1-.89.22-1.33c.24-.9.61-1.77.77-2.69,0,.29.08.57.14.89s.17.81.24,1.22,0,.83.06,1.24a4.38,4.38,0,0,1-.1,1.69c-.07.24-.17.48-.24.73s-.3.33-.58.33a1.94,1.94,0,0,1-1-.5Zm-1.23-.13,0,0a2.92,2.92,0,0,0,.66-1.16c.12-.58-.08-1.18,0-1.74a13.86,13.86,0,0,1,.18-1.46,8.35,8.35,0,0,0,.33-1.5,11.9,11.9,0,0,0,.05-1.79,15.11,15.11,0,0,0,0-1.78c0-.14,0-.29,0-.44a.12.12,0,0,0,0-.08c0-1.23-.41-2.47-.41-3.71a7.86,7.86,0,0,0,0-.82l.2.17c.25.2.6.4.69.73,0,.06.18.16.23.31a1.71,1.71,0,0,1,.51.49,9.69,9.69,0,0,1,.38,1.3,8.28,8.28,0,0,1,.16,1.49,4.72,4.72,0,0,1,0,1.3c-.06.39-.13.78-.19,1.16a3.17,3.17,0,0,0-.18,1.15,7.66,7.66,0,0,1-.49,2.41A11.65,11.65,0,0,0,25,82c-.09.39,0,.78-.16,1.17s-.27.88-.42,1.3C24.18,85.05,23.74,85.08,23.25,84.82Zm-1.67-.31a.54.54,0,0,0,.17-.22,5.64,5.64,0,0,0,.56-1.37c.12-.53,0-1.08.05-1.61a11.49,11.49,0,0,0,.12-1.43c0-.26.08-.5.08-.77v-1a8.73,8.73,0,0,0-.07-1.35c-.05-.3,0-.61-.08-.9a4.09,4.09,0,0,1-.21-1.14,5.37,5.37,0,0,0-.16-1.26c-.23-1.09-.49-2.16-.74-3.24-.16-.66-.36-1.31-.53-2,0-.11-.06-.24-.09-.36l0,0a5.13,5.13,0,0,1,.51.53.83.83,0,0,0,.3.2.49.49,0,0,1,.3.27l0,0a11.79,11.79,0,0,1,.63,1.35c.25.7.54,1.39.74,2.11a6.59,6.59,0,0,0,.41.79,5.91,5.91,0,0,1,.51,1.32,17.72,17.72,0,0,1,.13,3.09,13.57,13.57,0,0,1-.1,1.69c-.06.43-.21.84-.29,1.27A13.44,13.44,0,0,0,23.74,83a2.56,2.56,0,0,1-.71,1.7l-.07,0a.52.52,0,0,1-.32.09A1.68,1.68,0,0,1,21.58,84.51ZM18.1,65.65l.2.11a2.86,2.86,0,0,1,.73.55,8,8,0,0,1,1,.79c.09.08.12.22.15.23a6.33,6.33,0,0,1,.48,1.53c.1.54.28,1,.4,1.57a7,7,0,0,0,.2.79c.09.24.09.49.17.73s.15.82.25,1.21A4.92,4.92,0,0,1,22,74.52a13.3,13.3,0,0,0,.23,1.54c.05,1,.12,1.89.12,2.85s-.2,1.69-.2,2.54A5.09,5.09,0,0,1,22,83.06c-.22.63-.49,1.41-1.26,1.41a4.51,4.51,0,0,1-1.58-.33A6.82,6.82,0,0,1,18,83.51a.12.12,0,0,0,0-.1,9.67,9.67,0,0,0,1.11-2.2,5,5,0,0,0,.36-2.46c-.05-.41-.08-.83-.1-1.24s0-.9.05-1.36.09-.69.07-1,0-.79,0-1.19a11.6,11.6,0,0,0-.29-2.49c-.12-.67-.13-1.34-.24-2s-.25-1.45-.41-2.16a8.6,8.6,0,0,0-.27-1.14C18.25,66,18.17,65.81,18.1,65.65Z" style="fill:#595959"/><polygon points="33.7 75.64 35.88 75.69 39.02 78.31 41.9 74.82 38.94 72.32 36.66 72.16 33.7 75.64" style="fill:#f6c082"/><polygon points="33.7 75.64 35.88 75.69 38.94 72.32 36.66 72.16 33.7 75.64" style="fill:#ffffa3"/><polygon points="37.24 71.49 39.53 71.64 42.49 74.11 43.38 73.02 40.48 70.57 38.18 70.42 37.24 71.49" style="fill:#f6c082"/><polygon points="37.24 71.49 39.53 71.64 40.48 70.57 38.15 70.42 37.24 71.49" style="fill:#ffffa3"/><g id="Layer_2"><path d="M96.54,106.44c0,4.88-15,8.85-33.57,8.85s-33.57-4-33.57-8.85V85.78l67.14.1Z" style="fill:#040404"/><path d="M96.54,85.88v20.53c0,3.39-5.53,4.94-7.53,5.58A75.13,75.13,0,0,1,70,115.07c-2.59.14-5.28.06-7.64-1.29a1.5,1.5,0,0,1-.45-2.42,4.6,4.6,0,0,1,1.44-1.11,18.2,18.2,0,0,0,2.78-2.09,4.23,4.23,0,0,0,1.65-3c0-1.42-1.21-2.43-2.28-3.14-1.94-1.23-4.07-2.27-5.47-4.25a2.67,2.67,0,0,1-.58-1.48c0-1.08,1-1.75,1.81-2.21q7.49-4,15-8c2.7-1.4,6.54-.92,9.39-.58C86.41,85.64,96.54,85.84,96.54,85.88Z" style="fill:#333"/><path d="M96.54,88.83c0,5.12-15,9.26-33.57,9.26S29.4,93.94,29.4,88.83c0-2.59-.07-4.88,4.09-6.56S46,79.56,63,79.56c19.73,0,28.49.65,31.85,2.89C97.12,84,96.54,86.74,96.54,88.83Z" style="fill:#ccc"/><ellipse cx="62.97" cy="84.4" rx="33.57" ry="8.85"/><ellipse cx="49.77" cy="81.73" rx="8.23" ry="2.17" style="fill:#ccc"/><path d="M91.46,83.9c0,3.87-12.76,7-28.5,7s14.92-4.14,14.92-8-2.3-5.34,1.72-4.67C85.88,79.27,91.46,80,91.46,83.9Z" style="fill:#7f7f7f;opacity:0.699999988079071;isolation:isolate"/></g></svg>
