<svg class="S" xmlns="http://www.w3.org/2000/svg" viewBox="0 0 126 126"><g style="isolation:isolate"><g id="design"><path d="M27.12,41.21c.34-2.32-2.13-8.69-2.8-9.83a5.68,5.68,0,0,1-.2-2.76A8.93,8.93,0,0,1,22.5,30.7C20,32.94,15,41.28,14.69,42.83c-.45,1.94-1.79,2.26-2.74,3.24s-1.57,3.6-1.66,4.38c-.06.58.38,1.86.37,3,1.09-.86,2.8-1.87,4.21-1,2.25,1.31,2.55,2.08,2.66,2.85,0,.3.2.77.3,1.34a3.28,3.28,0,0,0,.76-1.46c.55-1.56.74-2.14,1.6-2.45s1.48-3.5,1.47-4.08,1.53-.9,2.59-1,2.27-2.14,2.8-2.72S26.93,42.51,27.12,41.21Z" style="fill:#f6a714"/><path d="M15.11,51.21c-1.41-.82-4.09.41-4.57,1.56a7.8,7.8,0,0,0-.75,3c-.06,1.14,2,2.79,2.94,3.15s2.65-.23,3.43-.55A3,3,0,0,0,18,55.9C18.31,54.28,17.36,52.52,15.11,51.21Z" style="fill:#c78710"/><path d="M6.05,94.52a5.73,5.73,0,0,0-1-.45L11.77,62A1.14,1.14,0,0,0,10,61.66S5.72,85.81,4.46,93.92a2,2,0,0,0-.55,0c-1,.12-1.43.58,0,1l.39.08a8.81,8.81,0,0,0-.18,1.6c.32,0,.51-.4.51-.4L4.87,95C5.89,95.1,6.59,94.86,6.05,94.52Z" style="fill:#1a0510"/><path d="M11.74,53.82c-.89.32-1,1.16-1.44,1.5s-3,1.68-3.19,2.56a9.74,9.74,0,0,0,.73,3.93c.34.76,1.44.95,1.67,1.28a3,3,0,0,0,2.42.5c.87-.24,2-1.9,1.15-2.54a1.34,1.34,0,0,0,1.42-.36c.64-.67.88-2.7.86-3.36s.62-1.26.28-2S14.68,52.78,11.74,53.82Z" style="fill:#3b605f"/><path d="M10.76,57.28l-.25,2.1a1.16,1.16,0,0,0,.66.62,1.15,1.15,0,0,0,.95-.28,12.11,12.11,0,0,0,.48-2.37C12.58,56.61,11.27,56.31,10.76,57.28Z" style="fill:#623c43"/><path d="M81.19,93.17a2.7,2.7,0,0,0-.74,3.18c.71,2.19,7.22,9.91,8.43,11.58S97,118.05,98,118.3c1.19.31,2.58-.06,2.11-1.15S81.19,93.17,81.19,93.17Z" style="fill:#c07846"/><path d="M85.61,89.69a2,2,0,0,0-.6,2.66c.87,1.74,6.15,8.19,7.84,10.08s9.93,11.63,11.59,11.75,2.27-1.82,2.27-1.82Z" style="fill:#c07846"/><path d="M88.39,89.3c1.67,1.46,7.55,8.62,10.58,11.91,1.25,1.36,6.56,6.9,7.34,7.87,1.28,1.59,1.8,2.72.16,4.06-1.35,1.11-2.48.82-4-.7-1.36-1.35-6.17-6.79-7.6-8.4-3.16-3.55-8.49-9.66-9.61-11.79C84.06,90,86.72,87.83,88.39,89.3Z" style="fill:#ef867b"/><path d="M105.31,111.48c-.35.24-.18.92-.64,1.32a1.78,1.78,0,0,1-1.31.42,2.27,2.27,0,0,0,2.81.82c1.66-.83,2.15-2.41.78-4.1a1.43,1.43,0,0,1-.42,1.26C106.22,111.49,105.66,111.25,105.31,111.48Z" style="fill:#c07846"/><path d="M101.73,114.26c-1.1-1.64-14.1-17.59-17.51-20.75s-5,1.6-2.37,4.9,14.68,19.17,16.47,19.52S102.82,115.9,101.73,114.26Z" style="fill:#ef867b"/><path d="M99.33,115.21c-.14.19-.08,2.2-2,2,0,0,1.32,2.35,3.69.16,2.08-1.93.43-3.53.43-3.53a1.56,1.56,0,0,1-.77,1.19C100.16,115.34,99.47,115,99.33,115.21Z" style="fill:#f06650"/><path d="M93.27,95.83a23.78,23.78,0,0,0-2.39-3.24,2.89,2.89,0,0,1-1.77,1.24,9,9,0,0,1-1.67.36,5.12,5.12,0,0,1,.66.83c.33.66,1.73,3.59,3.18,3.61S94.32,97.61,93.27,95.83Z" style="fill:#f6a714"/><path d="M92.73,94.64s-.81-.55-2.3.33-1.52,1.59-1.51,1.83a1.71,1.71,0,0,0,.57.9c.25.19.39-1.28,1.61-1.77a4.63,4.63,0,0,1,2.45-.31C93.73,95.56,93,94.68,92.73,94.64Z" style="fill:#d5a054"/><path d="M84.25,96.85a3.56,3.56,0,0,1-1.93.8,2.33,2.33,0,0,1,.75.67c1.19,1.53,2,4.22,3.94,3.79s2.18-2.16,1.09-3.59-2.39-2.12-2.63-3.06A3.76,3.76,0,0,1,84.25,96.85Z" style="fill:#f6a714"/><path d="M83.82,100.31A2.07,2.07,0,0,1,84.88,98a2.78,2.78,0,0,1,2.81-.27,1.8,1.8,0,0,1,.79.81,3.17,3.17,0,0,0-3,.55c-1.12,1-.84,2.08-1,2.09S83.84,100.45,83.82,100.31Z" style="fill:#d5a054"/><path d="M79.84,96c0,.41.67,1.18,1.09,1.44s.76-.05,1.39.25a3.56,3.56,0,0,0,1.93-.8,3.76,3.76,0,0,0,1.22-1.39,1.28,1.28,0,0,1,0-.27c0-.51-.49-2.58-1.59-2.63s.22,1.26-.26,1.89S79.89,95.55,79.84,96Z" style="fill:#5e2217"/><path d="M91.08,92.55A2.13,2.13,0,0,0,91,90.37c-.24-.47-.34-1.33-1.2-1.12-.68.17-1.28,1.44-1.94,1.88s-2.16.16-2.38.65.75,1.41,1,1.57c.44.28.49.76.94,1a3.4,3.4,0,0,0,2.14-.11A3.21,3.21,0,0,0,91.08,92.55Z" style="fill:#5e2217"/><path d="M88.15,92a4.31,4.31,0,0,0,2.06-2.86c.18-1.47-4.15-6.54-5.12-8.12l-2.84-4.7c-.79-1.34-2.18-5.66-3.42-7.62-.87-1.39-3.11-4.59-5.2-7.22a62.73,62.73,0,0,0-6.92-6.78c-.83-.7-1.36-1.33-2.27-2s-1.54-2.31-1.89-2.22c-.74.19-3.19,3-3.66,3.94-.62,1.3-4.34,2-7.4,3.62s-6.36,4-8.66,5.06a18.92,18.92,0,0,1-5.11,1.1c1.14.51,1.59,4.74,3.62,6,2.35,1.5,5.24,3.87,7.4,5.07,1.67.93,4.82,3.41,7.1,4.28s16,9.81,16.59,10.19,1.38,2,2.22,2.57c1,.73,2.34,1.47,3.07,2.07s1.28,1.77,2.42,1.78a5.29,5.29,0,0,0,3.34-1.42,7.22,7.22,0,0,0,.71-2.06,4.34,4.34,0,0,0-1.6-3.12c-.79-.68-9.71-11.2-10.34-12-.79-1-4.91-4.35-5.41-5.11a28.8,28.8,0,0,0-2.77-3.52c-.79-.76-2.36-2.08-3-2.75s-1.38-1.61-2-1.79-1.34-.53-1.27-.66.36,0,.89-.29.25-.93.48-.82.4,1.44,1,2.06,4.07,4,4.77,4.71,3,4,5.14,5.6,7.67,8.33,8.52,9.25A21.23,21.23,0,0,1,82.89,89c.7,1.33,1.67,2.73,2.54,3S87.39,92.5,88.15,92Z" style="fill:#822f20"/><path d="M46.7,57.85c-2.93,1.73-4.24,3.5-6.8,3.94-1.83.31-4.55,1.12-4.47,1.61s2.06,3,3.76,2.57,4-2.09,5.33-2.27a32.55,32.55,0,0,0,9.93-2.83,28.68,28.68,0,0,0,5.91-4.58,13.19,13.19,0,0,0,3-3.87c.66-1.28-.41-2.3-1.27-2.71s-3.76,1.53-5.5,2.92C53.92,54.74,49.63,56.12,46.7,57.85Z" style="fill:#5e2217"/><path d="M72.78,39.78c-.43-1.07-1.61-2.41-2-3.59-.89-.27-.67.75-1.09,1.25-.76.88-2.69-.14-4.25-.79-.86-.35-.82-1.09-1.55-2.21a32.72,32.72,0,0,1-2.57-5.84c-.42-1.92-3.58-5.34-5.72-5.88-.35-.09-1.38-.27-1.47,0S55,26,54.9,27.57c-.21,2.32,0,5.79.65,6.81.41.64,1.43,4.38,2.13,4s1.6,1.65,3.14,2.38,2,2.67,3.16,3.42,3.71,2,6.2.85A4.44,4.44,0,0,0,72.78,39.78Z" style="fill:#f6a714"/><path d="M55.09,27.8c.15-1.54-.51-5.15-.9-5.39C53.6,22,46,21,44,21.4c-2.31.43-12.4,3.43-12.4,3.43s-5.27.55-7.24,3.39l-.27.4a5.68,5.68,0,0,0,.2,2.76c.67,1.14,2.72,7.67,2.38,10a11.76,11.76,0,0,0,.44,4.07c.56.85,1.95,3.1,2,4.64,0,1.93,1.42,3.25,2,5.56a41.81,41.81,0,0,1,.77,6.24c.17,1.17,2.22,2.22,3.7,2s2.91-1.5,4.74-1.8A28.35,28.35,0,0,0,49.52,59a69.51,69.51,0,0,0,8.16-5.52c1.75-1.39,4.64-3.15,4.78-3.54a3.49,3.49,0,0,0,.26-.87,10.17,10.17,0,0,0-2.41-4.59c-1.38-1.32-2.3-4.71-2.62-5.71a32.12,32.12,0,0,0-1.91-4.29C55.12,33.45,54.88,30.13,55.09,27.8Z" style="fill:#f6a714"/><path d="M50,55.09c-.07-3.6-6-9.67-6.38-10.18s-.32-3.21-.78-7.07c-.37-3.07-5.33-11-7.33-14.15l-2.32.67L38,30s3.48,7.15,3.27,9.6,1.41,6.16,2.06,6.53,3.28,5.26,3.6,6.24a70.4,70.4,0,0,1,2.13,7l.51-.29.84-.5A21.6,21.6,0,0,1,50,55.09Z" style="fill:#d1d3d4;mix-blend-mode:multiply"/><path d="M48.76,43.27c-.14-.64.07-3.09.14-6.44.05-2.74-5-11.77-6.86-15l-1.26.34c1.87,3.58,6.93,13.36,6.95,14.51,0,1.42,0,6.44.53,7.46s5.17,7.24,5.06,8.53a29.82,29.82,0,0,0,.25,3.74l1-.71c-.3-2.41-.76-5.28-1.34-6.25C52.2,47.71,48.9,43.91,48.76,43.27Z" style="fill:#d1d3d4;mix-blend-mode:multiply"/><path d="M65.39,37.41c1.56.65,3.89,1.28,4.65.4a12.16,12.16,0,0,0,.78-1.62c.24-.34.35-.95.71-1.57a2,2,0,0,0-1-2.52c-1.18-.75-5,.09-5.79.3S64.08,34,64,34.54,64.54,37.06,65.39,37.41Z" style="fill:#c78710"/><path d="M64.39,26.55a6,6,0,0,0-1.47-.89,1.17,1.17,0,0,0-1,1.32c.2.62,2,1.8,2,1.8A1.66,1.66,0,0,0,64.39,26.55Z" style="fill:#623c43"/><path d="M64.22,26.42c-.66,1.08-1,1.37-.76,2.11s0,.61-.55.53-1.52,1-.94,1.27,1,1.33,1.58,1.51A3.58,3.58,0,0,1,65,33.55c.1.39-.36,1.36.32,1.74a8.47,8.47,0,0,0,3.4.8,3.17,3.17,0,0,0,1.89-2,28,28,0,0,0-.56-3c0-.58.84-2.45,0-3.5A6.62,6.62,0,0,0,67,25.79,2.11,2.11,0,0,0,64.22,26.42Z" style="fill:#3b605f"/><path d="M123,79a22.62,22.62,0,0,0-2.32-2.32,4.4,4.4,0,0,0,.66-1c.3-.68-.64-.81-1.62.12C108.05,64.89,69.16,30,69.16,30,67.9,29.75,68,31.39,68,31.39s39.27,34.46,51.47,44.78c-.31.44-.85,1.31-.42,1.63s.91-.21,1.43-.78A18,18,0,0,0,123,79Z" style="fill:#1a0510"/><path d="M31.71,18.93a5.71,5.71,0,0,0-2.63,3.92c-.33,2.61.45,3.27.87,4.91s6.94,4.21,8.77,4.18,4.51-1.83,6.14-2.54,3.65-6.15,3.22-8.46-3.84-3.31-6.83-3.06S31.71,18.93,31.71,18.93Z" style="fill:#c78710"/><path d="M32.62,20.85a16.43,16.43,0,0,1-1.31,2c-.41.54.31,1.15,1.19,1.81s4.21,3,7.3,2.95,7.16-4.19,5.65-7.45S32.62,20.85,32.62,20.85Z" style="fill:#d1d3d4;mix-blend-mode:multiply"/><path d="M32.62,20.85c.22,1.25,2.32,5.17,4.94,6a5.34,5.34,0,0,0,5.87-1.56c.84-1.28,2.76-6.72,1.57-8.44s-12.16.43-12.16.43A13.57,13.57,0,0,0,32.62,20.85Z" style="fill:#fbd6b6"/><path d="M31.59,17.49a4.33,4.33,0,0,0,2.23.63,22.73,22.73,0,0,1,3.58,0,12.24,12.24,0,0,0,3.85-.27,19.29,19.29,0,0,1,3.28-.35c1.06,0,1.34-.51,1.47,1.22s-.19,4.93-3,4.7-2.44-1.69-3.41-1.67-.62,2.81-4.5,1.92-2.59-3.82-3.46-4.09S31,17.3,31.59,17.49Z" style="fill:#1a0510"/><path d="M46.16,15.18c-.27-.51.33-5-3.89-6.88s-9.46.2-10.66,3.12a6.54,6.54,0,0,0-.35,3.88c.12.89-.42,1.43-.07,2.15s1,.77,1.91,1a39.75,39.75,0,0,0,6.13.37,33,33,0,0,0,6.32-1.3C46.13,17.29,46.43,15.69,46.16,15.18Z" style="fill:#3b605f"/></g></g></svg>
