<svg class="S" xmlns="http://www.w3.org/2000/svg" xmlns:xlink="http://www.w3.org/1999/xlink" viewBox="0 0 126 126"><defs><filter id="luminosity-noclip" x="22.96" y="-8401" width="80.85" height="32766" filterUnits="userSpaceOnUse" color-interpolation-filters="sRGB"><feFlood flood-color="#fff" result="bg"/><feBlend in="SourceGraphic" in2="bg"/></filter><mask id="mask" x="22.96" y="-8401" width="80.85" height="32766" maskUnits="userSpaceOnUse"><g style="filter:url(#luminosity-noclip)"/></mask><linearGradient id="linear-gradient" x1="63.39" y1="-4.72" x2="63.39" y2="77" gradientUnits="userSpaceOnUse"><stop offset="0" stop-color="#fff" stop-opacity="0.4"/><stop offset="0.01" stop-color="#fff" stop-opacity="0.39"/><stop offset="0.32" stop-color="#fff" stop-opacity="0.22"/><stop offset="0.6" stop-color="#fff" stop-opacity="0.1"/><stop offset="0.84" stop-color="#fff" stop-opacity="0.03"/><stop offset="1" stop-color="#fff" stop-opacity="0"/></linearGradient></defs><g style="isolation:isolate"><g id="design"><path d="M96,25.48A50,50,0,1,1,25.48,30,50,50,0,0,1,96,25.48Z" style="fill:#d18017;fill-rule:evenodd"/><path d="M95.7,25.86A49.48,49.48,0,1,1,25.86,30.3,49.49,49.49,0,0,1,95.7,25.86Z" style="fill:#e38c1c;fill-rule:evenodd"/><path d="M88.73,103.65c.19.37.54,1,.74,1.44l-1,.6c-.21-.44-.58-1.11-.78-1.51a42.42,42.42,0,0,1-9.72,1,59,59,0,0,1-11.23-.9,44.12,44.12,0,0,1-8.91,2.92,48.63,48.63,0,0,1-9.21,1.08c.07.43.21,1.87.35,2.44l-1.31-.43c-.11-.47-.21-1.82-.26-2.18a42.5,42.5,0,0,1-8.61-5.36,48.27,48.27,0,0,1-7.71-7.29,45.27,45.27,0,0,1-6.58-1c-.44-.52-1-1.31-1.44-1.84a56.41,56.41,0,0,0,7.81,1.65A30.11,30.11,0,0,1,32.67,88,53.08,53.08,0,0,1,36.4,80.5,78.72,78.72,0,0,1,32,69.28,109.22,109.22,0,0,1,28.45,56c-1.74-.71-3.11-1.28-4.67-2s-3.3-1.63-5.78-3c-.87,1.07-2.82,3.69-4.36,5.9.11-.88.25-1.75.41-2.61,1-1.44,2.55-3.45,3.17-4.21-.37-2.25.24-5.2,1.34-8.22.41-1.11.88-2.23,1.38-3.33a50.12,50.12,0,0,1,5.94-8.59c.61-.68,1.23-1.34,1.86-2A34.1,34.1,0,0,1,32,25.43a28.42,28.42,0,0,1,8.89-3A31.66,31.66,0,0,1,49.4,16.1c7.39-3.93,16.74-3.39,24.69-1.58a28.34,28.34,0,0,1,5.26,2c.23-.07.48-.13.75-.19.82.3,1.63.63,2.43,1a11.06,11.06,0,0,0-2.18.19A33.22,33.22,0,0,1,84,22.84,40.48,40.48,0,0,1,87,30c2.25.8,5.23,3,8,5.39a53.36,53.36,0,0,1,8.12,8.55,14.55,14.55,0,0,1,5.56-.35c.17.41.34.82.5,1.24a13.59,13.59,0,0,0-5.65.2,74.08,74.08,0,0,1-1.19,13.41c-.7,4.19-1.65,8.14-2.72,10a38.11,38.11,0,0,1,2.55,8.47,47.86,47.86,0,0,1,.81,9.1,24.88,24.88,0,0,0,5-2.33l.14-.08c-.29.62-.58,1.24-.9,1.86a22.38,22.38,0,0,1-4.45,1.83c-.79,1.87-3,4.8-5.53,7.73a76.47,76.47,0,0,1-8.62,8.63ZM50,17.14a30.61,30.61,0,0,0-8.19,6A77.77,77.77,0,0,0,43.51,31a32.45,32.45,0,0,0,1.84,5.27,78.88,78.88,0,0,1,11.32,1.91c5.09,1.13,10.5,2.56,13.85,3.7a47.58,47.58,0,0,1,6.14-5.35,110.73,110.73,0,0,1,9.18-6.39,40.22,40.22,0,0,0-2.92-6.74,30.91,30.91,0,0,0-4-5.8,32.18,32.18,0,0,0-9.7-2.93C61.4,13.45,56.81,13.49,50,17.14ZM86.6,31.07a107.27,107.27,0,0,0-9.22,6.41,46.69,46.69,0,0,0-6,5.19c1.09,2.29,3.36,7.85,5.37,13.2,1.55,4.12,3,8.13,3.53,10.45l3.35.11a95.22,95.22,0,0,1,15.07,1.31c1-1.78,1.85-5.52,2.51-9.53.9-5.38,1.39-11.18,1.16-13.34-1-1.75-4.43-5.44-8.1-8.62-2.74-2.37-5.6-4.44-7.7-5.18Zm-61.41.59a48.79,48.79,0,0,0-5.51,10.56c-1,2.85-1.62,5.58-1.3,7.6,2.56,1.4,4.32,2.31,5.9,3.06s2.81,1.25,4.47,1.93a95.05,95.05,0,0,1,15.5-18.09,34.18,34.18,0,0,1-1.88-5.4c-.79-2.85-1.43-5.87-1.73-7.67a28.48,28.48,0,0,0-8.16,2.84,25.58,25.58,0,0,0-7.29,5.17Zm54.9,35.83-2.87,3.1C72.77,75.42,65.82,82.94,61.41,87c.57,1.66,1.12,3.54,1.67,5.45,1.18,4,2.39,8.16,3.93,10.66a57.73,57.73,0,0,0,10.93.87,39.79,39.79,0,0,0,9.76-1,73.15,73.15,0,0,0,8.76-8.7c2.55-2.94,4.73-5.85,5.4-7.57a46.71,46.71,0,0,0-.78-9.55,36.77,36.77,0,0,0-2.46-8.2,92.85,92.85,0,0,0-15-1.32c-1.15,0-2.3-.06-3.53-.12Zm-9.8-24.43c-3.3-1.14-8.75-2.58-13.88-3.72A77,77,0,0,0,45.2,37.46,90.57,90.57,0,0,0,38,44.74,94,94,0,0,0,29.6,55.67a106.24,106.24,0,0,0,3.5,13.24A75.9,75.9,0,0,0,37.49,80c3.59,1.16,8.66,2.68,13.46,4,3.62,1,7.07,1.8,9.58,2.22,4.4-4,11.36-11.59,15.82-16.42,1.14-1.24,2.13-2.3,2.85-3.07-.56-2.24-2-6.27-3.52-10.43-2-5.43-4.35-11.06-5.39-13.23ZM37.35,81.22a52.37,52.37,0,0,0-3.58,7.19A27.59,27.59,0,0,0,32,94.7a46.72,46.72,0,0,0,7.51,7.11,40.62,40.62,0,0,0,8.57,5.28,46.28,46.28,0,0,0,9.5-1.06,42.06,42.06,0,0,0,8.24-2.64c-1.53-2.65-2.71-6.68-3.85-10.6-.55-1.89-1.1-3.75-1.67-5.43-2.55-.43-6-1.26-9.64-2.22C46,83.88,41,82.38,37.35,81.22Z" style="fill:#8c570f"/><g style="mask:url(#mask)"><path d="M63.39,19.21C41.06,19.21,23,35.1,23,54.7v0a8.76,8.76,0,0,0,4.54,7.37,70.17,70.17,0,0,0,35.89,9.65,70.17,70.17,0,0,0,35.89-9.65,8.76,8.76,0,0,0,4.54-7.37v0C103.82,35.1,85.72,19.21,63.39,19.21Z" style="fill:url(#linear-gradient)"/></g><path d="M113,63.09a49.85,49.85,0,0,1-.44,6.62c0,.35-.09.7-.15,1a49.17,49.17,0,0,1-7.47,19.54l-.64,1a50.25,50.25,0,0,1-17,15.48h0l-1.46.79A49.83,49.83,0,0,1,63.12,113c-.69,0-1.37,0-2,0a43.92,43.92,0,0,1-5-.46h0A49.6,49.6,0,0,1,30.8,101.08c-.53-.44-1-.9-1.55-1.38a48.5,48.5,0,0,1-5.9-6.5c-.26-.36-.53-.71-.77-1.07a48.92,48.92,0,0,1-6.33-11.94,48,48,0,0,0,10,2.52h0a44.27,44.27,0,0,0,5,.46c.68,0,1.35,0,2,0A49.83,49.83,0,0,0,56,77.78L57.49,77h0a50.22,50.22,0,0,0,17-15.48c.22-.32.45-.65.65-1A49.17,49.17,0,0,0,82.64,41c.06-.35.11-.69.16-1a50,50,0,0,0-2.58-23.73A49.89,49.89,0,0,1,113,63.09Z" style="fill:#878787;opacity:0.2;mix-blend-mode:multiply"/><path d="M113,63.09a49.85,49.85,0,0,1-.44,6.62c0,.35-.09.7-.15,1a49.17,49.17,0,0,1-7.47,19.54l-.64,1a50.25,50.25,0,0,1-17,15.48h0l-1.46.79A49.83,49.83,0,0,1,63.12,113c-.69,0-1.37,0-2,0a43.92,43.92,0,0,1-5-.46h0A49.6,49.6,0,0,1,30.8,101.08c-.53-.44-1-.9-1.55-1.38a48.25,48.25,0,0,1-5.88-6.48,49.41,49.41,0,0,0,23,9.63h0a44.1,44.1,0,0,0,5,.46c.67,0,1.35,0,2,0a49.79,49.79,0,0,0,22.68-5.43l1.47-.79h0a50.31,50.31,0,0,0,17-15.49c.22-.32.45-.65.65-1a49.35,49.35,0,0,0,7.48-19.53q.09-.53.15-1a51.44,51.44,0,0,0,.43-6.61A49.54,49.54,0,0,0,93.25,23.35,49.76,49.76,0,0,1,113,63.09Z" style="fill:#878787;opacity:0.2;mix-blend-mode:multiply"/></g></g></svg>
