<svg class="S" xmlns="http://www.w3.org/2000/svg" xmlns:xlink="http://www.w3.org/1999/xlink" viewBox="0 0 126 126"><defs><linearGradient id="linear-gradient" x1="26.85" y1="-791.84" x2="37.5" y2="-784.1" gradientTransform="matrix(1, 0, 0, -1, 0, -748)" gradientUnits="userSpaceOnUse"><stop offset="0.25" stop-color="#e28341"/><stop offset="0.4" stop-color="#f49e6b"/><stop offset="0.51" stop-color="#ffb085"/><stop offset="0.52" stop-color="#feae83"/><stop offset="0.62" stop-color="#dc7d54"/><stop offset="0.71" stop-color="#c45a32"/><stop offset="0.78" stop-color="#b5451e"/><stop offset="0.83" stop-color="#b03d16"/></linearGradient><linearGradient id="linear-gradient-2" x1="39.27" y1="-803.81" x2="52.47" y2="-803.81" gradientTransform="matrix(1, 0, 0, -1, 0, -748)" gradientUnits="userSpaceOnUse"><stop offset="0.25" stop-color="#e28341"/><stop offset="0.59" stop-color="#c35726"/><stop offset="0.83" stop-color="#b03d16"/></linearGradient><linearGradient id="linear-gradient-3" x1="331.87" y1="-243.18" x2="342.52" y2="-235.44" gradientTransform="matrix(0.93, 0.38, 0.38, -0.93, -152.64, -322.33)" xlink:href="#linear-gradient"/><linearGradient id="linear-gradient-4" x1="344.29" y1="-255.15" x2="357.49" y2="-255.15" gradientTransform="matrix(0.93, 0.38, 0.38, -0.93, -152.64, -322.33)" xlink:href="#linear-gradient-2"/><radialGradient id="radial-gradient" cx="102.48" cy="-826.45" r="14.63" gradientTransform="matrix(1, 0, 0, -1, 0, -748)" gradientUnits="userSpaceOnUse"><stop offset="0.08" stop-color="#ffe100"/><stop offset="0.18" stop-color="#ffda00"/><stop offset="0.34" stop-color="#ffc700"/><stop offset="0.43" stop-color="#ffb800"/><stop offset="0.51" stop-color="#f3a700"/><stop offset="0.67" stop-color="#d47b00"/><stop offset="0.68" stop-color="#d27800"/><stop offset="0.87" stop-color="#f08500"/></radialGradient><radialGradient id="radial-gradient-2" cx="103.59" cy="-827.32" r="13.1" gradientTransform="matrix(1, 0, 0, -1, 0, -748)" gradientUnits="userSpaceOnUse"><stop offset="0" stop-color="#ffe81a"/><stop offset="0.14" stop-color="#ffe115"/><stop offset="0.34" stop-color="#ffce08"/><stop offset="0.43" stop-color="#ffc200"/><stop offset="0.51" stop-color="#f9b300"/><stop offset="0.65" stop-color="#eb8f00"/><stop offset="0.87" stop-color="#fd9200"/></radialGradient><radialGradient id="radial-gradient-3" cx="103.33" cy="-827.25" r="13.81" gradientTransform="matrix(1, 0, 0, -1, 0, -748)" gradientUnits="userSpaceOnUse"><stop offset="0.01" stop-color="#ffcc12"/><stop offset="0.13" stop-color="#ffc512"/><stop offset="0.29" stop-color="#feb212"/><stop offset="0.38" stop-color="#fda412"/><stop offset="0.47" stop-color="#ee9612"/><stop offset="0.64" stop-color="#c87112"/><stop offset="0.65" stop-color="#c56e12"/><stop offset="0.87" stop-color="#e37b12"/></radialGradient></defs><path d="M18.35,72.84c-1,5.48,2.19,15.69,8.81,24.21,7.7,9.9,31.88,27.4,57.21,24.2,35.2-4.4,14-52.79-14.3-60.51C52.46,65.14,18.52,72,18.35,72.84Z" style="fill:#5a0913"/><path d="M18.35,71.73c-1,5.48,2.19,15.69,8.81,24.2,7.7,9.92,31.88,27.38,57.21,24.22,35.2-4.4,14-52.79-14.3-60.51C53.6,63.75,24,64.57,19.46,68.4A16.48,16.48,0,0,0,18.35,71.73Z" style="fill:#b21c1b"/><path d="M10.65,29.94s16.51,18.7,17.61,19.77,2.2,3.3,0,6.59-6.59,7.7-8.8,12.1.32,15.15,7.7,25.3c8.8,12.1,33,28.6,57.2,25.31,36.77-5,15.12-55-13.18-62.71C47,49.71,45.87,48.6,43.68,46.39c-4.19-4.19-19.77-24.2-19.77-24.2s-4.92-2.5-7.7-1.1C9.56,24.44,10.65,29.94,10.65,29.94Z" style="fill:#f4c05e"/><path d="M19.46,68.44c-1,5.47,2.18,15.7,8.8,24.21,7.7,9.9,31.89,27.37,57.2,24.2,35.2-4.39,14-52.78-14.3-60.5C53.57,60.74,19.63,67.55,19.46,68.44Z" style="fill:#990426"/><path d="M19.46,68.44c-.48,2.48-.1,5,1.1,8.81,8.77-2.06,34.19-8.81,60.51-16.51a37.06,37.06,0,0,0-9.88-4.39C53.57,60.74,19.63,67.55,19.46,68.44Z" style="fill:#a6062a"/><path d="M85.46,115.75c-26.4,4.4-49.5-14.31-57.2-24.25-5.65-7.22-8.78-15.66-9-21.4-.21,5.76,2.94,14.81,9,22.55,7.7,9.9,30.8,28.6,57.2,24.2,13.31-2.22,18.61-9.7,18.41-19.45C103.67,106.64,98.27,113.61,85.46,115.75Z" style="fill:#5a0913"/><path d="M39.26,59.64l13.18-3.3-4.79-4.85L25,21.13s-6.59-3.3-11,1.11a11.62,11.62,0,0,0-3.31,5.49Z" style="fill:url(#linear-gradient)"/><path d="M45.86,52c3.31,0,6.59,4.39,6.59,4.39L39.27,59.66S42.56,52,45.86,52Z" style="fill:url(#linear-gradient-2)"/><polygon points="17.25 24.44 41.46 55.24 43.66 53.04 30.46 37.64 17.25 24.44" style="fill:#f7e08e"/><polygon points="29.36 28.84 42.56 46.44 52.46 56.34 27.16 24.44 29.36 28.84" style="fill:#972e0f"/><path d="M12.5,28.34c.36.5,18,19.19,18,19.19l7.7,9.91Z" style="fill:#b03d16"/><path d="M42.43,54.23c-2.68,4.13-3.91,20.47-1.35,29.64,3,10.66,13.92,29.39,35.67,35.24,30.21,8.18,29.1-38.43,8.56-54.2C69.46,62.61,42.87,53.55,42.43,54.23Z" style="fill:#5a0913;opacity:0.6000000000000001"/><path d="M43.46,52.1c-3,4.68-3.93,15.35-1,25.73,3.37,12.09,19.12,37.45,43.77,44.09,34.24,9.27,33-43.54,9.7-61.42C77.94,57.9,44,51.34,43.46,52.1Z" style="fill:#5a0913"/><path d="M43.88,51.07c-3,4.68-3.93,15.35-1,25.74C46.22,88.9,62,114.23,86.62,120.9c34.24,9.27,33-43.54,9.7-61.42C78.36,56.88,44.37,50.32,43.88,51.07Z" style="fill:#b21c1b"/><path d="M52.59,9.48s8.18,23.56,8.8,25,.79,3.89-2.5,6.09-9,4.63-12.73,7.86S40.71,62.55,43.7,74.74c3.56,14.53,19.7,39,43.34,45.1,35.93,9.29,34.83-45.15,11.57-63-19.9-15.27-20.5-16.72-21.69-19.59-2.29-5.46-9.13-29.89-9.13-29.89s-3.6-4.17-6.71-3.94C53.66,4,52.59,9.48,52.59,9.48Z" style="fill:#f4c05e"/><path d="M46.14,48.45c-3,4.68-3.92,15.35-1,25.73,3.38,12.09,19.14,37.41,43.77,44.08,34.24,9.27,33-43.54,9.7-61.41C80.63,54.25,46.64,47.68,46.14,48.45Z" style="fill:#b6052d"/><path d="M46.14,48.45c-1.37,2.11-2,4.57-2.31,8.56,8.89,1.43,35,4.81,62.24,7.66a36.89,36.89,0,0,0-7.47-7.81C80.63,54.25,46.64,47.68,46.14,48.45Z" style="fill:#c40732"/><path d="M89.29,117.24c-26.09-5.93-40.38-32-43.74-44.12-2.49-8.82-2.19-17.81-.19-23.2-2.38,5.25-2.89,14.82-.25,24.26,3.38,12.09,17.67,38.15,43.77,44.08,13.16,3,20.9-1.93,24.4-11C109.6,115.71,102,120.12,89.29,117.24Z" style="fill:#5a0913"/><path d="M67.81,47.81l13.45,1.94-2.6-6.31L69.17,6.76S64.32,1.2,58.57,3.6a11.74,11.74,0,0,0-5.15,3.84Z" style="fill:url(#linear-gradient-3)"/><path d="M76.83,43.2c3.06,1.25,4.43,6.57,4.43,6.57L67.81,47.83S73.77,42,76.83,43.2Z" style="fill:url(#linear-gradient-4)"/><polygon points="60.78 6.89 71.5 44.57 74.38 43.37 68 24.11 60.78 6.89" style="fill:#f7e08e"/><polygon points="70.32 15.55 75.86 36.84 81.27 49.76 69.95 10.64 70.32 15.55" style="fill:#972e0f"/><path d="M54.9,8.7c.15.59,9.35,24.57,9.35,24.57l3.37,12.08Z" style="fill:#b03d16"/><circle cx="103.88" cy="80.43" r="9.63" style="fill:url(#radial-gradient)"/><path d="M105.8,83c-4.17,3.11-8.48,4.38-9.82,2.89a.14.14,0,0,0,0,.1c1.22,1.62,5.65.37,9.9-2.82s6.72-7.06,5.52-8.68l-.08-.09C112.42,76.07,110,79.86,105.8,83Z" style="fill:url(#radial-gradient-2)"/><path d="M105.61,82.71c-4.17,3.12-8.47,4.38-9.82,2.89a.14.14,0,0,0,.06.11c1.21,1.62,5.64.37,9.89-2.83s6.72-7.06,5.52-8.68l-.08-.08C112.23,75.8,109.78,79.6,105.61,82.71Z" style="fill:url(#radial-gradient-3)"/></svg>
